<svg width="240" height="44" viewBox="0 0 240 44" fill="none" xmlns="http://www.w3.org/2000/svg">
<rect width="240" height="44" fill="#333333"/>
<g id="Our_Principal" clip-path="url(#clip0_621_13)">
<rect width="1920" height="3138" transform="translate(-300 -634)" fill="white"/>
<g id="Frame 539">
<g id="Frame 541">
<g id="Frame 550">
<g id="Group 1000002198">
<g id="Frame 540">
<rect x="-139.5" y="22.5435" width="519" height="269" rx="5.5" stroke="#DDDDDD"/>
</g>
<g id="Group 1000002207">
<rect id="Rectangle 1866" x="-41" y="-7.95654" width="320" height="60" fill="white"/>
<g id="Group">
<g id="Group_2">
<path id="Vector" d="M59.5588 42.7224L74.2459 0.291222C74.2967 0.142174 74.4322 0.043396 74.5837 0.043396H80.0913C80.2428 0.043396 80.3783 0.143056 80.43 0.291222L95.0595 42.7224C95.1433 42.9667 94.9697 43.2242 94.7208 43.2242H89.1836C89.0304 43.2242 88.8932 43.1228 88.8433 42.972L85.6243 33.26C85.5743 33.1092 85.438 33.0078 85.2839 33.0078H69.0982C68.9458 33.0078 68.8095 33.1083 68.7587 33.2583L65.4829 42.9737C65.4321 43.1237 65.2958 43.2242 65.1434 43.2242H59.8975C59.6477 43.2242 59.4741 42.9667 59.5588 42.7224ZM70.9854 27.9587H83.3425C83.5897 27.9587 83.7633 27.7047 83.6828 27.4612L77.531 8.96778C77.4192 8.63176 76.9637 8.63176 76.8511 8.9669L70.645 27.4604C70.5638 27.7038 70.7373 27.9587 70.9854 27.9587Z" fill="#0D232F"/>
<path id="Vector_2" d="M104.46 0.418161V42.8493C104.46 43.0566 104.299 43.2241 104.1 43.2241H99.1567C98.9577 43.2241 98.7969 43.0566 98.7969 42.8493V0.418161C98.7969 0.210904 98.9577 0.043335 99.1567 0.043335H104.1C104.299 0.043335 104.46 0.210904 104.46 0.418161Z" fill="#0D232F"/>
<path id="Vector_3" d="M115.261 0.418161V42.8493C115.261 43.0566 115.1 43.2241 114.901 43.2241H109.957C109.759 43.2241 109.598 43.0566 109.598 42.8493V0.418161C109.598 0.210904 109.759 0.043335 109.957 0.043335H114.901C115.099 0.043335 115.261 0.210904 115.261 0.418161Z" fill="#0D232F"/>
<path id="Vector_4" d="M119.465 27.7147C119.465 18.0442 125.303 11.5981 134.061 11.5981C142.76 11.5981 148.54 17.8008 148.54 26.9845C148.54 27.6565 148.499 28.415 148.45 29.0755C148.435 29.2705 148.279 29.4177 148.091 29.4177H125.625C125.419 29.4177 125.249 29.603 125.261 29.8173C125.591 35.8189 129.495 38.9048 134.294 38.9048C137.663 38.9048 140.474 37.3923 141.961 34.481C142.023 34.3602 142.14 34.2825 142.271 34.2825H147.383C147.633 34.2825 147.814 34.5454 147.727 34.7897C145.783 40.2215 140.804 43.7705 134.177 43.7705C125.303 43.7705 119.465 37.3843 119.465 27.7147ZM125.71 25.1597H142.365C142.577 25.1597 142.749 24.9639 142.73 24.7443C142.234 19.1228 138.621 16.3412 134.061 16.3412C129.618 16.3412 126.009 19.1193 125.347 24.7337C125.32 24.9569 125.493 25.1597 125.71 25.1597Z" fill="#0D232F"/>
<path id="Vector_5" d="M151.896 6.24251V0.418161C151.896 0.210904 152.057 0.043335 152.256 0.043335H158.084C158.283 0.043335 158.444 0.210904 158.444 0.418161V6.24251C158.444 6.44977 158.283 6.61734 158.084 6.61734H152.256C152.057 6.61734 151.896 6.44977 151.896 6.24251ZM152.338 42.8493V12.5819C152.338 12.3747 152.499 12.2071 152.698 12.2071H157.642C157.841 12.2071 158.002 12.3747 158.002 12.5819V42.8493C158.002 43.0566 157.841 43.2241 157.642 43.2241H152.698C152.499 43.2241 152.338 43.0557 152.338 42.8493Z" fill="#0D232F"/>
<path id="Vector_6" d="M206.686 43.2237H201.684C201.485 43.2237 201.325 43.0561 201.325 42.8489V24.9172C201.325 19.3221 198.756 17.0114 194.785 17.0114C190.932 17.0114 187.954 19.6873 187.837 25.5866V42.8489C187.837 43.0561 187.676 43.2237 187.477 43.2237H182.709C182.51 43.2237 182.349 43.0561 182.349 42.8489V25.2823C182.349 19.7481 179.897 17.0114 175.869 17.0114C171.49 17.0114 168.863 19.9307 168.863 24.9789V42.8489C168.863 43.0561 168.702 43.2237 168.503 43.2237H163.559C163.36 43.2237 163.199 43.0561 163.199 42.8489V12.5814C163.199 12.3742 163.36 12.2066 163.559 12.2066H167.983C168.155 12.2066 168.302 12.3327 168.336 12.5082L168.808 14.9662C168.869 15.282 169.259 15.3763 169.442 15.117C171.116 12.7561 173.955 11.5981 177.035 11.5981C181.159 11.5981 184.558 13.324 186.354 16.7751C186.494 17.0432 186.847 17.045 186.989 16.7786C188.907 13.1715 192.54 11.5981 196.068 11.5981C202.433 11.5981 207.045 15.9769 207.045 23.8227V42.8489C207.046 43.0561 206.885 43.2237 206.686 43.2237Z" fill="#0D232F"/>
<path id="Vector_7" d="M210.752 34.3868C210.752 29.208 213.852 25.1863 222.041 25.1863H230.807C231.006 25.1863 231.167 25.0188 231.167 24.8115V23.6024C231.167 18.6062 228.242 16.4128 224.089 16.4128C220.016 16.4128 217.475 18.2357 217.047 21.386C217.021 21.5713 216.877 21.7132 216.697 21.7132H212.023C211.811 21.7132 211.639 21.5201 211.658 21.3014C212.202 15.0422 216.993 11.5991 223.92 11.5991C231.057 11.5991 236.665 15.4991 236.665 23.6632V36.5202C236.665 38.3476 237.25 38.7136 238.712 38.7136H239.639C239.838 38.7136 239.999 38.8811 239.999 39.0884V42.8481C239.999 43.0554 239.838 43.223 239.639 43.223H236.548C234.326 43.223 232.391 42.3754 231.782 39.9139C231.709 39.6167 231.35 39.525 231.166 39.7649C229.296 42.1955 225.74 43.8324 221.399 43.8324C214.905 43.8315 210.752 40.2976 210.752 34.3868ZM222.567 39.1396C227.188 39.1396 231.107 36.5202 231.107 30.9137V29.7654C231.107 29.5581 230.947 29.3906 230.748 29.3906H222.45C217.771 29.3906 216.25 31.5231 216.25 34.2042C216.25 37.6164 218.882 39.1396 222.567 39.1396Z" fill="#0D232F"/>
</g>
<g id="Group_3">
<path id="Vector_8" d="M25.894 0.043396H15.0059L34.3361 43.2242H45.2242L25.894 0.043396Z" fill="#FF5532"/>
<path id="Vector_9" d="M0 0.043457V10.7256H14.0199C14.2663 10.7256 14.4297 10.9919 14.3256 11.2247L0 43.2243H10.8881L17.4472 28.5717C23.3993 15.2773 14.0826 0.043457 0 0.043457Z" fill="#FF5532"/>
</g>
</g>
</g>
</g>
</g>
</g>
</g>
</g>
<defs>
<clipPath id="clip0_621_13">
<rect width="1920" height="3138" fill="white" transform="translate(-300 -634)"/>
</clipPath>
</defs>
</svg>
