<svg width="194" height="33" viewBox="0 0 194 33" fill="none" xmlns="http://www.w3.org/2000/svg">
<g id="logo 1" clip-path="url(#clip0_1417_5605)">
<path id="&#60;&#232;&#183;&#175;&#229;&#190;&#132;&#62;" fill-rule="evenodd" clip-rule="evenodd" d="M75.3008 0H79.9308C80.3946 0.00293207 80.8391 0.185772 81.1708 0.51C81.3337 0.670495 81.4628 0.862048 81.5504 1.07332C81.638 1.28459 81.6824 1.51129 81.6808 1.74V23.34C81.5908 24.9 82.3408 25.61 83.9108 25.51H91.2608C93.2608 25.51 94.8608 26.61 94.8608 28.87V30.3C94.8607 30.5308 94.8147 30.7594 94.7254 30.9723C94.6361 31.1851 94.5054 31.3781 94.3408 31.54H94.2808C93.9639 31.8372 93.5452 32.0018 93.1108 32H79.9808C78.3027 31.9993 76.6913 31.3425 75.4908 30.17L75.4108 30.16C74.8267 29.5672 74.3616 28.8679 74.0408 28.1C73.7245 27.319 73.5681 26.4825 73.5808 25.64V1.75C73.5792 1.52129 73.6236 1.29459 73.7112 1.08332C73.7988 0.872048 73.9279 0.680495 74.0908 0.52C74.4134 0.199196 74.846 0.0132657 75.3008 0Z" fill="#006CB6"/>
<path id="&#60;&#232;&#183;&#175;&#229;&#190;&#132;&#62;_2" fill-rule="evenodd" clip-rule="evenodd" d="M158.311 0H162.951C163.412 0.00128479 163.854 0.184567 164.181 0.51L164.231 0.57C164.532 0.889514 164.7 1.3113 164.701 1.75V30.31C164.7 30.5408 164.654 30.7691 164.565 30.9819C164.476 31.1947 164.345 31.3878 164.181 31.55C164.02 31.712 163.828 31.8405 163.617 31.9281C163.406 32.0156 163.18 32.0605 162.951 32.06H160.581C159.464 32.0126 158.377 31.6787 157.427 31.0902C156.476 30.5018 155.692 29.6787 155.151 28.7L146.581 14V30.31C146.578 30.7738 146.395 31.2183 146.071 31.55C145.91 31.7125 145.719 31.8413 145.507 31.9289C145.296 32.0164 145.07 32.061 144.841 32.06H140.211C139.981 32.0607 139.753 32.016 139.54 31.9285C139.327 31.841 139.134 31.7123 138.971 31.55C138.808 31.3876 138.679 31.1943 138.591 30.9814C138.503 30.7685 138.459 30.5402 138.461 30.31V1.8C138.459 1.57129 138.504 1.34459 138.591 1.13332C138.679 0.922048 138.808 0.730496 138.971 0.57L139.031 0.51C139.353 0.214723 139.774 0.0506348 140.211 0.0500002H142.971C145.531 0.0500002 147.141 1.43 148.571 3.91L156.571 17.91V1.75C156.571 1.52058 156.617 1.29345 156.706 1.08214C156.795 0.870829 156.926 0.679654 157.091 0.52C157.414 0.19332 157.852 0.00656133 158.311 0Z" fill="#006CB6"/>
<path id="&#60;&#232;&#183;&#175;&#229;&#190;&#132;&#62;_3" fill-rule="evenodd" clip-rule="evenodd" d="M62.6797 5.58524e-05H67.3197C67.5531 -0.0032728 67.7848 0.0401343 68.0012 0.127721C68.2176 0.215308 68.4143 0.345304 68.5797 0.510056L68.6397 0.570056C68.9333 0.893192 69.0971 1.31345 69.0997 1.75006V30.3101C69.0996 30.5409 69.0536 30.7694 68.9643 30.9823C68.875 31.1952 68.7443 31.3882 68.5797 31.5501C68.2581 31.8462 67.8368 32.0104 67.3997 32.0101H62.6797C62.4511 32.0111 62.2245 31.9665 62.0133 31.8789C61.8021 31.7913 61.6105 31.6625 61.4497 31.5001C61.2851 31.3382 61.1543 31.1452 61.0651 30.9323C60.9758 30.7194 60.9298 30.4909 60.9297 30.2601V1.75006C60.9294 1.52064 60.9753 1.29351 61.0647 1.0822C61.154 0.870885 61.2849 0.67971 61.4497 0.520056C61.7755 0.191869 62.2173 0.00507481 62.6797 5.58524e-05Z" fill="#006CB6"/>
<path id="&#60;&#232;&#183;&#175;&#229;&#190;&#132;&#62;_4" fill-rule="evenodd" clip-rule="evenodd" d="M1.74977 0H6.37977C6.8301 0.0111079 7.25924 0.193495 7.57977 0.51C7.74272 0.670495 7.87181 0.862048 7.95941 1.07332C8.04701 1.28459 8.09134 1.51129 8.08977 1.74V11.66C8.08977 12.52 8.43977 13.04 9.40977 13.01H18.9698C19.7898 13.01 20.0798 12.6 20.0698 11.87C20.0706 11.4058 20.2537 10.9605 20.5798 10.63C20.7508 10.47 20.9522 10.3459 21.1721 10.2652C21.392 10.1845 21.6258 10.1487 21.8598 10.16H26.4898C26.7205 10.1606 26.9489 10.2069 27.1617 10.2962C27.3745 10.3854 27.5676 10.5158 27.7298 10.68C27.893 10.8424 28.0222 11.0357 28.1098 11.2486C28.1974 11.4615 28.2416 11.6898 28.2398 11.92V30.31C28.2416 30.5402 28.1974 30.7685 28.1098 30.9814C28.0222 31.1943 27.893 31.3876 27.7298 31.55H27.6698C27.3498 31.8487 26.9275 32.0133 26.4898 32.01H21.8598C21.6311 32.0116 21.4044 31.9672 21.1931 31.8796C20.9818 31.792 20.7903 31.6629 20.6298 31.5C20.3037 31.1695 20.1206 30.7242 20.1198 30.26V20.93C20.1429 20.7476 20.1249 20.5623 20.067 20.3878C20.0091 20.2133 19.9128 20.0539 19.7852 19.9215C19.6576 19.7891 19.5019 19.687 19.3297 19.6227C19.1574 19.5584 18.9729 19.5336 18.7898 19.55H9.57977C8.57977 19.5 8.09977 19.95 8.11977 20.97V30.31C8.11765 30.5424 8.06875 30.7719 7.97597 30.985C7.88319 31.198 7.74845 31.3902 7.57977 31.55C7.25512 31.8476 6.83019 32.0119 6.38977 32.01H1.74977C1.52107 32.0116 1.29437 31.9672 1.08309 31.8796C0.871821 31.792 0.680269 31.6629 0.519773 31.5C0.194341 31.1732 0.0110583 30.7312 0.0097735 30.27V1.75C0.00839497 1.29024 0.188003 0.848401 0.509773 0.52C0.839824 0.192109 1.28457 0.00560324 1.74977 0Z" fill="#006CB6"/>
<path id="&#60;&#232;&#183;&#175;&#229;&#190;&#132;&#62;_5" fill-rule="evenodd" clip-rule="evenodd" d="M26.4898 8.16001H21.8598C21.6208 8.16215 21.384 8.11534 21.1639 8.02247C20.9437 7.9296 20.745 7.79263 20.5798 7.62001V7.57001C20.2822 7.24536 20.1179 6.82043 20.1198 6.38001V1.75001C20.1076 1.29584 20.2726 0.854753 20.5798 0.52001C20.9114 0.195782 21.356 0.0129418 21.8198 0.0100098H26.4498C26.914 0.0108238 27.3593 0.193979 27.6898 0.52001L27.7398 0.58001C28.0367 0.901061 28.2011 1.32267 28.1998 1.76001V6.38001C28.2015 6.61024 28.1574 6.8385 28.0698 7.05143C27.9822 7.26435 27.853 7.45766 27.6898 7.62001C27.3765 7.95105 26.9453 8.1451 26.4898 8.16001Z" fill="#E50012"/>
<path id="&#60;&#232;&#183;&#175;&#229;&#190;&#132;&#62;_6" fill-rule="evenodd" clip-rule="evenodd" d="M98.7403 0H103.37C103.834 0.00293207 104.279 0.185772 104.61 0.51V0.57C104.904 0.893136 105.068 1.31339 105.07 1.75V30.31C105.069 30.7742 104.886 31.2195 104.56 31.55H104.5C104.179 31.847 103.758 32.0113 103.32 32.01H98.7403C98.5101 32.0118 98.2818 31.9676 98.0689 31.88C97.8559 31.7924 97.6626 31.6632 97.5003 31.5C97.337 31.3376 97.2078 31.1443 97.1203 30.9314C97.0327 30.7185 96.9885 30.4902 96.9903 30.26V1.75C96.9887 1.52129 97.033 1.29459 97.1206 1.08332C97.2082 0.872048 97.3373 0.680495 97.5003 0.52C97.8291 0.190304 98.2746 0.00347404 98.7403 0Z" fill="#006CB6"/>
<path id="&#60;&#232;&#183;&#175;&#229;&#190;&#132;&#62;_7" fill-rule="evenodd" clip-rule="evenodd" d="M41.0707 0H45.0707C48.0707 0 49.5607 1.39 50.5007 4.23L59.0607 30.23C59.5507 31.41 58.8607 32.04 58.0607 32.04H53.0607C52.7357 32.0358 52.4186 31.9397 52.1461 31.7627C51.8735 31.5857 51.6567 31.3351 51.5207 31.04C48.1107 20.22 48.4307 21.28 44.6507 9.41C44.6433 9.38523 44.6281 9.36351 44.6074 9.34807C44.5867 9.33262 44.5615 9.32428 44.5357 9.32428C44.5098 9.32428 44.4847 9.33262 44.4639 9.34807C44.4432 9.36351 44.428 9.38523 44.4207 9.41C40.9807 20 40.5807 21.31 37.5807 30.98C37.4592 31.2939 37.2468 31.5644 36.9707 31.7568C36.6945 31.9492 36.3672 32.0548 36.0307 32.06H31.1607C30.1607 32.06 29.4807 31.51 29.9107 30.25L39.5107 1.09C39.6312 0.772664 39.8444 0.498963 40.1227 0.304547C40.4009 0.11013 40.7312 0.00400696 41.0707 0Z" fill="#006CB6"/>
<path id="&#60;&#232;&#183;&#175;&#229;&#190;&#132;&#62;_8" fill-rule="evenodd" clip-rule="evenodd" d="M118.23 0H122.23C125.23 0 126.72 1.39 127.66 4.23L136.22 30.23C136.71 31.41 136.01 32.04 135.22 32.04H130.22C129.896 32.0363 129.58 31.9403 129.309 31.7631C129.038 31.586 128.823 31.3351 128.69 31.04C125.28 20.22 125.6 21.28 121.82 9.41C121.813 9.38523 121.798 9.36351 121.777 9.34807C121.756 9.33262 121.731 9.32428 121.705 9.32428C121.679 9.32428 121.654 9.33262 121.633 9.34807C121.613 9.36351 121.598 9.38523 121.59 9.41C118.17 20.01 117.8 21.32 114.74 30.99C114.617 31.3047 114.403 31.5755 114.125 31.7679C113.847 31.9603 113.518 32.0654 113.18 32.07H108.35C107.35 32.07 106.67 31.52 107.1 30.26L116.7 1.1C116.817 0.785457 117.025 0.512866 117.298 0.316964C117.57 0.121063 117.895 0.0107207 118.23 0Z" fill="#006CB6"/>
<path id="&#60;&#232;&#183;&#175;&#229;&#190;&#132;&#62;_9" fill-rule="evenodd" clip-rule="evenodd" d="M175.349 0.0699463H185.349C187.529 0.0831548 189.614 0.958176 191.151 2.50392C192.687 4.04967 193.549 6.14055 193.549 8.31995V9.31995C193.549 10.0699 193.249 10.4699 192.459 10.4699H186.459C185.829 10.4699 185.389 10.2599 185.389 9.46995C185.392 9.16838 185.335 8.86926 185.222 8.58977C185.109 8.31027 184.941 8.05591 184.729 7.84127C184.518 7.62663 184.265 7.45595 183.987 7.33903C183.709 7.22211 183.411 7.16125 183.109 7.15995H177.579C176.976 7.16522 176.398 7.40881 175.973 7.8377C175.548 8.26659 175.309 8.84605 175.309 9.44995V22.6199C175.309 23.2229 175.548 23.8013 175.974 24.2286C176.399 24.6559 176.976 24.8973 177.579 24.8999H183.069C183.672 24.8973 184.25 24.6559 184.675 24.2286C185.101 23.8013 185.339 23.2229 185.339 22.6199V19.6199H181.839C181.655 19.6149 181.473 19.5728 181.305 19.4961C181.136 19.4194 180.985 19.3098 180.86 19.1736C180.735 19.0374 180.639 18.8775 180.577 18.7034C180.515 18.5293 180.489 18.3445 180.499 18.1599V14.3599C180.498 14.1779 180.533 13.9974 180.602 13.8288C180.67 13.6602 180.772 13.5069 180.9 13.3777C181.028 13.2485 181.181 13.1459 181.349 13.0759C181.517 13.006 181.697 12.9699 181.879 12.9699H192.199C192.384 12.9699 192.567 13.0068 192.737 13.0787C192.907 13.1505 193.061 13.2558 193.19 13.3882C193.318 13.5206 193.419 13.6775 193.486 13.8496C193.553 14.0216 193.585 14.2054 193.579 14.3899V23.7399C193.58 25.9203 192.718 28.0122 191.181 29.5595C189.645 31.1069 187.56 31.9841 185.379 31.9999H175.379C173.2 31.9841 171.116 31.1065 169.581 29.5589C168.047 28.0113 167.187 25.9194 167.189 23.7399V8.31995C167.187 6.14662 168.043 4.06022 169.571 2.51504C171.099 0.969862 173.176 0.0910448 175.349 0.0699463Z" fill="#006CB6"/>
</g>
<defs>
<clipPath id="clip0_1417_5605">
<rect width="193.58" height="32.06" fill="white"/>
</clipPath>
</defs>
</svg>
