<svg width="133" height="47" viewBox="0 0 133 47" fill="none" xmlns="http://www.w3.org/2000/svg">
<g id="Frame" clip-path="url(#clip0_1417_5510)">
<path id="Vector" d="M49.7206 22.98V43.57C49.7179 43.8043 49.623 44.0281 49.4564 44.1928C49.2897 44.3576 49.0649 44.45 48.8305 44.45H38.4506C38.2162 44.45 37.9914 44.3576 37.8247 44.1928C37.6581 44.0281 37.5632 43.8043 37.5605 43.57V3.21998C37.5632 2.98567 37.6581 2.76186 37.8247 2.59711C37.9914 2.43236 38.2162 2.33999 38.4506 2.34H48.8305C48.8305 2.34 49.1806 2.16998 50.1306 3.12998L60.2306 15.32L60.3506 15.47C60.444 15.5627 60.5548 15.636 60.6766 15.6858C60.7985 15.7355 60.9289 15.7607 61.0605 15.76C61.3049 15.7569 61.5397 15.6644 61.7206 15.5L61.8806 15.31L72.2705 3.06998C72.4351 2.77606 72.6916 2.54421 73.0005 2.40998C73.1121 2.36584 73.2306 2.34216 73.3506 2.34H83.7306C83.9649 2.33999 84.1897 2.43236 84.3564 2.59711C84.523 2.76186 84.6179 2.98567 84.6205 3.21998V43.57C84.6179 43.8043 84.523 44.0281 84.3564 44.1928C84.1897 44.3576 83.9649 44.45 83.7306 44.45H73.3506C73.1162 44.45 72.8914 44.3576 72.7247 44.1928C72.5581 44.0281 72.4632 43.8043 72.4605 43.57V22.26C72.4274 22.0847 72.348 21.9214 72.2305 21.7871C72.1131 21.6529 71.9618 21.5525 71.7924 21.4964C71.6231 21.4403 71.4418 21.4305 71.2674 21.468C71.093 21.5056 70.9318 21.5891 70.8005 21.71L70.6406 21.9L61.8605 32.54L61.7306 32.7C61.6374 32.7952 61.5262 32.8709 61.4034 32.9226C61.2806 32.9743 61.1488 33.0009 61.0156 33.0009C60.8824 33.0009 60.7505 32.9743 60.6277 32.9226C60.5049 32.8709 60.3937 32.7952 60.3005 32.7L51.5905 22.43L51.4106 22.21C51.2257 22.0469 50.9871 21.9579 50.7405 21.96C50.4949 21.9582 50.2571 22.047 50.0727 22.2093C49.8883 22.3716 49.77 22.5961 49.7405 22.84L49.7206 22.98Z" fill="#0068AF"/>
<path id="Vector_2" d="M13.24 34.03H31.45C31.5677 34.0287 31.6845 34.0507 31.7937 34.0949C31.9028 34.139 32.0021 34.2044 32.0858 34.2871C32.1695 34.3699 32.236 34.4685 32.2813 34.5771C32.3267 34.6857 32.35 34.8023 32.35 34.92V43.57C32.3487 43.6869 32.3244 43.8024 32.2784 43.9099C32.2325 44.0173 32.1658 44.1147 32.0823 44.1964C31.9987 44.2782 31.8998 44.3426 31.7914 44.3861C31.6829 44.4296 31.5669 44.4513 31.45 44.45H0.889999C0.655679 44.45 0.430814 44.3576 0.264191 44.1929C0.0975678 44.0281 0.00263281 43.8043 0 43.57V3.22C0.00263281 2.9857 0.0975678 2.76189 0.264191 2.59714C0.430814 2.43239 0.655679 2.34001 0.889999 2.34003H11.27C11.5043 2.34001 11.7292 2.43239 11.8958 2.59714C12.0624 2.76189 12.1574 2.9857 12.16 3.22V33.12C12.18 33.353 12.2809 33.5716 12.4453 33.7379C12.6098 33.9041 12.8273 34.0075 13.06 34.03H13.24Z" fill="#0068AF"/>
<path id="Vector_3" d="M129.631 38.51L123.731 32.4L123.641 32.31C123.451 32.1326 123.2 32.0357 122.941 32.04C122.716 32.0385 122.498 32.1124 122.321 32.25L122.191 32.36C120.456 33.9248 118.305 34.953 115.997 35.32C113.69 35.687 111.326 35.3771 109.191 34.4278C107.057 33.4785 105.243 31.9306 103.97 29.9715C102.697 28.0124 102.02 25.7263 102.02 23.39C102.02 21.0537 102.697 18.7676 103.97 16.8085C105.243 14.8495 107.057 13.3015 109.191 12.3522C111.326 11.4029 113.69 11.093 115.997 11.46C118.305 11.827 120.456 12.8552 122.191 14.42L122.321 14.53C122.498 14.6676 122.716 14.7416 122.941 14.74C123.199 14.7375 123.448 14.6415 123.641 14.47L123.731 14.38L129.631 8.26001L129.701 8.20001C129.868 8.00901 129.96 7.76388 129.961 7.51001C129.962 7.3784 129.936 7.24794 129.887 7.1261C129.837 7.00426 129.764 6.89346 129.671 6.80002V6.75C126.111 3.23214 121.515 0.950195 116.561 0.240021C116.081 0.170021 115.561 0.120017 115.111 0.0800171H114.791C114.291 0.0800171 113.791 0.0300293 113.271 0.0300293C107.067 0.0300293 101.118 2.49432 96.7316 6.8808C92.3452 11.2673 89.8809 17.2166 89.8809 23.42C89.8809 29.6234 92.3452 35.5728 96.7316 39.9592C101.118 44.3457 107.067 46.81 113.271 46.81C113.781 46.81 114.271 46.81 114.791 46.75H115.111C115.601 46.75 116.111 46.66 116.561 46.59C121.517 45.8805 126.114 43.5944 129.671 40.07C129.764 39.9766 129.837 39.8658 129.887 39.7439C129.936 39.6221 129.962 39.4916 129.961 39.36C129.96 39.1061 129.868 38.861 129.701 38.67L129.631 38.51Z" fill="#0068AF"/>
<path id="Vector_4" d="M130.92 32.64C131.081 32.5875 131.217 32.477 131.3 32.33C131.399 32.1894 131.451 32.0216 131.45 31.85C131.465 31.7114 131.441 31.5716 131.383 31.445C131.325 31.3184 131.235 31.2096 131.12 31.13C130.88 30.9833 130.602 30.9103 130.32 30.92H129.24V33.89H129.82V32.89H130.41L130.92 33.89H131.57L130.92 32.64ZM130.2 32.37H129.82V31.37H130.23C130.395 31.3512 130.56 31.3979 130.69 31.5C130.777 31.5918 130.823 31.714 130.82 31.84C130.82 32.17 130.61 32.33 130.2 32.33" fill="#0068AF"/>
<path id="Vector_5" d="M130.29 29.67C129.754 29.67 129.23 29.8289 128.784 30.1267C128.339 30.4245 127.991 30.8478 127.786 31.3429C127.581 31.8381 127.528 32.383 127.632 32.9087C127.737 33.4344 127.995 33.9173 128.374 34.2963C128.753 34.6753 129.236 34.9334 129.761 35.0379C130.287 35.1425 130.832 35.0888 131.327 34.8837C131.822 34.6786 132.246 34.3313 132.543 33.8856C132.841 33.44 133 32.916 133 32.38C133.001 32.0237 132.932 31.6707 132.796 31.3414C132.661 31.012 132.461 30.7127 132.209 30.4608C131.957 30.2089 131.658 30.0093 131.329 29.8736C130.999 29.7379 130.646 29.6687 130.29 29.67ZM130.29 34.53C129.862 34.53 129.444 34.4031 129.089 34.1653C128.734 33.9275 128.457 33.5895 128.294 33.1943C128.13 32.799 128.088 32.3642 128.172 31.9449C128.257 31.5256 128.463 31.1408 128.766 30.8391C129.069 30.5374 129.455 30.3325 129.875 30.2503C130.294 30.1681 130.729 30.2123 131.124 30.3773C131.518 30.5423 131.855 30.8207 132.091 31.1773C132.327 31.5338 132.452 31.9524 132.45 32.38C132.45 32.6632 132.394 32.9436 132.285 33.2051C132.177 33.4666 132.018 33.7041 131.817 33.9038C131.616 34.1036 131.378 34.2618 131.116 34.3692C130.854 34.4767 130.573 34.5313 130.29 34.53Z" fill="#0068AF"/>
</g>
<defs>
<clipPath id="clip0_1417_5510">
<rect width="133" height="46.78" fill="white"/>
</clipPath>
</defs>
</svg>
