<svg width="254" height="52" viewBox="0 0 254 52" fill="none" xmlns="http://www.w3.org/2000/svg">
<g id="logo_wieland 1">
<g id="Group">
<path id="Vector" d="M61.7306 17.2621L56.0408 33.2921L50.0367 17.2621H45.7878L39.6286 33.4477L33.9388 17.2621H27L37.2122 45.727H41.6571L47.8531 29.5006L53.8939 45.727H58.4163L68.7469 17.2621H61.7306Z" fill="#E0251B"/>
<path id="Vector_2" d="M71.9794 45.7269H79.0733V17.262H71.9794V45.7269ZM72.3304 6.86204C71.4733 7.72188 71.0039 8.85606 71.0039 10.068C71.0039 11.3209 71.4733 12.5329 72.3672 13.4296C74.0815 15.2271 76.9264 15.268 78.7223 13.5074L78.7631 13.4664C79.6202 12.6066 80.0896 11.3946 80.0896 10.1827C80.0896 8.92976 79.6202 7.75873 78.7264 6.89889C77.0121 5.10141 74.1672 5.06046 72.3713 6.82109L72.3304 6.86204Z" fill="#E0251B"/>
<path id="Vector_3" d="M91.3921 27.9365C92.2125 26.1759 93.0697 24.9639 94.0044 24.2596C95.5227 23.1255 97.3554 22.54 99.2289 22.5768C100.943 22.5359 102.621 23.0845 104.025 24.0631C105.388 25.0007 106.364 26.3683 106.792 27.9324H91.3921V27.9365ZM113.923 32.1989C113.923 27.5066 112.519 23.7151 109.751 20.8203C106.984 17.9255 103.319 16.5211 98.8778 16.5211C94.437 16.5211 91.1595 17.9664 88.3921 20.8203C85.6248 23.6741 84.2207 27.31 84.2207 31.6502C84.2207 35.9903 85.6248 39.4297 88.3921 42.2467C91.1595 45.0596 94.8248 46.4681 99.2656 46.4681C102.111 46.4681 104.604 45.9604 106.67 44.945C108.853 43.8518 110.686 42.2099 112.049 40.2159L106.045 37.4029C104.213 39.2414 101.759 40.2159 99.184 40.179C96.9636 40.179 95.1676 39.5935 93.7268 38.4184C92.286 37.1655 91.3472 35.4458 91.0778 33.5705H113.919V32.1989H113.923Z" fill="#E0251B"/>
<path id="Vector_4" d="M126.045 6.27661H118.951V45.7679H126.045V6.27661Z" fill="#E0251B"/>
<path id="Vector_5" d="M151.378 25.4347C152.86 26.9578 153.562 28.9518 153.562 31.4576C153.562 33.9594 152.86 36.0312 151.378 37.5953C148.456 40.6457 143.623 40.7235 140.582 37.7918C140.505 37.714 140.427 37.6362 140.35 37.5584C138.868 35.9534 138.129 33.9225 138.129 31.4576C138.129 29.0337 138.868 27.0397 140.313 25.4756C141.717 23.9524 143.741 23.0926 145.811 23.1295C147.909 23.0885 149.937 23.9074 151.378 25.4347ZM153.252 20.3902C152.084 19.1373 150.68 18.1628 149.121 17.4954C147.639 16.8321 146.003 16.5169 144.366 16.5169C140.741 16.4759 137.309 18.0032 134.933 20.7383C132.362 23.5553 131.076 27.1502 131.076 31.5313C131.076 35.7937 132.403 39.3518 135.092 42.2057C137.782 45.0595 140.901 46.468 144.566 46.468C146.125 46.509 147.644 46.1937 149.088 45.6082C150.648 44.9039 152.052 43.9254 153.26 42.7134V45.7228H160.395V17.2621H153.26V20.3902H153.252Z" fill="#E0251B"/>
<path id="Vector_6" d="M167.561 45.7271H174.655V34.3075C174.655 31.339 174.773 29.4228 174.965 28.522C175.275 26.9989 176.018 25.6272 177.108 24.534C178.12 23.5963 179.446 23.0477 180.81 23.0886C181.822 23.0477 182.797 23.363 183.618 23.9485C184.397 24.6118 184.944 25.5126 185.177 26.4912C185.491 27.6253 185.646 29.8527 185.646 33.2552V45.7271H192.663V26.9211C192.663 23.6373 191.842 21.1724 190.206 19.4937C188.336 17.5406 185.761 16.4842 183.071 16.5211C181.708 16.5211 180.34 16.7954 179.055 17.3441C177.728 17.8518 176.287 18.8304 174.651 20.1979V17.2663H167.557V45.7271H167.561Z" fill="#E0251B"/>
<path id="Vector_7" d="M217.996 25.4347C219.477 26.9579 220.179 28.9519 220.179 31.4577C220.179 33.9594 219.477 36.0313 217.996 37.5954C215.073 40.6457 210.24 40.7235 207.2 37.7919C207.122 37.7141 207.045 37.6363 206.967 37.5585C205.526 35.9535 204.783 33.9226 204.783 31.4577C204.783 28.9928 205.485 27.0398 206.926 25.4757C208.33 23.9525 210.355 23.0927 212.42 23.1295C214.526 23.0886 216.555 23.9075 217.996 25.4347ZM219.865 20.3903C218.694 19.1374 217.294 18.1629 215.734 17.4955C214.253 16.8322 212.616 16.5169 210.979 16.5169C207.277 16.5169 204.159 17.9254 201.547 20.7383C198.934 23.5554 197.689 27.1503 197.689 31.5314C197.689 35.9125 199.016 39.3519 201.706 42.2057C204.396 45.0596 207.514 46.4681 211.179 46.4681C212.738 46.509 214.257 46.1938 215.702 45.6083C217.261 44.904 218.665 43.9254 219.873 42.7135V45.7229H227V6.27661H219.865V20.3903Z" fill="#E0251B"/>
</g>
</g>
</svg>
