<svg width="267" height="196" viewBox="0 0 267 196" fill="none" xmlns="http://www.w3.org/2000/svg">
<g clip-path="url(#clip0_1948_2140)">
<path d="M257.843 97.5949H246.501L241.73 89.3035H229.58L224.808 97.5949H84.0357C73.8669 97.5949 65.0279 92.0673 60.2564 83.854C59.761 83.0979 59.4221 82.2635 59.0049 81.5074L54.103 70.7911L45.264 51.6529C44.5861 50.271 45.8116 48.6805 47.3499 48.9673L89.094 56.7112V7.90114C89.094 7.19714 89.7198 6.59745 90.3977 6.59745H93.0833C93.7873 6.59745 94.3349 7.22322 94.3349 7.90114V37.0777L102.705 37.2081V16.8966C102.705 16.2187 103.252 15.645 103.956 15.645H106.642C107.32 15.645 107.893 16.1926 107.893 16.8966V37.2863H112.248V1.33054C112.248 0.574405 112.795 0.0268555 113.551 0.0268555H116.185C116.941 0.0268555 117.488 0.574405 117.488 1.33054V33.9488L119.574 36.0347V39.0854H126.692V43.9351L122.129 48.2894H146.952V30.455H160.693V61.8999C160.693 62.2389 160.901 62.6561 161.188 62.9429L164.499 66.2542C164.786 66.5411 165.047 66.6714 165.386 66.6714L177.615 68.2619C178.162 68.3401 178.657 68.6009 178.996 69.0963L187.288 80.647C187.496 80.9859 187.914 81.1945 188.331 81.1945L240.713 81.2727C249.5 82.2375 256.462 89.0166 257.843 97.6471V97.5949Z" fill="#182A41"/>
<path d="M174.434 3.41649V16.688C166.898 16.688 160.823 22.7632 160.745 30.3768H160.667V30.455H146.926V30.2464C146.926 29.0731 147.004 27.8998 147.213 26.7786C147.213 26.6482 147.213 26.4918 147.291 26.3614C147.369 25.6053 147.499 24.8491 147.708 24.1451C147.838 23.5194 147.995 22.8936 148.203 22.2678C148.751 20.3905 149.507 18.6697 150.472 17.027C150.759 16.5316 151.019 16.0623 151.358 15.5669C151.567 15.1497 151.776 14.889 151.984 14.6021C152.401 14.0546 152.818 13.507 153.157 13.0116C153.783 12.3337 154.409 11.6297 155.035 11.004C155.452 10.5868 155.869 10.1696 156.338 9.83064C157.381 8.86591 158.424 8.03155 159.598 7.27541C160.145 6.93645 160.771 6.5975 161.397 6.23246C163.326 5.18951 165.464 4.303 167.681 3.8076C168.306 3.59901 168.984 3.46864 169.61 3.39042C170.105 3.26005 170.653 3.18183 171.2 3.10361C171.826 3.02539 172.452 2.97324 173.078 2.97324C173.365 2.89502 173.704 2.89502 174.043 2.89502C174.329 2.97324 174.46 3.10361 174.46 3.39042L174.434 3.41649Z" fill="#C4A458"/>
<path d="M246.423 102.21L241.73 110.319H229.58L224.886 102.21H82.4192V102.106C64.689 100.984 58.9007 91.989 55.7457 85.3663C55.7457 85.3663 55.7457 85.3402 55.7197 85.3141L47.6629 67.8447C43.7257 66.4889 39.5278 65.7588 35.1214 65.7588C19.5293 65.7588 6.10126 74.9889 0.0260738 88.3126H19.3207C28.2379 88.3126 35.7993 95.3525 35.8514 104.27C35.8514 108.728 34.0784 112.77 31.1321 115.69C28.2379 118.584 24.2225 120.409 19.79 120.409H0C6.07519 133.707 19.5032 142.963 35.0953 142.963C50.6874 142.963 64.2458 133.629 70.2949 120.253L240.713 120.149C250.021 119.158 257.348 111.596 258 102.21H246.423Z" fill="#182A41"/>
</g>
<path d="M12.42 182.639V179.279H21.6V179.519C21.6 183.099 20.62 185.859 18.66 187.799C16.9 189.559 14.53 190.439 11.55 190.439C8.51 190.439 6.09 189.539 4.29 187.739C2.31 185.759 1.32 183.189 1.32 180.029C1.32 177.029 2.3 174.549 4.26 172.589C6.26 170.549 8.89 169.529 12.15 169.529C13.91 169.529 15.45 169.879 16.77 170.579C18.31 171.359 19.56 172.579 20.52 174.239L17.13 176.069C16.59 175.029 15.81 174.239 14.79 173.699C13.95 173.279 13.01 173.069 11.97 173.069C10.09 173.069 8.55 173.659 7.35 174.839C6.01 176.139 5.34 177.899 5.34 180.119C5.34 182.219 6 183.909 7.32 185.189C8.5 186.329 9.98 186.899 11.76 186.899C13.32 186.899 14.63 186.499 15.69 185.699C16.65 184.959 17.28 183.939 17.58 182.639H12.42ZM27.5002 172.469C29.5002 170.509 32.0702 169.529 35.2102 169.529C38.3502 169.529 40.9102 170.509 42.8902 172.469C44.8902 174.429 45.8902 176.939 45.8902 179.999C45.8902 183.059 44.8902 185.569 42.8902 187.529C40.9102 189.469 38.3502 190.439 35.2102 190.439C32.0702 190.439 29.5002 189.469 27.5002 187.529C25.5202 185.569 24.5302 183.059 24.5302 179.999C24.5302 176.939 25.5202 174.429 27.5002 172.469ZM30.4102 184.979C31.6502 186.259 33.2502 186.899 35.2102 186.899C37.1702 186.899 38.7702 186.259 40.0102 184.979C41.2502 183.679 41.8702 182.019 41.8702 179.999C41.8702 177.979 41.2402 176.319 39.9802 175.019C38.7402 173.719 37.1502 173.069 35.2102 173.069C33.2702 173.069 31.6702 173.719 30.4102 175.019C29.1702 176.319 28.5502 177.979 28.5502 179.999C28.5502 182.019 29.1702 183.679 30.4102 184.979ZM49.7843 169.979H53.6843V186.629H59.8643V189.989H49.7843V169.979ZM62.8577 169.979H68.0777C69.6577 169.979 71.0377 170.119 72.2177 170.399C73.3977 170.659 74.4977 171.169 75.5177 171.929C76.7377 172.849 77.6777 174.009 78.3377 175.409C79.0177 176.809 79.3577 178.339 79.3577 179.999C79.3577 183.499 78.0177 186.189 75.3377 188.069C74.2577 188.829 73.1577 189.339 72.0377 189.599C70.9177 189.859 69.5777 189.989 68.0177 189.989H62.8577V169.979ZM66.7577 173.339V186.629H67.9577C69.9977 186.629 71.6277 186.189 72.8477 185.309C73.6277 184.749 74.2377 183.999 74.6777 183.059C75.1177 182.099 75.3377 181.079 75.3377 179.999C75.3377 178.939 75.1177 177.939 74.6777 176.999C74.2577 176.039 73.6577 175.259 72.8777 174.659C71.6977 173.779 70.0577 173.339 67.9577 173.339H66.7577ZM94.3554 169.979V173.339H87.1554V177.809H94.0554V181.169H87.1554V186.629H94.3554V189.989H83.2554V169.979H94.3554ZM102.338 189.989H98.4382V169.979H101.138L113.318 183.329V169.979H117.218V189.989H114.518L102.338 176.609V189.989ZM133.29 169.979V177.719H141.75V169.979H145.65V189.989H141.75V181.079H133.29V189.989H129.39V169.979H133.29ZM164.14 189.989L162.37 185.789H154.3L152.53 189.989H148.3L156.91 169.979H159.97L168.34 189.989H164.14ZM155.53 182.609H161.23L158.38 175.409L155.53 182.609ZM170.976 169.979H176.766C178.966 169.979 180.666 170.479 181.866 171.479C183.186 172.599 183.846 174.099 183.846 175.979C183.846 178.079 183.066 179.649 181.506 180.689C180.906 181.109 180.176 181.399 179.316 181.559L185.556 189.989H180.696L175.356 181.949H174.876V189.989H170.976V169.979ZM174.876 173.159V179.189H175.986C176.306 179.189 176.616 179.169 176.916 179.129C177.236 179.069 177.646 178.959 178.146 178.799C178.646 178.619 179.046 178.309 179.346 177.869C179.666 177.409 179.826 176.839 179.826 176.159C179.826 175.479 179.676 174.919 179.376 174.479C179.076 174.019 178.676 173.709 178.176 173.549C177.676 173.369 177.276 173.259 176.976 173.219C176.676 173.179 176.366 173.159 176.046 173.159H174.876ZM188.503 169.979H193.453C195.633 169.979 197.263 170.399 198.343 171.239C199.583 172.199 200.203 173.579 200.203 175.379C200.203 177.159 199.453 178.469 197.953 179.309C198.973 179.469 199.843 179.889 200.563 180.569C201.523 181.489 202.003 182.739 202.003 184.319C202.003 185.999 201.433 187.349 200.293 188.369C199.073 189.449 197.383 189.989 195.223 189.989H188.503V169.979ZM192.403 173.159V178.289H193.513C193.713 178.289 193.893 178.289 194.053 178.289C194.233 178.269 194.483 178.209 194.803 178.109C195.143 178.009 195.423 177.879 195.643 177.719C195.883 177.539 196.093 177.279 196.273 176.939C196.453 176.579 196.543 176.159 196.543 175.679C196.543 174.819 196.263 174.189 195.703 173.789C195.143 173.369 194.423 173.159 193.543 173.159H192.403ZM192.403 181.289V186.809H194.083C195.243 186.809 196.133 186.629 196.753 186.269C197.573 185.789 197.983 185.019 197.983 183.959C197.983 182.879 197.493 182.119 196.513 181.679C195.953 181.419 195.063 181.289 193.843 181.289H192.403ZM207.922 172.469C209.922 170.509 212.492 169.529 215.632 169.529C218.772 169.529 221.332 170.509 223.312 172.469C225.312 174.429 226.312 176.939 226.312 179.999C226.312 183.059 225.312 185.569 223.312 187.529C221.332 189.469 218.772 190.439 215.632 190.439C212.492 190.439 209.922 189.469 207.922 187.529C205.942 185.569 204.952 183.059 204.952 179.999C204.952 176.939 205.942 174.429 207.922 172.469ZM210.832 184.979C212.072 186.259 213.672 186.899 215.632 186.899C217.592 186.899 219.192 186.259 220.432 184.979C221.672 183.679 222.292 182.019 222.292 179.999C222.292 177.979 221.662 176.319 220.402 175.019C219.162 173.719 217.572 173.069 215.632 173.069C213.692 173.069 212.092 173.719 210.832 175.019C209.592 176.319 208.972 177.979 208.972 179.999C208.972 182.019 209.592 183.679 210.832 184.979ZM230.206 169.979H234.106V182.549C234.106 183.809 234.426 184.799 235.066 185.519C235.826 186.439 236.886 186.899 238.246 186.899C239.606 186.899 240.666 186.439 241.426 185.519C242.066 184.799 242.386 183.809 242.386 182.549V169.979H246.286V182.219C246.286 184.499 245.786 186.279 244.786 187.559C244.086 188.479 243.146 189.189 241.966 189.689C240.806 190.189 239.566 190.439 238.246 190.439C236.926 190.439 235.676 190.189 234.496 189.689C233.336 189.189 232.406 188.479 231.706 187.559C230.706 186.279 230.206 184.499 230.206 182.219V169.979ZM251.16 169.979H256.95C259.15 169.979 260.85 170.479 262.05 171.479C263.37 172.599 264.03 174.099 264.03 175.979C264.03 178.079 263.25 179.649 261.69 180.689C261.09 181.109 260.36 181.399 259.5 181.559L265.74 189.989H260.88L255.54 181.949H255.06V189.989H251.16V169.979ZM255.06 173.159V179.189H256.17C256.49 179.189 256.8 179.169 257.1 179.129C257.42 179.069 257.83 178.959 258.33 178.799C258.83 178.619 259.23 178.309 259.53 177.869C259.85 177.409 260.01 176.839 260.01 176.159C260.01 175.479 259.86 174.919 259.56 174.479C259.26 174.019 258.86 173.709 258.36 173.549C257.86 173.369 257.46 173.259 257.16 173.219C256.86 173.179 256.55 173.159 256.23 173.159H255.06Z" fill="#182A41"/>
<defs>
<clipPath id="clip0_1948_2140">
<rect width="258" height="142.963" fill="white" transform="translate(0 0.0268555)"/>
</clipPath>
</defs>
</svg>
