<svg width="137" height="96" viewBox="0 0 137 96" fill="none" xmlns="http://www.w3.org/2000/svg">
<g clip-path="url(#clip0_865_458)">
<path d="M8.57538 92.4281C8.57538 92.8517 8.533 93.12 8.34934 93.12H6.96485V93.1765C6.96485 94.857 5.56624 96.0009 3.56014 96.0009C1.55405 96.0009 0.0141602 94.7864 0.0141602 93.1059C0.0141602 92.4846 0.240199 90.9594 0.437983 89.7167L1.97787 89.9426C1.72358 91.5525 1.5823 92.6964 1.5823 93.12C1.5823 93.9956 2.34519 94.6169 3.57427 94.6169C4.80336 94.6169 5.42496 94.0662 5.42496 93.1906V85H6.97898V91.7502H8.36347C8.54713 91.7502 8.58951 92.0185 8.58951 92.4422L8.57538 92.4281Z" fill="#182A41"/>
<path d="M11.4856 92.4283C11.4856 92.8519 11.4432 93.1203 11.2596 93.1203H8.34933C8.16567 93.1203 8.12329 92.8519 8.12329 92.4283C8.12329 92.0046 8.16567 91.7363 8.34933 91.7363H11.2596C11.4432 91.7363 11.4856 92.0046 11.4856 92.4283Z" fill="#182A41"/>
<path d="M14.3817 92.4283C14.3817 92.8519 14.3394 93.1203 14.1557 93.1203H11.2454C11.0618 93.1203 11.0194 92.8519 11.0194 92.4283C11.0194 92.0046 11.0618 91.7363 11.2454 91.7363H14.1557C14.3394 91.7363 14.3817 92.0046 14.3817 92.4283Z" fill="#182A41"/>
<path d="M17.292 92.4283C17.292 92.8519 17.2496 93.1203 17.066 93.1203H14.1557C13.9721 93.1203 13.9297 92.8519 13.9297 92.4283C13.9297 92.0046 13.9721 91.7363 14.1557 91.7363H17.066C17.2496 91.7363 17.292 92.0046 17.292 92.4283Z" fill="#182A41"/>
<path d="M20.2023 92.4283C20.2023 92.8519 20.1599 93.1203 19.9763 93.1203H17.066C16.8823 93.1203 16.84 92.8519 16.84 92.4283C16.84 92.0046 16.8823 91.7363 17.066 91.7363H19.9763C20.1599 91.7363 20.2023 92.0046 20.2023 92.4283Z" fill="#182A41"/>
<path d="M23.1125 92.4283C23.1125 92.8519 23.0701 93.1203 22.8864 93.1203H19.9762C19.7925 93.1203 19.7501 92.8519 19.7501 92.4283C19.7501 92.0046 19.7925 91.7363 19.9762 91.7363H22.8864C23.0701 91.7363 23.1125 92.0046 23.1125 92.4283Z" fill="#182A41"/>
<path d="M33.5385 92.4278C33.5385 92.8514 33.4961 93.1197 33.3125 93.1197H22.8864C22.7028 93.1197 22.6604 92.8514 22.6604 92.4278C22.6604 92.0041 22.7028 91.7358 22.8864 91.7358H24.4263V87.3157H25.9803V89.0809C26.7715 88.1347 27.6756 87.3157 29.2155 87.3157C31.4194 87.3157 31.928 89.0244 31.928 90.3236V91.7358H33.3125C33.4961 91.7358 33.5385 92.0041 33.5385 92.4278ZM30.3598 91.7358V90.3236C30.3598 89.1515 29.9925 88.7137 29.2014 88.7137C27.7887 88.7137 26.5878 90.1541 25.9662 90.9732V91.7358H30.3457H30.3598ZM29.1449 86.4684H27.5909V84.8867H29.1449V86.4684Z" fill="#182A41"/>
<path d="M36.4347 92.4283C36.4347 92.8519 36.3923 93.1203 36.2087 93.1203H33.2984C33.1148 93.1203 33.0724 92.8519 33.0724 92.4283C33.0724 92.0046 33.1148 91.7363 33.2984 91.7363H36.2087C36.3923 91.7363 36.4347 92.0046 36.4347 92.4283Z" fill="#182A41"/>
<path d="M44.3036 92.4278C44.3036 92.8514 44.2612 93.1197 44.0776 93.1197H36.2086C36.0249 93.1197 35.9825 92.8514 35.9825 92.4278C35.9825 92.0041 36.0249 91.7358 36.2086 91.7358H37.4518C37.3247 91.3263 37.2823 90.832 37.2823 90.2248C37.2823 88.2195 37.8474 87.3157 39.8817 87.3157H42.6931V91.7358H44.0776C44.2612 91.7358 44.3036 92.0041 44.3036 92.4278ZM39.8676 91.7358H41.1249V88.7137H39.8676C38.9493 88.7137 38.8363 88.7702 38.8363 90.2248C38.8363 91.6793 38.9493 91.7358 39.8676 91.7358ZM41.0402 86.4684H39.4861V84.8867H41.0402V86.4684Z" fill="#182A41"/>
<path d="M52.7518 92.4275C52.7518 92.8512 52.7095 93.1195 52.5258 93.1195H44.0776C43.8939 93.1195 43.8516 92.8512 43.8516 92.4275C43.8516 92.0039 43.8939 91.7355 44.0776 91.7355H45.5045C45.4621 91.326 45.4197 90.86 45.4197 90.3657C45.4197 89.2501 45.6175 88.1627 45.7588 87.6261C46.1261 87.4849 46.9878 87.3154 47.9768 87.3154C50.0676 87.3154 51.1272 88.1062 51.1272 90.281V91.7355H52.5117C52.6953 91.7355 52.7377 92.0039 52.7377 92.4275H52.7518ZM49.5732 91.7355V90.281C49.5732 88.9818 49.2906 88.7135 47.9768 88.7135C47.6801 88.7135 47.3693 88.7417 47.1009 88.77C47.0161 89.2925 46.9737 89.8856 46.9737 90.3657C46.9737 90.8035 47.002 91.326 47.0726 91.7355H49.5732Z" fill="#182A41"/>
<path d="M55.8034 84.9863V93.1205H52.5117C52.328 93.1205 52.2856 92.8522 52.2856 92.4285C52.2856 92.0049 52.328 91.7365 52.5117 91.7365H54.2494V84.9863H55.8034Z" fill="#182A41"/>
<path d="M57.6681 84.9863H59.2221V93.1205H57.6681V84.9863Z" fill="#182A41"/>
<path d="M76.3446 92.4278C76.3446 92.8514 76.3022 93.1197 76.1186 93.1197H71.9368C69.9025 93.1197 69.3374 92.2159 69.3374 90.2106C69.3374 88.2053 69.8884 87.3015 71.9368 87.3015H74.7482V91.7217H76.1186C76.3022 91.7217 76.3446 91.99 76.3446 92.4136V92.4278ZM71.838 86.4684H70.2839V84.8867H71.838V86.4684ZM73.1942 91.7358V88.7137H71.9368C71.0186 88.7137 70.9055 88.7702 70.9055 90.2248C70.9055 91.6793 71.0186 91.7358 71.9368 91.7358H73.1942ZM74.1407 86.4684H72.5867V84.8867H74.1407V86.4684Z" fill="#182A41"/>
<path d="M79.2548 92.4283C79.2548 92.8519 79.2124 93.1203 79.0287 93.1203H76.1185C75.9348 93.1203 75.8925 92.8519 75.8925 92.4283C75.8925 92.0046 75.9348 91.7363 76.1185 91.7363H79.0287C79.2124 91.7363 79.2548 92.0046 79.2548 92.4283Z" fill="#182A41"/>
<path d="M82.1651 92.4283C82.1651 92.8519 82.1227 93.1203 81.939 93.1203H79.0288C78.8451 93.1203 78.8027 92.8519 78.8027 92.4283C78.8027 92.0046 78.8451 91.7363 79.0288 91.7363H81.939C82.1227 91.7363 82.1651 92.0046 82.1651 92.4283Z" fill="#182A41"/>
<path d="M87.816 91.7214V93.1195H81.9249C81.7412 93.1195 81.6989 92.8512 81.6989 92.4275C81.6989 92.0039 81.7412 91.7355 81.9249 91.7355H83.4224C83.2529 91.3119 83.154 90.86 83.154 90.394C83.154 88.6146 84.4678 87.3154 86.1914 87.3154C86.6434 87.3154 87.1944 87.4143 87.6748 87.5837L87.1379 88.8971C86.7847 88.77 86.5022 88.7135 86.2338 88.7135C85.3296 88.7135 84.7221 89.3913 84.7221 90.394C84.7221 90.9024 84.8917 91.3684 85.1742 91.7355H87.816V91.7214Z" fill="#182A41"/>
<path d="M96.236 92.4275C96.236 92.8512 96.1936 93.1195 96.01 93.1195H94.6255V93.1901C94.6255 94.8706 93.7355 95.9862 91.9695 95.9862C91.4186 95.9862 90.6839 95.8874 90.0623 95.7461L90.4014 94.3904C91.023 94.5317 91.5598 94.6023 91.9695 94.6023C92.7324 94.6023 93.0574 94.2492 93.0574 93.2042V93.1336H91.8C89.7657 93.1336 89.2006 92.2298 89.2006 90.2245C89.2006 88.2192 89.7515 87.3154 91.8 87.3154H94.6114V91.7355H95.9959C96.1795 91.7355 96.2219 92.0039 96.2219 92.4275H96.236ZM93.0574 91.7355V88.7135H91.8C90.8817 88.7135 90.7687 88.77 90.7687 90.2245C90.7687 91.6791 90.8817 91.7355 91.8 91.7355H93.0574Z" fill="#182A41"/>
<path d="M99.1463 92.4283C99.1463 92.8519 99.1039 93.1203 98.9202 93.1203H96.01C95.8263 93.1203 95.7839 92.8519 95.7839 92.4283C95.7839 92.0046 95.8263 91.7363 96.01 91.7363H98.9202C99.1039 91.7363 99.1463 92.0046 99.1463 92.4283Z" fill="#182A41"/>
<path d="M102.057 92.4283C102.057 92.8519 102.014 93.1203 101.831 93.1203H98.9202C98.7366 93.1203 98.6942 92.8519 98.6942 92.4283C98.6942 92.0046 98.7366 91.7363 98.9202 91.7363H101.831C102.014 91.7363 102.057 92.0046 102.057 92.4283Z" fill="#182A41"/>
<path d="M110.491 92.4275C110.491 92.8512 110.448 93.1195 110.265 93.1195H101.816C101.633 93.1195 101.59 92.8512 101.59 92.4275C101.59 92.0039 101.633 91.7355 101.816 91.7355H103.243C103.201 91.326 103.158 90.86 103.158 90.3657C103.158 89.2501 103.356 88.1627 103.498 87.6261C103.865 87.4849 104.727 87.3154 105.716 87.3154C107.806 87.3154 108.866 88.1062 108.866 90.281V91.7355H110.25C110.434 91.7355 110.476 92.0039 110.476 92.4275H110.491ZM107.312 91.7355V90.281C107.312 88.9818 107.029 88.7135 105.716 88.7135C105.419 88.7135 105.108 88.7417 104.84 88.77C104.755 89.2925 104.712 89.8856 104.712 90.3657C104.712 90.8035 104.741 91.326 104.811 91.7355H107.312Z" fill="#182A41"/>
<path d="M113.401 92.4283C113.401 92.8519 113.358 93.1203 113.175 93.1203H110.264C110.081 93.1203 110.038 92.8519 110.038 92.4283C110.038 92.0046 110.081 91.7363 110.264 91.7363H113.175C113.358 91.7363 113.401 92.0046 113.401 92.4283Z" fill="#182A41"/>
<path d="M116.311 92.4283C116.311 92.8519 116.269 93.1203 116.085 93.1203H113.175C112.991 93.1203 112.949 92.8519 112.949 92.4283C112.949 92.0046 112.991 91.7363 113.175 91.7363H116.085C116.269 91.7363 116.311 92.0046 116.311 92.4283Z" fill="#182A41"/>
<path d="M123.643 92.4275C123.643 92.8512 123.601 93.1195 123.417 93.1195H116.085C115.901 93.1195 115.859 92.8512 115.859 92.4275C115.859 92.0039 115.901 91.7355 116.085 91.7355H120.465V89.9562C120.465 89.1371 119.97 88.7135 118.939 88.7135C118.515 88.7135 118.006 88.7841 117.074 88.8829L116.904 87.612C117.597 87.4425 118.275 87.3154 118.925 87.3154C120.733 87.3154 122.004 88.304 122.004 89.9562V91.7355H123.389C123.573 91.7355 123.615 92.0039 123.615 92.4275H123.643ZM118.162 93.8397H119.716V95.4213H118.162V93.8397Z" fill="#182A41"/>
<path d="M126.539 92.4283C126.539 92.8519 126.497 93.1203 126.313 93.1203H123.403C123.219 93.1203 123.177 92.8519 123.177 92.4283C123.177 92.0046 123.219 91.7363 123.403 91.7363H126.313C126.497 91.7363 126.539 92.0046 126.539 92.4283Z" fill="#182A41"/>
<path d="M129.45 92.4283C129.45 92.8519 129.407 93.1203 129.224 93.1203H126.313C126.13 93.1203 126.087 92.8519 126.087 92.4283C126.087 92.0046 126.13 91.7363 126.313 91.7363H129.224C129.407 91.7363 129.45 92.0046 129.45 92.4283Z" fill="#182A41"/>
<path d="M136.273 90.2669V93.1195H129.209C129.026 93.1195 128.983 92.8512 128.983 92.4275C128.983 92.0039 129.026 91.7355 129.209 91.7355H130.636C130.594 91.326 130.552 90.86 130.552 90.3657C130.552 89.2501 130.749 88.1627 130.891 87.6261C131.258 87.4849 132.12 87.3154 133.109 87.3154C135.199 87.3154 136.259 88.1062 136.259 90.281L136.273 90.2669ZM134.719 91.7214V90.2669C134.719 88.9677 134.437 88.6994 133.123 88.6994C132.826 88.6994 132.515 88.7276 132.247 88.7558C132.162 89.2784 132.12 89.8715 132.12 90.3516C132.12 90.7894 132.148 91.3119 132.219 91.7214H134.719Z" fill="#182A41"/>
<path d="M6.71053 77.501L5.94765 75.0721H2.57119L1.82244 77.501H0L3.1928 67.9971H5.42493L8.58948 77.501H6.72466H6.71053ZM4.28061 69.6352H4.20997L2.99501 73.5469H5.49557L4.26648 69.6352H4.28061Z" fill="#182A41"/>
<path d="M9.98804 77.501V67.9971H11.7822V75.9053H15.526V77.501H9.98804Z" fill="#182A41"/>
<path d="M17.0941 67.9971H19.1285L21.5725 72.6431H21.629L24.0448 67.9971H25.9944V77.501H24.2991V70.6802H24.2426L23.508 72.1912L21.5584 75.7782L19.6088 72.1912L18.8742 70.6802H18.8177V77.501H17.1224V67.9971H17.0941Z" fill="#182A41"/>
<path d="M29.9077 67.9971V73.8435C29.9077 75.3263 30.4304 76.0747 31.7866 76.0747C33.1428 76.0747 33.6655 75.3263 33.6655 73.8435V67.9971H35.4315V73.6034C35.4315 76.3995 34.4426 77.6564 31.7725 77.6564C29.1024 77.6564 28.1417 76.3854 28.1417 73.6034V67.9971H29.9077Z" fill="#182A41"/>
<path d="M37.6072 77.501V67.9971H43.7244V69.5928H39.4014V71.8947H43.1593V73.4904H39.4014V77.501H37.6072Z" fill="#182A41"/>
<path d="M50.3502 77.501L49.5873 75.0721H46.2108L45.4621 77.501H43.6396L46.8325 67.9971H49.0646L52.2291 77.501H50.3643H50.3502ZM47.9203 69.6352H47.8496L46.6347 73.5469H49.1352L47.9061 69.6352H47.9203Z" fill="#182A41"/>
<path d="M53.6277 67.9965H57.0889C59.5612 67.9965 61.1859 69.5923 61.1859 72.7415C61.1859 75.8906 59.5612 77.4864 57.0889 77.4864H53.6277V67.9824V67.9965ZM57.0889 75.9048C58.4169 75.9048 59.2787 75.1139 59.2787 73.4899V71.993C59.2787 70.369 58.4169 69.5782 57.0889 69.5782H55.4219V75.8906H57.0889V75.9048Z" fill="#182A41"/>
<path d="M63.0083 67.9965H66.4695C68.9418 67.9965 70.5665 69.5923 70.5665 72.7415C70.5665 75.8906 68.9418 77.4864 66.4695 77.4864H63.0083V67.9824V67.9965ZM66.4695 75.9048C67.7975 75.9048 68.6593 75.1139 68.6593 73.4899V71.993C68.6593 70.369 67.7975 69.5782 66.4695 69.5782H64.8025V75.8906H66.4695V75.9048Z" fill="#182A41"/>
<path d="M77.8703 77.501L77.1074 75.0721H73.731L72.9822 77.501H71.1598L74.3526 67.9971H76.5847L79.7493 77.501H77.8844H77.8703ZM75.4404 69.6352H75.3698L74.1548 73.5469H76.6554L75.4263 69.6352H75.4404Z" fill="#182A41"/>
<path d="M81.1479 77.501V67.9971H82.9421V75.9053H86.6859V77.501H81.1479Z" fill="#182A41"/>
<path d="M97.5216 76.0324H97.4651C97.2956 76.9645 96.4056 77.6706 94.9787 77.6706C92.7466 77.6706 91.0513 75.9618 91.0513 72.7844C91.0513 69.607 92.7466 67.8418 95.2895 67.8418C96.9848 67.8418 98.1997 68.6185 98.8779 70.0024L97.4227 70.8639C97.0837 70.0448 96.4197 69.4376 95.2895 69.4376C93.8909 69.4376 92.9585 70.3272 92.9585 71.9936V73.5188C92.9585 75.1851 93.8909 76.0748 95.3178 76.0748C96.4338 76.0748 97.3521 75.5241 97.3521 74.4508V73.8436H95.4873V72.3325H99.0756V77.5011H97.5216V76.0324Z" fill="#182A41"/>
<path d="M102.961 77.501H101.167V67.9971H105.461C107.185 67.9971 108.273 69.1409 108.273 70.9344C108.273 72.2477 107.679 73.2363 106.507 73.6317L108.456 77.501H106.45L104.684 73.8435H102.989V77.501H102.961ZM105.278 72.3325C105.97 72.3325 106.394 71.9512 106.394 71.2592V70.6378C106.394 69.9459 105.97 69.5787 105.278 69.5787H102.961V72.3466H105.278V72.3325Z" fill="#182A41"/>
<path d="M109.671 72.7562C109.671 69.5364 111.324 67.8418 113.81 67.8418C116.297 67.8418 117.95 69.5364 117.95 72.7562C117.95 75.976 116.311 77.6706 113.81 77.6706C111.31 77.6706 109.671 75.9618 109.671 72.7562ZM116.043 73.4905V72.0218C116.043 70.3978 115.167 69.4376 113.81 69.4376C112.454 69.4376 111.578 70.3978 111.578 72.0218V73.4905C111.578 75.1145 112.454 76.0748 113.81 76.0748C115.167 76.0748 116.043 75.1145 116.043 73.4905Z" fill="#182A41"/>
<path d="M121.482 67.9971V73.8435C121.482 75.3263 122.004 76.0747 123.361 76.0747C124.717 76.0747 125.24 75.3263 125.24 73.8435V67.9971H127.006V73.6034C127.006 76.3995 126.017 77.6564 123.347 77.6564C120.676 77.6564 119.716 76.3854 119.716 73.6034V67.9971H121.482Z" fill="#182A41"/>
<path d="M129.181 77.501V67.9971H133.462C135.214 67.9971 136.287 69.1833 136.287 70.9344C136.287 72.6855 135.228 73.8717 133.462 73.8717H130.99V77.4869H129.195L129.181 77.501ZM130.975 72.3325H133.292C133.985 72.3325 134.408 71.9512 134.408 71.2592V70.6378C134.408 69.9459 133.985 69.5787 133.292 69.5787H130.975V72.3466V72.3325Z" fill="#182A41"/>
<path d="M0 27.1845H13.633C13.633 19.6999 19.7219 13.6134 27.2094 13.6134V0C12.2061 0 0 12.2012 0 27.1845Z" fill="#C88D54"/>
<path d="M68.1648 0V13.6275C75.6523 13.6275 81.7413 19.714 81.7413 27.1986V54.4395H95.3742V27.1845C95.3742 22.2277 94.0321 17.5675 91.7011 13.5569C86.9684 5.46514 78.1811 0 68.1648 0Z" fill="#182A41"/>
<path d="M40.9413 0V13.6275C48.4288 13.6275 54.5177 19.714 54.5177 27.1986V54.4395H68.1507V27.1845C68.1507 22.2277 66.8086 17.5675 64.4776 13.5569C59.7449 5.46514 50.9576 0 40.9413 0Z" fill="#182A41"/>
<path d="M40.8706 13.5566V54.4251H27.2518V40.7976H13.6188V54.4251H0V27.1842H27.2518V13.5566H40.8706Z" fill="#182A41"/>
<path d="M122.654 13.6837H136.259V0.0703125H122.654H122.64C107.665 0.0844343 95.4873 12.2715 95.4873 27.2548C95.4873 42.238 107.665 54.411 122.64 54.4251H122.654H136.259V27.2407H122.626V40.7976C115.167 40.7835 109.092 34.7111 109.092 27.2407C109.092 19.7702 115.181 13.6837 122.64 13.6696L122.654 13.6837Z" fill="#182A41"/>
</g>
<defs>
<clipPath id="clip0_865_458">
<rect width="136.273" height="96" fill="white"/>
</clipPath>
</defs>
</svg>
