<svg width="297" height="80" viewBox="0 0 297 80" fill="none" xmlns="http://www.w3.org/2000/svg">
<g clip-path="url(#clip0_76_1455)">
<mask id="mask0_76_1455" style="mask-type:luminance" maskUnits="userSpaceOnUse" x="0" y="0" width="297" height="80">
<path d="M297 0H0V80H297V0Z" fill="white"/>
</mask>
<g mask="url(#mask0_76_1455)">
<path d="M144.146 54.6058H137.804L135.133 49.9719H128.343L125.672 54.6058H46.9814C41.2922 54.6058 36.3575 51.5029 33.6862 46.9099C33.4211 46.4812 33.2172 46.0117 32.9929 45.6035L30.2401 39.6019L25.285 28.8849C24.8975 28.1092 25.5908 27.2314 26.4473 27.3743L49.775 31.702V4.40929C49.775 4.02143 50.1216 3.67441 50.5091 3.67441H52.018C52.4055 3.67441 52.7113 4.02143 52.7113 4.40929V20.74L57.381 20.8216V9.45139C57.381 9.06354 57.6868 8.75734 58.0743 8.75734H59.5832C59.9707 8.75734 60.2765 9.06354 60.2765 9.45139V20.8625H62.7031V0.734881C62.7031 0.306201 63.009 0 63.4372 0H64.9054C65.3336 0 65.6395 0.306201 65.6395 0.734881V18.9844L66.8018 20.148V21.8423H70.7781V24.5573L68.2292 26.9865H82.0953V17.0043H89.7828V34.6007C89.7828 34.7844 89.9052 35.0293 90.0479 35.1722L91.9035 37.0299C92.0666 37.1932 92.2094 37.2544 92.4133 37.2544L99.2444 38.1526C99.5503 38.1934 99.8154 38.3363 100.019 38.6221L104.648 45.0727C104.77 45.2564 104.995 45.3789 105.219 45.3789L134.501 45.4198C139.415 45.9709 143.31 49.7474 144.085 54.5854L144.146 54.6058Z" fill="#182A41"/>
<path d="M97.5118 1.89809V9.32856C93.2908 9.32856 89.9058 12.7376 89.865 16.9836H89.8243V17.0244H82.1367V16.9019C82.1367 16.2487 82.1775 15.5955 82.2999 14.9627C82.2999 14.881 82.2999 14.7993 82.3406 14.7381C82.3814 14.3094 82.463 13.8807 82.5649 13.4929C82.6465 13.1459 82.7281 12.7988 82.83 12.4518C83.1359 11.4107 83.5641 10.4309 84.1147 9.51229C84.2778 9.24692 84.4206 8.96113 84.6245 8.69576C84.7468 8.47121 84.8488 8.30789 84.9711 8.14458C85.1954 7.83838 85.4401 7.53218 85.6236 7.2464C85.9703 6.85854 86.3169 6.47069 86.6636 6.12366C86.8879 5.89911 87.1326 5.65415 87.3977 5.47043C87.9686 4.91927 88.56 4.47018 89.2125 4.0415C89.5184 3.85778 89.865 3.65364 90.2117 3.46992C91.2924 2.89835 92.4955 2.38801 93.719 2.12264C94.0657 2.00016 94.4531 1.93892 94.7998 1.89809C95.0648 1.81644 95.3707 1.77561 95.697 1.73478C96.0436 1.69396 96.3903 1.65313 96.7369 1.65313C96.9001 1.6123 97.0836 1.6123 97.2875 1.6123C97.4506 1.65313 97.5118 1.73478 97.5118 1.87768V1.89809Z" fill="#C4A458"/>
<path d="M137.764 57.1986L135.154 61.7304H128.364L125.753 57.1986H46.0641V57.1374C36.1539 56.5046 32.9116 51.4625 31.158 47.7676C31.158 47.7676 31.158 47.7676 31.158 47.7472L26.6515 37.9692C24.4492 37.2139 22.1042 36.8057 19.6369 36.8057C10.9094 36.8057 3.40535 41.9702 0.0203913 49.4211H10.8074C15.7829 49.4211 20.0243 53.3609 20.0447 58.3622C20.0447 60.8526 19.0455 63.1185 17.4142 64.7516C15.8033 66.3846 13.5399 67.3849 11.0725 67.3849H0C3.40535 74.8358 10.9094 80.0004 19.6165 80.0004C28.3236 80.0004 35.9092 74.7745 39.2941 67.2828L134.562 67.2216C139.762 66.6704 143.861 62.4244 144.228 57.1782H137.744L137.764 57.1986Z" fill="#182A41"/>
<path d="M176.324 28.5783H176.201C175.855 30.538 173.958 32.0282 170.961 32.0282C166.25 32.0282 162.702 28.4354 162.702 21.7194C162.702 15.0034 166.291 11.3086 171.613 11.3086C175.161 11.3086 177.751 12.9417 179.178 15.8608L176.12 17.6776C175.406 15.9628 173.999 14.6564 171.613 14.6564C168.656 14.6564 166.719 16.514 166.719 20.0455V23.2504C166.719 26.7411 168.677 28.6395 171.674 28.6395C174.019 28.6395 175.936 27.4964 175.936 25.2305V23.9445H172.001V20.76H179.566V31.6607H176.303V28.5579L176.324 28.5783Z" fill="#182A41"/>
<path d="M183.114 21.6582C183.114 14.8809 186.581 11.3086 191.821 11.3086C197.062 11.3086 200.528 14.9013 200.528 21.6582C200.528 28.415 197.082 32.0078 191.821 32.0078C186.56 32.0078 183.114 28.415 183.114 21.6582ZM196.532 23.2096V20.1068C196.532 16.6977 194.697 14.6564 191.842 14.6564C188.987 14.6564 187.152 16.6977 187.152 20.1068V23.2096C187.152 26.6186 188.987 28.66 191.842 28.66C194.697 28.66 196.532 26.6186 196.532 23.2096Z" fill="#182A41"/>
<path d="M204.402 31.6808V11.6553H208.175V28.333H216.066V31.6808H204.402Z" fill="#182A41"/>
<path d="M219.329 11.6553H226.609C231.829 11.6553 235.234 15.0031 235.234 21.6782C235.234 28.3534 231.829 31.6808 226.609 31.6808H219.329V11.6553ZM226.609 28.3126C229.423 28.3126 231.217 26.6591 231.217 23.2297V20.0656C231.217 16.6565 229.402 14.9827 226.609 14.9827H223.102V28.2922H226.609V28.3126Z" fill="#182A41"/>
<path d="M239.088 31.6808V11.6553H252.261V15.0031H242.86V19.8614H251.18V23.2092H242.86V28.3126H252.261V31.6604H239.088V31.6808Z" fill="#182A41"/>
<path d="M262.029 21.4129L259.969 17.2485H259.888V31.6808H256.299V11.6553H260.459L266.474 21.9232L268.534 26.0875H268.615V11.6553H272.204V31.6808H268.044L262.029 21.4129Z" fill="#182A41"/>
<path d="M175.692 56.7083H167.351V65.1798H163.579V45.1543H167.351V53.3605H175.692V45.1543H179.464V65.1798H175.692V56.7083Z" fill="#182A41"/>
<path d="M196.573 65.1593L194.962 60.056H187.845L186.275 65.1593H182.441L189.15 45.1338H193.84L200.488 65.1593H196.573ZM191.454 48.5836H191.312L188.763 56.8102H194.044L191.454 48.5836Z" fill="#182A41"/>
<path d="M207.237 65.1593H203.465V45.1338H212.498C216.128 45.1338 218.412 47.5426 218.412 51.3395C218.412 54.0953 217.147 56.1978 214.68 57.0144L218.779 65.1593H214.558L210.826 57.4431H207.237V65.1593ZM212.111 54.2586C213.579 54.2586 214.456 53.4624 214.456 51.9927V50.6658C214.456 49.196 213.559 48.4203 212.111 48.4203H207.237V54.2382H212.111V54.2586Z" fill="#182A41"/>
<path d="M222.489 45.1338H231.747C235.05 45.1338 237.049 47.1751 237.049 50.278C237.049 53.3808 235.295 54.4627 233.46 54.5852V54.7485C235.213 54.7689 237.783 56.0141 237.783 59.4232C237.783 62.628 235.58 65.1593 232.624 65.1593H222.469V45.1338H222.489ZM226.282 53.4829H230.952C232.338 53.4829 233.133 52.6867 233.133 51.3599V50.4617C233.133 49.1144 232.338 48.3387 230.952 48.3387H226.282V53.4829ZM226.282 61.9544H231.563C232.991 61.9544 233.847 61.1787 233.847 59.7702V58.7903C233.847 57.3818 232.991 56.5857 231.563 56.5857H226.282V61.9544Z" fill="#182A41"/>
<path d="M240.638 55.1562C240.638 48.379 244.104 44.8066 249.345 44.8066C254.585 44.8066 258.052 48.3994 258.052 55.1562C258.052 61.913 254.606 65.5058 249.345 65.5058C244.084 65.5058 240.638 61.913 240.638 55.1562ZM254.055 56.7076V53.6048C254.055 50.1958 252.22 48.1544 249.365 48.1544C246.51 48.1544 244.675 50.1958 244.675 53.6048V56.7076C244.675 60.1167 246.51 62.158 249.365 62.158C252.22 62.158 254.055 60.1167 254.055 56.7076Z" fill="#182A41"/>
<path d="M265.495 45.1338V57.443C265.495 60.5663 266.576 62.1381 269.451 62.1381C272.326 62.1381 273.407 60.5663 273.407 57.443V45.1338H277.139V56.9531C277.139 62.8322 275.039 65.5063 269.431 65.5063C263.823 65.5063 261.784 62.8322 261.784 56.9531V45.1338H265.516H265.495Z" fill="#182A41"/>
<path d="M285.478 65.1593H281.706V45.1338H290.739C294.369 45.1338 296.653 47.5426 296.653 51.3395C296.653 54.0953 295.389 56.1978 292.921 57.0144L297.02 65.1593H292.799L289.067 57.4431H285.478V65.1593ZM290.352 54.2586C291.82 54.2586 292.697 53.4624 292.697 51.9927V50.6658C292.697 49.196 291.8 48.4203 290.352 48.4203H285.478V54.2382H290.352V54.2586Z" fill="#182A41"/>
</g>
</g>
<defs>
<clipPath id="clip0_76_1455">
<rect width="297" height="80" fill="white"/>
</clipPath>
</defs>
</svg>
