<svg width="1259" height="311" viewBox="0 0 1259 311" fill="none" xmlns="http://www.w3.org/2000/svg">
<path d="M0.666667 304.5C0.666667 307.446 3.05448 309.833 6 309.833C8.94552 309.833 11.3333 307.446 11.3333 304.5C11.3333 301.554 8.94552 299.167 6 299.167C3.05448 299.167 0.666667 301.554 0.666667 304.5ZM6 1V0H5V1H6ZM1258.5 304.5L1248.5 298.727V310.273L1258.5 304.5ZM7 304.5V1H5V304.5H7ZM6 2H681V0H6V2ZM760 81V224.5H762V81H760ZM841 305.5H1249.5V303.5H841V305.5ZM760 224.5C760 269.235 796.265 305.5 841 305.5V303.5C797.37 303.5 762 268.13 762 224.5H760ZM681 2C724.63 2 760 37.3695 760 81H762C762 36.2649 725.735 0 681 0V2Z" fill="#5D44C4"/>
</svg>
