<svg width="24" height="24" viewBox="0 0 24 24" fill="none" xmlns="http://www.w3.org/2000/svg">
<path d="M20.2173 22.4063H4.02576C3.70124 22.4059 3.39011 22.2768 3.16064 22.0474C2.93117 21.8179 2.8021 21.5068 2.80176 21.1823V19.0378C2.80176 18.9518 2.83593 18.8693 2.89675 18.8085C2.95757 18.7477 3.04007 18.7135 3.12608 18.7135H21.117C21.203 18.7135 21.2855 18.7477 21.3463 18.8085C21.4072 18.8693 21.4413 18.9518 21.4413 19.0378V21.1819C21.4411 21.5065 21.312 21.8177 21.0826 22.0473C20.8531 22.2768 20.5419 22.4059 20.2173 22.4063ZM3.45041 19.3621V21.1819C3.45058 21.3345 3.51125 21.4807 3.61911 21.5886C3.72697 21.6964 3.87322 21.7571 4.02576 21.7573H20.2173C20.3699 21.7571 20.5161 21.6964 20.624 21.5886C20.7318 21.4807 20.7925 21.3345 20.7927 21.1819V19.3621H3.45041Z" fill="#565656" stroke="#565656" stroke-width="0.3"/>
<mask id="path-2-inside-1_318_386" fill="white">
<path d="M10.1897 9.08304H8.63292C8.5469 9.08304 8.46441 9.04887 8.40359 8.98805C8.34276 8.92723 8.30859 8.84474 8.30859 8.75872V7.83666C8.30868 7.6199 8.3948 7.41203 8.54805 7.25873C8.70129 7.10542 8.90913 7.01921 9.12589 7.01904H9.69767C9.91447 7.01921 10.1223 7.10541 10.2756 7.25871C10.4289 7.412 10.5151 7.61987 10.5153 7.83666V8.75872C10.5153 8.80142 10.5069 8.8437 10.4905 8.88313C10.4741 8.92257 10.4501 8.95838 10.4198 8.98851C10.3896 9.01864 10.3537 9.04251 10.3142 9.05873C10.2747 9.07495 10.2324 9.08321 10.1897 9.08304ZM8.95724 8.43439H9.86535V7.83666C9.86535 7.79185 9.84755 7.74887 9.81586 7.71718C9.78417 7.68549 9.74119 7.66769 9.69638 7.66769H9.12751C9.10534 7.66769 9.08338 7.67206 9.0629 7.68056C9.04242 7.68906 9.02381 7.70151 9.00815 7.7172C8.99248 7.7329 8.98006 7.75153 8.97161 7.77203C8.96315 7.79252 8.95882 7.81449 8.95886 7.83666L8.95724 8.43439Z"/>
</mask>
<path d="M10.1897 9.08304H8.63292C8.5469 9.08304 8.46441 9.04887 8.40359 8.98805C8.34276 8.92723 8.30859 8.84474 8.30859 8.75872V7.83666C8.30868 7.6199 8.3948 7.41203 8.54805 7.25873C8.70129 7.10542 8.90913 7.01921 9.12589 7.01904H9.69767C9.91447 7.01921 10.1223 7.10541 10.2756 7.25871C10.4289 7.412 10.5151 7.61987 10.5153 7.83666V8.75872C10.5153 8.80142 10.5069 8.8437 10.4905 8.88313C10.4741 8.92257 10.4501 8.95838 10.4198 8.98851C10.3896 9.01864 10.3537 9.04251 10.3142 9.05873C10.2747 9.07495 10.2324 9.08321 10.1897 9.08304ZM8.95724 8.43439H9.86535V7.83666C9.86535 7.79185 9.84755 7.74887 9.81586 7.71718C9.78417 7.68549 9.74119 7.66769 9.69638 7.66769H9.12751C9.10534 7.66769 9.08338 7.67206 9.0629 7.68056C9.04242 7.68906 9.02381 7.70151 9.00815 7.7172C8.99248 7.7329 8.98006 7.75153 8.97161 7.77203C8.96315 7.79252 8.95882 7.81449 8.95886 7.83666L8.95724 8.43439Z" fill="#565656"/>
<path d="M10.1897 9.08304L10.2174 2.16418L10.2035 2.16412H10.1897V9.08304ZM8.30859 7.83666L1.38967 7.83392V7.83666H8.30859ZM9.12589 7.01904V0.100121L9.1204 0.100126L9.12589 7.01904ZM9.69767 7.01904L9.70316 0.100124H9.69767V7.01904ZM10.5153 7.83666H17.4342L17.4342 7.83118L10.5153 7.83666ZM10.5153 8.75872H3.59638V8.75877L10.5153 8.75872ZM8.95724 8.43439L2.03835 8.41563L2.01953 15.3533H8.95724V8.43439ZM9.86535 8.43439V15.3533H16.7843V8.43439H9.86535ZM9.12751 7.66769L9.1275 14.5866H9.12751V7.66769ZM8.95886 7.83666L15.8778 7.85543L15.8778 7.8394L15.8778 7.82336L8.95886 7.83666ZM10.1897 2.16412H8.63292V16.002H10.1897V2.16412ZM8.63292 2.16412C10.3819 2.16412 12.0593 2.85892 13.296 4.09564L3.51117 13.8805C4.86953 15.2388 6.71188 16.002 8.63292 16.002V2.16412ZM13.296 4.09564C14.5327 5.33237 15.2275 7.00973 15.2275 8.75872H1.38967C1.38967 10.6797 2.1528 12.5221 3.51117 13.8805L13.296 4.09564ZM15.2275 8.75872V7.83666H1.38967V8.75872H15.2275ZM15.2275 7.83941C15.2269 9.45622 14.5845 11.0067 13.4414 12.1502L3.65466 2.36728C2.20513 3.8174 1.39049 5.78359 1.38968 7.83392L15.2275 7.83941ZM13.4414 12.1502C12.2984 13.2937 10.7482 13.9367 9.13138 13.938L9.1204 0.100126C7.07006 0.101752 5.1042 0.917176 3.65466 2.36728L13.4414 12.1502ZM9.12589 13.938H9.69767V0.100124H9.12589V13.938ZM9.69219 13.938C8.07588 13.9367 6.52613 13.294 5.38322 12.1511L15.168 2.36629C13.7185 0.916785 11.7531 0.10175 9.70316 0.100126L9.69219 13.938ZM5.38322 12.1511C4.24031 11.0082 3.59766 9.45847 3.59638 7.84215L17.4342 7.83118C17.4326 5.78127 16.6175 3.81579 15.168 2.36629L5.38322 12.1511ZM3.59638 7.83666V8.75872H17.4342V7.83666H3.59638ZM3.59638 8.75877C3.59637 7.89045 3.76785 7.03076 4.10087 6.22902L16.8801 11.5372C17.2459 10.6566 17.4342 9.71239 17.4342 8.75866L3.59638 8.75877ZM4.10087 6.22902C4.43392 5.42722 4.92203 4.69906 5.53721 4.08634L15.3025 13.8907C15.9782 13.2177 16.5143 12.4179 16.8801 11.5372L4.10087 6.22902ZM5.53721 4.08634C6.15237 3.47363 6.88247 2.98842 7.68561 2.65857L12.9428 15.4589C13.8249 15.0966 14.6268 14.5637 15.3025 13.8907L5.53721 4.08634ZM7.68561 2.65857C8.48873 2.32873 9.34909 2.16071 10.2174 2.16418L10.162 16.0019C11.1157 16.0057 12.0607 15.8212 12.9428 15.4589L7.68561 2.65857ZM8.95724 15.3533H9.86535V1.51548H8.95724V15.3533ZM16.7843 8.43439V7.83666H2.94643V8.43439H16.7843ZM16.7843 7.83666C16.7843 5.95683 16.0375 4.154 14.7083 2.82477L4.92344 12.6096C3.65759 11.3437 2.94643 9.62687 2.94643 7.83666H16.7843ZM14.7083 2.82477C13.379 1.49553 11.5762 0.748773 9.69638 0.748773V14.5866C7.90618 14.5866 6.1893 13.8755 4.92344 12.6096L14.7083 2.82477ZM9.69638 0.748773H9.12751V14.5866H9.69638V0.748773ZM9.12753 0.748773C8.19559 0.748771 7.27284 0.932561 6.41208 1.28958L11.7137 14.0715C10.8939 14.4116 10.0151 14.5866 9.1275 14.5866L9.12753 0.748773ZM6.41208 1.28958C5.55129 1.64662 4.76936 2.1699 4.11103 2.82949L13.9053 12.6049C13.2783 13.2331 12.5335 13.7315 11.7137 14.0715L6.41208 1.28958ZM4.11103 2.82949C3.45275 3.48903 2.93095 4.27196 2.57555 5.13349L15.3677 10.4106C15.0292 11.2311 14.5322 11.9768 13.9053 12.6049L4.11103 2.82949ZM2.57555 5.13349C2.22017 5.99497 2.03817 6.91808 2.03996 7.84997L15.8778 7.82336C15.8795 8.7109 15.7061 9.59008 15.3677 10.4106L2.57555 5.13349ZM2.03997 7.8179L2.03835 8.41563L15.8761 8.45316L15.8778 7.85543L2.03997 7.8179Z" fill="#565656" mask="url(#path-2-inside-1_318_386)"/>
<path d="M10.1897 9.08304L10.2174 2.16418L10.2035 2.16412H10.1897V9.08304ZM8.30859 7.83666L1.38967 7.83392V7.83666H8.30859ZM9.12589 7.01904V0.100121L9.1204 0.100126L9.12589 7.01904ZM9.69767 7.01904L9.70316 0.100124H9.69767V7.01904ZM10.5153 7.83666H17.4342L17.4342 7.83118L10.5153 7.83666ZM10.5153 8.75872H3.59638V8.75877L10.5153 8.75872ZM8.95724 8.43439L2.03835 8.41563L2.01953 15.3533H8.95724V8.43439ZM9.86535 8.43439V15.3533H16.7843V8.43439H9.86535ZM9.12751 7.66769L9.1275 14.5866H9.12751V7.66769ZM8.95886 7.83666L15.8778 7.85543L15.8778 7.8394L15.8778 7.82336L8.95886 7.83666ZM10.1897 2.16412H8.63292V16.002H10.1897V2.16412ZM8.63292 2.16412C10.3819 2.16412 12.0593 2.85892 13.296 4.09564L3.51117 13.8805C4.86953 15.2388 6.71188 16.002 8.63292 16.002V2.16412ZM13.296 4.09564C14.5327 5.33237 15.2275 7.00973 15.2275 8.75872H1.38967C1.38967 10.6797 2.1528 12.5221 3.51117 13.8805L13.296 4.09564ZM15.2275 8.75872V7.83666H1.38967V8.75872H15.2275ZM15.2275 7.83941C15.2269 9.45622 14.5845 11.0067 13.4414 12.1502L3.65466 2.36728C2.20513 3.8174 1.39049 5.78359 1.38968 7.83392L15.2275 7.83941ZM13.4414 12.1502C12.2984 13.2937 10.7482 13.9367 9.13138 13.938L9.1204 0.100126C7.07006 0.101752 5.1042 0.917176 3.65466 2.36728L13.4414 12.1502ZM9.12589 13.938H9.69767V0.100124H9.12589V13.938ZM9.69219 13.938C8.07588 13.9367 6.52613 13.294 5.38322 12.1511L15.168 2.36629C13.7185 0.916785 11.7531 0.10175 9.70316 0.100126L9.69219 13.938ZM5.38322 12.1511C4.24031 11.0082 3.59766 9.45847 3.59638 7.84215L17.4342 7.83118C17.4326 5.78127 16.6175 3.81579 15.168 2.36629L5.38322 12.1511ZM3.59638 7.83666V8.75872H17.4342V7.83666H3.59638ZM3.59638 8.75877C3.59637 7.89045 3.76785 7.03076 4.10087 6.22902L16.8801 11.5372C17.2459 10.6566 17.4342 9.71239 17.4342 8.75866L3.59638 8.75877ZM4.10087 6.22902C4.43392 5.42722 4.92203 4.69906 5.53721 4.08634L15.3025 13.8907C15.9782 13.2177 16.5143 12.4179 16.8801 11.5372L4.10087 6.22902ZM5.53721 4.08634C6.15237 3.47363 6.88247 2.98842 7.68561 2.65857L12.9428 15.4589C13.8249 15.0966 14.6268 14.5637 15.3025 13.8907L5.53721 4.08634ZM7.68561 2.65857C8.48873 2.32873 9.34909 2.16071 10.2174 2.16418L10.162 16.0019C11.1157 16.0057 12.0607 15.8212 12.9428 15.4589L7.68561 2.65857ZM8.95724 15.3533H9.86535V1.51548H8.95724V15.3533ZM16.7843 8.43439V7.83666H2.94643V8.43439H16.7843ZM16.7843 7.83666C16.7843 5.95683 16.0375 4.154 14.7083 2.82477L4.92344 12.6096C3.65759 11.3437 2.94643 9.62687 2.94643 7.83666H16.7843ZM14.7083 2.82477C13.379 1.49553 11.5762 0.748773 9.69638 0.748773V14.5866C7.90618 14.5866 6.1893 13.8755 4.92344 12.6096L14.7083 2.82477ZM9.69638 0.748773H9.12751V14.5866H9.69638V0.748773ZM9.12753 0.748773C8.19559 0.748771 7.27284 0.932561 6.41208 1.28958L11.7137 14.0715C10.8939 14.4116 10.0151 14.5866 9.1275 14.5866L9.12753 0.748773ZM6.41208 1.28958C5.55129 1.64662 4.76936 2.1699 4.11103 2.82949L13.9053 12.6049C13.2783 13.2331 12.5335 13.7315 11.7137 14.0715L6.41208 1.28958ZM4.11103 2.82949C3.45275 3.48903 2.93095 4.27196 2.57555 5.13349L15.3677 10.4106C15.0292 11.2311 14.5322 11.9768 13.9053 12.6049L4.11103 2.82949ZM2.57555 5.13349C2.22017 5.99497 2.03817 6.91808 2.03996 7.84997L15.8778 7.82336C15.8795 8.7109 15.7061 9.59008 15.3677 10.4106L2.57555 5.13349ZM2.03997 7.8179L2.03835 8.41563L15.8761 8.45316L15.8778 7.85543L2.03997 7.8179Z" fill="#565656" mask="url(#path-2-inside-1_318_386)"/>
<mask id="path-4-inside-2_318_386" fill="white">
<path d="M15.6086 9.08304H14.0519C13.9658 9.08304 13.8834 9.04887 13.8225 8.98805C13.7617 8.92723 13.7275 8.84474 13.7275 8.75872V7.83666C13.7277 7.61987 13.8139 7.412 13.9672 7.25871C14.1205 7.10541 14.3284 7.01921 14.5452 7.01904H15.114C15.3308 7.01921 15.5386 7.10542 15.6919 7.25873C15.8451 7.41203 15.9312 7.6199 15.9313 7.83666V8.75872C15.9313 8.84445 15.8974 8.9267 15.8369 8.98748C15.7764 9.04826 15.6944 9.08261 15.6086 9.08304ZM14.3762 8.43439H15.2843V7.83666C15.2843 7.81449 15.28 7.79252 15.2716 7.77203C15.2631 7.75153 15.2507 7.7329 15.235 7.7172C15.2194 7.70151 15.2007 7.68906 15.1803 7.68056C15.1598 7.67206 15.1378 7.66769 15.1156 7.66769H14.5468C14.502 7.66769 14.459 7.68549 14.4273 7.71718C14.3956 7.74887 14.3778 7.79185 14.3778 7.83666L14.3762 8.43439Z"/>
</mask>
<path d="M15.6086 9.08304H14.0519C13.9658 9.08304 13.8834 9.04887 13.8225 8.98805C13.7617 8.92723 13.7275 8.84474 13.7275 8.75872V7.83666C13.7277 7.61987 13.8139 7.412 13.9672 7.25871C14.1205 7.10541 14.3284 7.01921 14.5452 7.01904H15.114C15.3308 7.01921 15.5386 7.10542 15.6919 7.25873C15.8451 7.41203 15.9312 7.6199 15.9313 7.83666V8.75872C15.9313 8.84445 15.8974 8.9267 15.8369 8.98748C15.7764 9.04826 15.6944 9.08261 15.6086 9.08304ZM14.3762 8.43439H15.2843V7.83666C15.2843 7.81449 15.28 7.79252 15.2716 7.77203C15.2631 7.75153 15.2507 7.7329 15.235 7.7172C15.2194 7.70151 15.2007 7.68906 15.1803 7.68056C15.1598 7.67206 15.1378 7.66769 15.1156 7.66769H14.5468C14.502 7.66769 14.459 7.68549 14.4273 7.71718C14.3956 7.74887 14.3778 7.79185 14.3778 7.83666L14.3762 8.43439Z" fill="#565656"/>
<path d="M15.6086 9.08304V16.002H15.6259L15.6432 16.0019L15.6086 9.08304ZM13.7275 7.83666L6.80862 7.83118V7.83666H13.7275ZM14.5452 7.01904V0.100121L14.5397 0.100126L14.5452 7.01904ZM15.114 7.01904L15.1195 0.100124H15.114V7.01904ZM15.9313 7.83666H22.8502L22.8502 7.83392L15.9313 7.83666ZM15.9313 8.75872H9.0124V8.75881L15.9313 8.75872ZM14.3762 8.43439L7.45729 8.41562L7.43847 15.3533H14.3762V8.43439ZM15.2843 8.43439V15.3533H22.2032V8.43439H15.2843ZM15.2843 7.83666L8.36538 7.82336V7.83666H15.2843ZM15.1156 7.66769V14.5866H15.1157L15.1156 7.66769ZM14.3778 7.83666L21.2967 7.85544L21.2967 7.84605V7.83666H14.3778ZM15.6086 2.16412H14.0519V16.002H15.6086V2.16412ZM14.0519 2.16412C15.8009 2.16412 17.4782 2.85892 18.7149 4.09564L8.93012 13.8805C10.2885 15.2388 12.1308 16.002 14.0519 16.002V2.16412ZM18.7149 4.09564C19.9517 5.33237 20.6465 7.00973 20.6465 8.75872H6.80862C6.80862 10.6797 7.57174 12.5221 8.93012 13.8805L18.7149 4.09564ZM20.6465 8.75872V7.83666H6.80862V8.75872H20.6465ZM20.6465 7.84215C20.6452 9.45846 20.0025 11.0082 18.8596 12.1511L9.07479 2.36629C7.62528 3.8158 6.81025 5.78129 6.80862 7.83118L20.6465 7.84215ZM18.8596 12.1511C17.7167 13.294 16.167 13.9367 14.5506 13.938L14.5397 0.100126C12.4898 0.10175 10.5243 0.916785 9.07479 2.36629L18.8596 12.1511ZM14.5452 13.938H15.114V0.100124H14.5452V13.938ZM15.1085 13.938C13.4917 13.9367 11.9415 13.2937 10.7985 12.1502L20.5853 2.36728C19.1357 0.917176 17.1699 0.101752 15.1195 0.100126L15.1085 13.938ZM10.7985 12.1502C9.65544 11.0067 9.01305 9.45623 9.0124 7.83941L22.8502 7.83392C22.8494 5.78357 22.0348 3.81739 20.5853 2.36728L10.7985 12.1502ZM9.0124 7.83666V8.75872H22.8502V7.83666H9.0124ZM9.0124 8.75881C9.01238 7.01546 9.70268 5.34309 10.9322 4.10734L20.7416 13.8676C22.0921 12.5103 22.8503 10.6735 22.8502 8.75863L9.0124 8.75881ZM10.9322 4.10734C12.1618 2.87156 13.8308 2.17293 15.574 2.16421L15.6432 16.0019C17.558 15.9923 19.391 15.225 20.7416 13.8676L10.9322 4.10734ZM14.3762 15.3533H15.2843V1.51548H14.3762V15.3533ZM22.2032 8.43439V7.83666H8.36538V8.43439H22.2032ZM22.2032 7.84997C22.205 6.91808 22.023 5.99497 21.6676 5.13349L8.87549 10.4106C8.53702 9.59008 8.36368 8.7109 8.36539 7.82336L22.2032 7.84997ZM21.6676 5.13349C21.3123 4.27216 20.7906 3.48919 20.1321 2.82949L10.3379 12.6049C9.7108 11.9766 9.2139 11.2309 8.87549 10.4106L21.6676 5.13349ZM20.1321 2.82949C19.4738 2.1699 18.6919 1.64662 17.8311 1.28958L12.5294 14.0715C11.7096 13.7315 10.9649 13.2331 10.3379 12.6049L20.1321 2.82949ZM17.8311 1.28958C16.9703 0.932561 16.0476 0.748771 15.1156 0.748773L15.1157 14.5866C14.2281 14.5866 13.3492 14.4116 12.5294 14.0715L17.8311 1.28958ZM15.1156 0.748773H14.5468V14.5866H15.1156V0.748773ZM14.5468 0.748773C12.667 0.748773 10.8641 1.49551 9.53489 2.82477L19.3197 12.6096C18.0538 13.8755 16.337 14.5866 14.5468 14.5866V0.748773ZM9.53489 2.82477C8.20561 4.15405 7.45889 5.9569 7.45889 7.83666H21.2967C21.2967 9.6268 20.5856 11.3437 19.3197 12.6096L9.53489 2.82477ZM7.45892 7.81789L7.45729 8.41562L21.2951 8.45317L21.2967 7.85544L7.45892 7.81789Z" fill="#565656" mask="url(#path-4-inside-2_318_386)"/>
<path d="M15.6086 9.08304V16.002H15.6259L15.6432 16.0019L15.6086 9.08304ZM13.7275 7.83666L6.80862 7.83118V7.83666H13.7275ZM14.5452 7.01904V0.100121L14.5397 0.100126L14.5452 7.01904ZM15.114 7.01904L15.1195 0.100124H15.114V7.01904ZM15.9313 7.83666H22.8502L22.8502 7.83392L15.9313 7.83666ZM15.9313 8.75872H9.0124V8.75881L15.9313 8.75872ZM14.3762 8.43439L7.45729 8.41562L7.43847 15.3533H14.3762V8.43439ZM15.2843 8.43439V15.3533H22.2032V8.43439H15.2843ZM15.2843 7.83666L8.36538 7.82336V7.83666H15.2843ZM15.1156 7.66769V14.5866H15.1157L15.1156 7.66769ZM14.3778 7.83666L21.2967 7.85544L21.2967 7.84605V7.83666H14.3778ZM15.6086 2.16412H14.0519V16.002H15.6086V2.16412ZM14.0519 2.16412C15.8009 2.16412 17.4782 2.85892 18.7149 4.09564L8.93012 13.8805C10.2885 15.2388 12.1308 16.002 14.0519 16.002V2.16412ZM18.7149 4.09564C19.9517 5.33237 20.6465 7.00973 20.6465 8.75872H6.80862C6.80862 10.6797 7.57174 12.5221 8.93012 13.8805L18.7149 4.09564ZM20.6465 8.75872V7.83666H6.80862V8.75872H20.6465ZM20.6465 7.84215C20.6452 9.45846 20.0025 11.0082 18.8596 12.1511L9.07479 2.36629C7.62528 3.8158 6.81025 5.78129 6.80862 7.83118L20.6465 7.84215ZM18.8596 12.1511C17.7167 13.294 16.167 13.9367 14.5506 13.938L14.5397 0.100126C12.4898 0.10175 10.5243 0.916785 9.07479 2.36629L18.8596 12.1511ZM14.5452 13.938H15.114V0.100124H14.5452V13.938ZM15.1085 13.938C13.4917 13.9367 11.9415 13.2937 10.7985 12.1502L20.5853 2.36728C19.1357 0.917176 17.1699 0.101752 15.1195 0.100126L15.1085 13.938ZM10.7985 12.1502C9.65544 11.0067 9.01305 9.45623 9.0124 7.83941L22.8502 7.83392C22.8494 5.78357 22.0348 3.81739 20.5853 2.36728L10.7985 12.1502ZM9.0124 7.83666V8.75872H22.8502V7.83666H9.0124ZM9.0124 8.75881C9.01238 7.01546 9.70268 5.34309 10.9322 4.10734L20.7416 13.8676C22.0921 12.5103 22.8503 10.6735 22.8502 8.75863L9.0124 8.75881ZM10.9322 4.10734C12.1618 2.87156 13.8308 2.17293 15.574 2.16421L15.6432 16.0019C17.558 15.9923 19.391 15.225 20.7416 13.8676L10.9322 4.10734ZM14.3762 15.3533H15.2843V1.51548H14.3762V15.3533ZM22.2032 8.43439V7.83666H8.36538V8.43439H22.2032ZM22.2032 7.84997C22.205 6.91808 22.023 5.99497 21.6676 5.13349L8.87549 10.4106C8.53702 9.59008 8.36368 8.7109 8.36539 7.82336L22.2032 7.84997ZM21.6676 5.13349C21.3123 4.27216 20.7906 3.48919 20.1321 2.82949L10.3379 12.6049C9.7108 11.9766 9.2139 11.2309 8.87549 10.4106L21.6676 5.13349ZM20.1321 2.82949C19.4738 2.1699 18.6919 1.64662 17.8311 1.28958L12.5294 14.0715C11.7096 13.7315 10.9649 13.2331 10.3379 12.6049L20.1321 2.82949ZM17.8311 1.28958C16.9703 0.932561 16.0476 0.748771 15.1156 0.748773L15.1157 14.5866C14.2281 14.5866 13.3492 14.4116 12.5294 14.0715L17.8311 1.28958ZM15.1156 0.748773H14.5468V14.5866H15.1156V0.748773ZM14.5468 0.748773C12.667 0.748773 10.8641 1.49551 9.53489 2.82477L19.3197 12.6096C18.0538 13.8755 16.337 14.5866 14.5468 14.5866V0.748773ZM9.53489 2.82477C8.20561 4.15405 7.45889 5.9569 7.45889 7.83666H21.2967C21.2967 9.6268 20.5856 11.3437 19.3197 12.6096L9.53489 2.82477ZM7.45892 7.81789L7.45729 8.41562L21.2951 8.45317L21.2967 7.85544L7.45892 7.81789Z" fill="#565656" mask="url(#path-4-inside-2_318_386)"/>
<mask id="path-6-inside-3_318_386" fill="white">
<path d="M22.8863 9.73133C22.8608 9.73145 22.8355 9.72851 22.8107 9.72258L17.9193 8.55501C17.8773 8.54559 17.8377 8.52794 17.8027 8.50308C17.7676 8.47821 17.7379 8.44664 17.7151 8.41018C17.6924 8.37372 17.6771 8.33311 17.6702 8.29071C17.6633 8.2483 17.6649 8.20494 17.6749 8.16316C17.6849 8.12137 17.7031 8.08198 17.7284 8.04729C17.7538 8.01259 17.7857 7.98328 17.8225 7.96104C17.8593 7.93881 17.9001 7.9241 17.9426 7.91778C17.9851 7.91145 18.0284 7.91364 18.0701 7.9242L22.9615 9.09177C23.0386 9.1104 23.1062 9.15661 23.1515 9.22168C23.1968 9.28675 23.2167 9.36616 23.2074 9.4449C23.1982 9.52365 23.1604 9.59627 23.1012 9.64905C23.042 9.70183 22.9656 9.7311 22.8863 9.73133Z"/>
</mask>
<path d="M22.8863 9.73133C22.8608 9.73145 22.8355 9.72851 22.8107 9.72258L17.9193 8.55501C17.8773 8.54559 17.8377 8.52794 17.8027 8.50308C17.7676 8.47821 17.7379 8.44664 17.7151 8.41018C17.6924 8.37372 17.6771 8.33311 17.6702 8.29071C17.6633 8.2483 17.6649 8.20494 17.6749 8.16316C17.6849 8.12137 17.7031 8.08198 17.7284 8.04729C17.7538 8.01259 17.7857 7.98328 17.8225 7.96104C17.8593 7.93881 17.9001 7.9241 17.9426 7.91778C17.9851 7.91145 18.0284 7.91364 18.0701 7.9242L22.9615 9.09177C23.0386 9.1104 23.1062 9.15661 23.1515 9.22168C23.1968 9.28675 23.2167 9.36616 23.2074 9.4449C23.1982 9.52365 23.1604 9.59627 23.1012 9.64905C23.042 9.70183 22.9656 9.7311 22.8863 9.73133Z" fill="#565656"/>
<path d="M22.8863 9.73133L22.8658 2.81244L22.8553 2.81248L22.8863 9.73133ZM22.8107 9.72258L24.4231 2.99415L24.4171 2.99272L22.8107 9.72258ZM17.9193 8.55501L19.5256 1.82515L19.4808 1.81444L19.4358 1.80433L17.9193 8.55501ZM18.0701 7.9242L16.3693 14.6308L16.4164 14.6428L16.4637 14.6541L18.0701 7.9242ZM22.9615 9.09177L24.5872 2.36655L24.5776 2.36421L24.5679 2.36191L22.9615 9.09177ZM22.8553 2.81248C23.3832 2.81012 23.9096 2.87109 24.4231 2.99415L21.1983 16.451C21.7614 16.5859 22.3384 16.6528 22.9172 16.6502L22.8553 2.81248ZM24.4171 2.99272L19.5256 1.82515L16.3129 15.2849L21.2043 16.4524L24.4171 2.99272ZM19.4358 1.80433C20.2881 1.99581 21.094 2.35475 21.8064 2.86028L13.7989 14.1459C14.5814 14.7011 15.4665 15.0954 16.4027 15.3057L19.4358 1.80433ZM21.8064 2.86028C22.519 3.36584 23.1239 4.00792 23.5861 4.74917L11.8442 12.0712C12.3518 12.8854 13.0163 13.5906 13.7989 14.1459L21.8064 2.86028ZM23.5861 4.74917C24.0484 5.49046 24.3587 6.31621 24.4992 7.17847L10.8413 9.40294C10.9955 10.35 11.3364 11.257 11.8442 12.0712L23.5861 4.74917ZM24.4992 7.17847C24.6396 8.04075 24.6073 8.92231 24.4042 9.77196L10.9456 6.55436C10.7225 7.48758 10.687 8.45585 10.8413 9.40294L24.4992 7.17847ZM24.4042 9.77196C24.2011 10.6215 23.8312 11.4224 23.3159 12.128L12.141 3.96662C11.575 4.74159 11.1687 5.62122 10.9456 6.55436L24.4042 9.77196ZM23.3159 12.128C22.8006 12.8335 22.1503 13.4296 21.4028 13.8816L14.2422 2.04048C13.4212 2.53698 12.7069 3.19168 12.141 3.96662L23.3159 12.128ZM21.4028 13.8816C20.6553 14.3336 19.8253 14.6327 18.9612 14.7613L16.924 1.07425C15.9748 1.21552 15.0633 1.54397 14.2422 2.04048L21.4028 13.8816ZM18.9612 14.7613C18.0971 14.8899 17.216 14.8456 16.3693 14.6308L19.7709 1.21758C18.8408 0.981718 17.8731 0.93298 16.924 1.07425L18.9612 14.7613ZM16.4637 14.6541L21.3551 15.8216L24.5679 2.36191L19.6764 1.19434L16.4637 14.6541ZM21.3358 15.817C19.7687 15.4382 18.3947 14.4984 17.4735 13.1754L28.8295 5.26797C27.8176 3.81483 26.3085 2.78263 24.5872 2.36655L21.3358 15.817ZM17.4735 13.1754C16.5523 11.8524 16.1475 10.2377 16.3359 8.63649L30.079 10.2533C30.2859 8.49457 29.8413 6.72107 28.8295 5.26797L17.4735 13.1754ZM16.3359 8.63649C16.5243 7.03534 17.2926 5.55865 18.4958 4.48553L27.7066 14.8126C29.0281 13.6339 29.8721 12.012 30.079 10.2533L16.3359 8.63649ZM18.4958 4.48553C19.699 3.41239 21.2536 2.81722 22.8658 2.81244L22.9068 16.6502C24.6775 16.645 26.385 15.9913 27.7066 14.8126L18.4958 4.48553Z" fill="#565656" mask="url(#path-6-inside-3_318_386)"/>
<path d="M22.8863 9.73133L22.8658 2.81244L22.8553 2.81248L22.8863 9.73133ZM22.8107 9.72258L24.4231 2.99415L24.4171 2.99272L22.8107 9.72258ZM17.9193 8.55501L19.5256 1.82515L19.4808 1.81444L19.4358 1.80433L17.9193 8.55501ZM18.0701 7.9242L16.3693 14.6308L16.4164 14.6428L16.4637 14.6541L18.0701 7.9242ZM22.9615 9.09177L24.5872 2.36655L24.5776 2.36421L24.5679 2.36191L22.9615 9.09177ZM22.8553 2.81248C23.3832 2.81012 23.9096 2.87109 24.4231 2.99415L21.1983 16.451C21.7614 16.5859 22.3384 16.6528 22.9172 16.6502L22.8553 2.81248ZM24.4171 2.99272L19.5256 1.82515L16.3129 15.2849L21.2043 16.4524L24.4171 2.99272ZM19.4358 1.80433C20.2881 1.99581 21.094 2.35475 21.8064 2.86028L13.7989 14.1459C14.5814 14.7011 15.4665 15.0954 16.4027 15.3057L19.4358 1.80433ZM21.8064 2.86028C22.519 3.36584 23.1239 4.00792 23.5861 4.74917L11.8442 12.0712C12.3518 12.8854 13.0163 13.5906 13.7989 14.1459L21.8064 2.86028ZM23.5861 4.74917C24.0484 5.49046 24.3587 6.31621 24.4992 7.17847L10.8413 9.40294C10.9955 10.35 11.3364 11.257 11.8442 12.0712L23.5861 4.74917ZM24.4992 7.17847C24.6396 8.04075 24.6073 8.92231 24.4042 9.77196L10.9456 6.55436C10.7225 7.48758 10.687 8.45585 10.8413 9.40294L24.4992 7.17847ZM24.4042 9.77196C24.2011 10.6215 23.8312 11.4224 23.3159 12.128L12.141 3.96662C11.575 4.74159 11.1687 5.62122 10.9456 6.55436L24.4042 9.77196ZM23.3159 12.128C22.8006 12.8335 22.1503 13.4296 21.4028 13.8816L14.2422 2.04048C13.4212 2.53698 12.7069 3.19168 12.141 3.96662L23.3159 12.128ZM21.4028 13.8816C20.6553 14.3336 19.8253 14.6327 18.9612 14.7613L16.924 1.07425C15.9748 1.21552 15.0633 1.54397 14.2422 2.04048L21.4028 13.8816ZM18.9612 14.7613C18.0971 14.8899 17.216 14.8456 16.3693 14.6308L19.7709 1.21758C18.8408 0.981718 17.8731 0.93298 16.924 1.07425L18.9612 14.7613ZM16.4637 14.6541L21.3551 15.8216L24.5679 2.36191L19.6764 1.19434L16.4637 14.6541ZM21.3358 15.817C19.7687 15.4382 18.3947 14.4984 17.4735 13.1754L28.8295 5.26797C27.8176 3.81483 26.3085 2.78263 24.5872 2.36655L21.3358 15.817ZM17.4735 13.1754C16.5523 11.8524 16.1475 10.2377 16.3359 8.63649L30.079 10.2533C30.2859 8.49457 29.8413 6.72107 28.8295 5.26797L17.4735 13.1754ZM16.3359 8.63649C16.5243 7.03534 17.2926 5.55865 18.4958 4.48553L27.7066 14.8126C29.0281 13.6339 29.8721 12.012 30.079 10.2533L16.3359 8.63649ZM18.4958 4.48553C19.699 3.41239 21.2536 2.81722 22.8658 2.81244L22.9068 16.6502C24.6775 16.645 26.385 15.9913 27.7066 14.8126L18.4958 4.48553Z" fill="#565656" mask="url(#path-6-inside-3_318_386)"/>
<path d="M2.2193 11.2446C1.95615 11.245 1.7018 11.1498 1.50348 10.9769C1.30516 10.8039 1.17634 10.5648 1.14092 10.3041L0.796812 7.75943C0.713682 7.13281 0.828726 6.49588 1.12582 5.93794C1.42291 5.37999 1.88715 4.929 2.45346 4.64819C5.90946 2.92343 9.61811 2.56213 12.1212 2.56213C14.6315 2.56213 18.3483 2.92376 21.792 4.64722C22.3575 4.92842 22.821 5.37939 23.1175 5.93702C23.4141 6.49465 23.529 7.13104 23.446 7.75716L23.1016 10.3031C23.0812 10.4537 23.0296 10.5983 22.9499 10.7277C22.8703 10.857 22.7644 10.9683 22.6391 11.0542C22.5138 11.1401 22.3719 11.1988 22.2225 11.2266C22.0731 11.2543 21.9196 11.2504 21.7718 11.2151L18.3522 10.3981C18.0956 10.336 17.8703 10.1831 17.7179 9.96755C17.5656 9.75203 17.4965 9.48858 17.5235 9.22603L17.7181 7.37738C17.735 7.20882 17.6892 7.03995 17.5895 6.90301C17.4897 6.76608 17.3431 6.67067 17.1775 6.635C13.8527 5.88774 10.4035 5.88774 7.07865 6.635C6.91314 6.6708 6.7666 6.76626 6.66695 6.90317C6.5673 7.04008 6.52151 7.20888 6.53833 7.37738L6.73292 9.22797C6.75997 9.49067 6.69079 9.75426 6.53822 9.96982C6.38565 10.1854 6.16005 10.3383 5.9033 10.4001L2.47065 11.2154C2.38829 11.2349 2.30394 11.2447 2.2193 11.2446ZM12.1212 3.21078C9.68881 3.21078 6.08589 3.56105 2.74308 5.22905C2.29792 5.44943 1.93289 5.80361 1.69919 6.24193C1.46549 6.68025 1.37484 7.18072 1.43995 7.67316L1.78341 10.2162C1.79156 10.277 1.81239 10.3354 1.84453 10.3876C1.87667 10.4399 1.91941 10.4848 1.97 10.5195C2.02059 10.5542 2.07789 10.5779 2.13821 10.589C2.19852 10.6002 2.26051 10.5986 2.32016 10.5843L5.75411 9.76667C5.85768 9.74172 5.94869 9.68004 6.01024 9.59308C6.07179 9.50612 6.09971 9.39979 6.08881 9.29381L5.89422 7.44322C5.86083 7.11651 5.94872 6.78892 6.14116 6.5228C6.3336 6.25669 6.61717 6.07061 6.93789 5.99997C10.3556 5.23201 13.9012 5.23201 17.3189 5.99997C17.64 6.07028 17.924 6.25632 18.1167 6.52262C18.3095 6.78893 18.3974 7.11686 18.3638 7.44386L18.1692 9.29251C18.1583 9.39846 18.1861 9.50479 18.2476 9.59176C18.3091 9.67872 18.4001 9.74042 18.5036 9.76538L21.9223 10.582C21.9818 10.5962 22.0435 10.5977 22.1036 10.5866C22.1637 10.5756 22.2208 10.552 22.2712 10.5176C22.3217 10.4832 22.3644 10.4386 22.3967 10.3867C22.4289 10.3348 22.4499 10.2767 22.4584 10.2162L22.8025 7.67024C22.8679 7.17822 22.7776 6.67809 22.5444 6.23992C22.3113 5.80175 21.9469 5.44749 21.5023 5.22678C18.1702 3.56008 14.5618 3.21078 12.1212 3.21078Z" fill="#565656" stroke="#565656" stroke-width="0.3"/>
<mask id="path-9-inside-4_318_386" fill="white">
<path d="M1.35625 9.73136C1.27699 9.73105 1.20058 9.70172 1.14147 9.64892C1.08236 9.59612 1.04463 9.5235 1.03541 9.44477C1.02618 9.36605 1.04611 9.28668 1.09142 9.22164C1.13673 9.15661 1.20429 9.11042 1.28133 9.0918L6.22728 7.91028C6.26892 7.89972 6.31225 7.89754 6.35475 7.90386C6.39724 7.91019 6.43806 7.92489 6.47482 7.94713C6.51159 7.96936 6.54357 7.99868 6.56891 8.03337C6.59425 8.06807 6.61244 8.10745 6.62243 8.14924C6.63242 8.19103 6.63401 8.23438 6.62711 8.27679C6.6202 8.3192 6.60494 8.35981 6.5822 8.39626C6.55947 8.43272 6.52972 8.4643 6.49468 8.48916C6.45964 8.51402 6.42001 8.53167 6.37809 8.54109L1.43214 9.72261C1.40728 9.7285 1.3818 9.73144 1.35625 9.73136Z"/>
</mask>
<path d="M1.35625 9.73136C1.27699 9.73105 1.20058 9.70172 1.14147 9.64892C1.08236 9.59612 1.04463 9.5235 1.03541 9.44477C1.02618 9.36605 1.04611 9.28668 1.09142 9.22164C1.13673 9.15661 1.20429 9.11042 1.28133 9.0918L6.22728 7.91028C6.26892 7.89972 6.31225 7.89754 6.35475 7.90386C6.39724 7.91019 6.43806 7.92489 6.47482 7.94713C6.51159 7.96936 6.54357 7.99868 6.56891 8.03337C6.59425 8.06807 6.61244 8.10745 6.62243 8.14924C6.63242 8.19103 6.63401 8.23438 6.62711 8.27679C6.6202 8.3192 6.60494 8.35981 6.5822 8.39626C6.55947 8.43272 6.52972 8.4643 6.49468 8.48916C6.45964 8.51402 6.42001 8.53167 6.37809 8.54109L1.43214 9.72261C1.40728 9.7285 1.3818 9.73144 1.35625 9.73136Z" fill="#565656"/>
<path d="M1.35625 9.73136L1.32893 16.6502L1.33429 16.6502L1.35625 9.73136ZM1.28133 9.0918L-0.326266 2.36223L-0.335267 2.36438L-0.344262 2.36655L1.28133 9.0918ZM6.22728 7.91028L7.83487 14.6398L7.88155 14.6287L7.92807 14.6169L6.22728 7.91028ZM6.37809 8.54109L4.86158 1.79041L4.81597 1.80066L4.77049 1.81152L6.37809 8.54109ZM1.43214 9.72261L3.02921 16.4547L3.03973 16.4522L1.43214 9.72261ZM1.38357 2.8125C2.99519 2.81886 4.54871 3.41517 5.75068 4.48882L-3.46774 14.809C-2.14754 15.9883 -0.441218 16.6432 1.32893 16.6502L1.38357 2.8125ZM5.75068 4.48882C6.95263 5.56245 7.71983 7.03908 7.90734 8.6398L-5.83653 10.2498C-5.63057 12.0079 -4.78792 13.6298 -3.46774 14.809L5.75068 4.48882ZM7.90734 8.6398C8.09484 10.2405 7.68969 11.8545 6.76839 13.1768L-4.58555 5.26647C-5.59747 6.7189 -6.04248 8.4916 -5.83653 10.2498L7.90734 8.6398ZM6.76839 13.1768C5.84709 14.4992 4.47343 15.4384 2.90692 15.817L-0.344262 2.36655C-2.06486 2.78245 -3.57363 3.81402 -4.58555 5.26647L6.76839 13.1768ZM2.88892 15.8214L7.83487 14.6398L4.61968 1.18071L-0.326266 2.36223L2.88892 15.8214ZM7.92807 14.6169C7.08124 14.8317 6.2002 14.876 5.33613 14.7474L7.37337 1.06034C6.4243 0.919074 5.4566 0.967784 4.52648 1.20366L7.92807 14.6169ZM5.33613 14.7474C4.47206 14.6188 3.64213 14.3198 2.89455 13.8677L10.0551 2.02656C9.23399 1.53002 8.32243 1.2016 7.37337 1.06034L5.33613 14.7474ZM2.89455 13.8677C2.14696 13.4156 1.49668 12.8195 0.981465 12.114L12.1564 3.9527C11.5905 3.17784 10.8762 2.52311 10.0551 2.02656L2.89455 13.8677ZM0.981465 12.114C0.46623 11.4086 0.0962927 10.6077 -0.106845 9.75804L13.3517 6.54044C13.1286 5.60718 12.7223 4.72758 12.1564 3.9527L0.981465 12.114ZM-0.106845 9.75804C-0.309989 8.90833 -0.34226 8.02677 -0.201831 7.16456L13.456 9.38902C13.6103 8.442 13.5748 7.47373 13.3517 6.54044L-0.106845 9.75804ZM-0.201831 7.16456C-0.0614041 6.30236 0.248936 5.47659 0.711218 4.73526L12.4532 12.0573C12.9609 11.243 13.3018 10.336 13.456 9.38902L-0.201831 7.16456ZM0.711218 4.73526C1.1735 3.99392 1.77845 3.35187 2.4909 2.84636L10.4985 14.132C11.281 13.5767 11.9454 12.8715 12.4532 12.0573L0.711218 4.73526ZM2.4909 2.84636C3.20339 2.34082 4.00923 1.98189 4.86158 1.79041L7.89459 15.2918C8.83078 15.0815 9.71588 14.6872 10.4985 14.132L2.4909 2.84636ZM4.77049 1.81152L-0.175455 2.99304L3.03973 16.4522L7.98568 15.2707L4.77049 1.81152ZM-0.164929 2.99053C0.340721 2.87058 0.858694 2.81083 1.37821 2.81248L1.33429 16.6502C1.90491 16.6521 2.47383 16.5864 3.02921 16.4547L-0.164929 2.99053Z" fill="#565656" mask="url(#path-9-inside-4_318_386)"/>
<path d="M1.35625 9.73136L1.32893 16.6502L1.33429 16.6502L1.35625 9.73136ZM1.28133 9.0918L-0.326266 2.36223L-0.335267 2.36438L-0.344262 2.36655L1.28133 9.0918ZM6.22728 7.91028L7.83487 14.6398L7.88155 14.6287L7.92807 14.6169L6.22728 7.91028ZM6.37809 8.54109L4.86158 1.79041L4.81597 1.80066L4.77049 1.81152L6.37809 8.54109ZM1.43214 9.72261L3.02921 16.4547L3.03973 16.4522L1.43214 9.72261ZM1.38357 2.8125C2.99519 2.81886 4.54871 3.41517 5.75068 4.48882L-3.46774 14.809C-2.14754 15.9883 -0.441218 16.6432 1.32893 16.6502L1.38357 2.8125ZM5.75068 4.48882C6.95263 5.56245 7.71983 7.03908 7.90734 8.6398L-5.83653 10.2498C-5.63057 12.0079 -4.78792 13.6298 -3.46774 14.809L5.75068 4.48882ZM7.90734 8.6398C8.09484 10.2405 7.68969 11.8545 6.76839 13.1768L-4.58555 5.26647C-5.59747 6.7189 -6.04248 8.4916 -5.83653 10.2498L7.90734 8.6398ZM6.76839 13.1768C5.84709 14.4992 4.47343 15.4384 2.90692 15.817L-0.344262 2.36655C-2.06486 2.78245 -3.57363 3.81402 -4.58555 5.26647L6.76839 13.1768ZM2.88892 15.8214L7.83487 14.6398L4.61968 1.18071L-0.326266 2.36223L2.88892 15.8214ZM7.92807 14.6169C7.08124 14.8317 6.2002 14.876 5.33613 14.7474L7.37337 1.06034C6.4243 0.919074 5.4566 0.967784 4.52648 1.20366L7.92807 14.6169ZM5.33613 14.7474C4.47206 14.6188 3.64213 14.3198 2.89455 13.8677L10.0551 2.02656C9.23399 1.53002 8.32243 1.2016 7.37337 1.06034L5.33613 14.7474ZM2.89455 13.8677C2.14696 13.4156 1.49668 12.8195 0.981465 12.114L12.1564 3.9527C11.5905 3.17784 10.8762 2.52311 10.0551 2.02656L2.89455 13.8677ZM0.981465 12.114C0.46623 11.4086 0.0962927 10.6077 -0.106845 9.75804L13.3517 6.54044C13.1286 5.60718 12.7223 4.72758 12.1564 3.9527L0.981465 12.114ZM-0.106845 9.75804C-0.309989 8.90833 -0.34226 8.02677 -0.201831 7.16456L13.456 9.38902C13.6103 8.442 13.5748 7.47373 13.3517 6.54044L-0.106845 9.75804ZM-0.201831 7.16456C-0.0614041 6.30236 0.248936 5.47659 0.711218 4.73526L12.4532 12.0573C12.9609 11.243 13.3018 10.336 13.456 9.38902L-0.201831 7.16456ZM0.711218 4.73526C1.1735 3.99392 1.77845 3.35187 2.4909 2.84636L10.4985 14.132C11.281 13.5767 11.9454 12.8715 12.4532 12.0573L0.711218 4.73526ZM2.4909 2.84636C3.20339 2.34082 4.00923 1.98189 4.86158 1.79041L7.89459 15.2918C8.83078 15.0815 9.71588 14.6872 10.4985 14.132L2.4909 2.84636ZM4.77049 1.81152L-0.175455 2.99304L3.03973 16.4522L7.98568 15.2707L4.77049 1.81152ZM-0.164929 2.99053C0.340721 2.87058 0.858694 2.81083 1.37821 2.81248L1.33429 16.6502C1.90491 16.6521 2.47383 16.5864 3.02921 16.4547L-0.164929 2.99053Z" fill="#565656" mask="url(#path-9-inside-4_318_386)"/>
<path d="M21.117 19.3622H3.12609C3.04008 19.3622 2.95758 19.328 2.89676 19.2672C2.83594 19.2064 2.80177 19.1239 2.80177 19.0378V15.9412C2.80059 15.5438 2.90953 15.1539 3.11649 14.8147C3.32344 14.4755 3.62033 14.2003 3.9742 14.0196C4.8269 13.5968 5.56401 12.9729 6.12201 12.2019C6.68 11.4308 7.04214 10.5357 7.17723 9.59352C7.22027 9.2716 7.3789 8.97631 7.62355 8.76269C7.8682 8.54907 8.18217 8.4317 8.50696 8.43244H15.7355C16.0603 8.4317 16.3743 8.54907 16.6189 8.76269C16.8636 8.97631 17.0222 9.2716 17.0652 9.59352C17.2005 10.5359 17.5629 11.4311 18.1213 12.2022C18.6796 12.9733 19.4171 13.597 20.2702 14.0196C20.6241 14.2003 20.921 14.4755 21.1279 14.8147C21.3349 15.1539 21.4438 15.5438 21.4426 15.9412V19.0378C21.4426 19.0805 21.4342 19.1228 21.4178 19.1623C21.4014 19.2017 21.3774 19.2375 21.3472 19.2676C21.3169 19.2978 21.281 19.3216 21.2415 19.3379C21.202 19.3541 21.1597 19.3623 21.117 19.3622ZM3.45042 18.7135H20.7927V15.9412C20.7945 15.6647 20.7197 15.3931 20.5766 15.1565C20.4335 14.9199 20.2276 14.7275 19.9819 14.6008C19.0347 14.1314 18.2159 13.4387 17.5961 12.5824C16.9762 11.7262 16.5738 10.732 16.4237 9.68563C16.402 9.51847 16.3201 9.36494 16.1935 9.2537C16.0669 9.14245 15.9041 9.0811 15.7355 9.08109H8.50761C8.33904 9.0811 8.17624 9.14245 8.0496 9.2537C7.92296 9.36494 7.84113 9.51847 7.81939 9.68563C7.66939 10.7319 7.26724 11.7259 6.64761 12.5822C6.02798 13.4385 5.20944 14.1312 4.26252 14.6008C4.01677 14.7275 3.81091 14.9199 3.6678 15.1565C3.52468 15.3931 3.44989 15.6647 3.45171 15.9412L3.45042 18.7135Z" fill="#565656" stroke="#565656" stroke-width="0.3"/>
<path d="M12.1214 17.7386C11.4065 17.7386 10.7077 17.5266 10.1133 17.1294C9.51885 16.7322 9.05556 16.1677 8.78198 15.5072C8.5084 14.8468 8.43682 14.12 8.57629 13.4188C8.71576 12.7177 9.06002 12.0736 9.56553 11.5681C10.071 11.0626 10.7151 10.7183 11.4163 10.5789C12.1174 10.4394 12.8442 10.511 13.5047 10.7845C14.1652 11.0581 14.7297 11.5214 15.1269 12.1158C15.524 12.7103 15.736 13.4091 15.736 14.124C15.735 15.0823 15.3538 16.0011 14.6762 16.6788C13.9986 17.3564 13.0798 17.7376 12.1214 17.7386ZM12.1214 11.158C11.5348 11.158 10.9614 11.332 10.4736 11.6579C9.98589 11.9838 9.60574 12.447 9.38126 12.989C9.15677 13.5309 9.09803 14.1273 9.21248 14.7026C9.32692 15.278 9.6094 15.8064 10.0242 16.2212C10.439 16.636 10.9675 16.9185 11.5428 17.033C12.1181 17.1474 12.7145 17.0887 13.2565 16.8642C13.7984 16.6397 14.2616 16.2595 14.5875 15.7718C14.9134 15.284 15.0874 14.7106 15.0874 14.124C15.0868 13.3374 14.7741 12.5833 14.2181 12.027C13.662 11.4707 12.908 11.1577 12.1214 11.1568V11.158Z" fill="#565656" stroke="#565656" stroke-width="0.3"/>
<path d="M12.1212 12.4709C12.0352 12.4709 11.9527 12.4368 11.8919 12.376C11.8567 12.3408 11.8304 12.2984 11.8145 12.2522C11.803 12.2185 11.7969 12.1829 11.7969 12.1466V11.9455C11.7969 11.9093 11.803 11.8736 11.8145 11.84C11.8304 11.7938 11.8567 11.7514 11.8919 11.7162C11.9527 11.6554 12.0352 11.6212 12.1212 11.6212C12.2072 11.6212 12.2897 11.6554 12.3505 11.7162C12.3857 11.7514 12.412 11.7938 12.4279 11.84C12.4394 11.8736 12.4455 11.9093 12.4455 11.9455V12.1466C12.4455 12.1829 12.4394 12.2185 12.4279 12.2522C12.412 12.2984 12.3857 12.3408 12.3505 12.376C12.2897 12.4368 12.2072 12.4709 12.1212 12.4709Z" fill="#565656"/>
<path d="M12.1212 12.4709C12.0352 12.4709 11.9527 12.4368 11.8919 12.376C11.8567 12.3408 11.8304 12.2984 11.8145 12.2522C11.803 12.2185 11.7969 12.1829 11.7969 12.1466V11.9455C11.7969 11.9093 11.803 11.8736 11.8145 11.84C11.8304 11.7938 11.8567 11.7514 11.8919 11.7162C11.9527 11.6554 12.0352 11.6212 12.1212 11.6212C12.2072 11.6212 12.2897 11.6554 12.3505 11.7162C12.3857 11.7514 12.412 11.7938 12.4279 11.84C12.4394 11.8736 12.4455 11.9093 12.4455 11.9455V12.1466C12.4455 12.1829 12.4394 12.2185 12.4279 12.2522C12.412 12.2984 12.3857 12.3408 12.3505 12.376C12.2897 12.4368 12.2072 12.4709 12.1212 12.4709Z" stroke="#565656" stroke-width="6.91892"/>
<path d="M12.1212 12.4709C12.0352 12.4709 11.9527 12.4368 11.8919 12.376C11.8567 12.3408 11.8304 12.2984 11.8145 12.2522C11.803 12.2185 11.7969 12.1829 11.7969 12.1466V11.9455C11.7969 11.9093 11.803 11.8736 11.8145 11.84C11.8304 11.7938 11.8567 11.7514 11.8919 11.7162C11.9527 11.6554 12.0352 11.6212 12.1212 11.6212C12.2072 11.6212 12.2897 11.6554 12.3505 11.7162C12.3857 11.7514 12.412 11.7938 12.4279 11.84C12.4394 11.8736 12.4455 11.9093 12.4455 11.9455V12.1466C12.4455 12.1829 12.4394 12.2185 12.4279 12.2522C12.412 12.2984 12.3857 12.3408 12.3505 12.376C12.2897 12.4368 12.2072 12.4709 12.1212 12.4709Z" stroke="#565656" stroke-width="6.91892"/>
<path d="M10.3409 12.8015C10.3159 12.774 10.2958 12.7423 10.2816 12.7079C10.2653 12.6685 10.2569 12.6263 10.2568 12.5837C10.2568 12.567 10.2581 12.5504 10.2607 12.5339L10.3808 12.5837L10.2607 12.5339C10.2646 12.5085 10.2716 12.4835 10.2815 12.4596C10.2978 12.4202 10.3217 12.3844 10.3518 12.3543C10.3761 12.3299 10.4042 12.3096 10.4349 12.2941C10.4421 12.2904 10.4495 12.2871 10.457 12.284C10.4963 12.2676 10.5385 12.2592 10.5811 12.2592C10.6237 12.2592 10.6659 12.2676 10.7053 12.2839C10.7113 12.2864 10.7173 12.289 10.7231 12.2919L10.7231 12.441L10.6093 12.5551L10.5815 12.583L10.5993 12.54L10.5815 12.583L10.5812 12.5832L10.5811 12.5834L10.581 12.5834L10.581 12.5835L10.5809 12.5836L10.5806 12.5839L10.5223 12.6423L10.481 12.6252L10.5223 12.6423L10.494 12.6707L10.3687 12.796M10.3409 12.8015C10.3444 12.8054 10.3481 12.8092 10.3518 12.8129L10.3687 12.796M10.3409 12.8015L10.3687 12.796M10.3409 12.8015L10.3687 12.796M10.5225 12.6424L10.5812 12.5836M10.5225 12.6424L10.5812 12.5836M10.5225 12.6424L10.5519 12.6545M10.5225 12.6424L10.5519 12.6545M10.5812 12.5836L10.6095 12.5553L10.7231 12.4416V12.4416M10.5812 12.5836L10.7231 12.4416M10.5812 12.5836L10.7232 12.7255M10.5812 12.5836L10.7232 12.7255M10.5812 12.5836L10.7232 12.7255M10.5812 12.5836L10.7232 12.7255M10.5519 12.6545L10.5813 12.6667L10.5519 12.6545M10.5519 12.6545L10.5045 12.769M10.369 12.7959L10.5225 12.6424M10.369 12.7959L10.3519 12.8131L10.447 12.9079L10.4939 12.9547L10.5813 12.8673L10.6644 12.7843L10.7232 12.7255M10.369 12.7959L10.5045 12.769M10.369 12.7959L10.5045 12.769M10.5225 12.6424L10.7232 12.7255M10.5225 12.6424L10.5519 12.6545M10.5225 12.6424L10.5045 12.769M10.7232 12.7255L10.6228 12.6839L10.7232 12.7255ZM10.7232 12.7255L10.7232 12.6424M10.7232 12.7255L10.7232 12.6424M10.9523 12.4959L10.9055 12.4491L10.8105 12.3541L10.7234 12.4413L10.7234 12.5247L10.7234 12.5836L10.7234 12.6424M10.9523 12.4959L10.7234 12.6424M10.9523 12.4959L10.865 12.5835L10.782 12.6667M10.9523 12.4959L10.782 12.6667M10.7234 12.6424L10.782 12.6667M10.7234 12.6424L10.782 12.6667M10.7231 12.4416L10.7232 12.5248L10.7232 12.5836L10.7232 12.6424M10.7231 12.4416L10.7232 12.6424M10.8652 12.5835L10.7987 12.65L10.8651 12.5835L10.9524 12.496L10.7821 12.6667M10.8652 12.5835L10.7821 12.6667M10.8652 12.5835L10.9522 12.4966L10.8652 12.5835ZM10.7821 12.6667L10.8589 12.6985L10.7821 12.6667ZM11.0229 12.8496C11.0328 12.8255 11.0398 12.8005 11.0437 12.775C11.0495 12.7378 11.0487 12.6996 11.0413 12.6622L10.7235 12.7255L10.7233 12.7256V12.7256L11.0229 12.8496ZM11.0229 12.8496C11.0065 12.8891 10.9826 12.9248 10.9526 12.9547C10.9377 12.9697 10.9212 12.9833 10.9034 12.9951C10.864 13.0215 10.8194 13.0388 10.7729 13.046C10.7566 13.0485 10.74 13.0498 10.7233 13.0498M11.0229 12.8496L10.7233 12.7256L10.7233 12.7256L10.7233 12.7257L10.7233 12.9263L10.7233 13.0498M10.7233 13.0498C10.6736 13.0498 10.6252 13.0384 10.5814 13.0171C10.5494 13.0015 10.5199 12.9807 10.4943 12.9551L10.494 12.9548L10.5813 12.8675L10.6645 12.7843L10.7232 12.7256L10.7232 12.7256L10.6645 12.7845M10.7233 13.0498L10.7233 12.9261L10.7232 12.7257L10.6645 12.7845M10.6645 12.7845L10.5813 12.8679L10.6645 12.7845ZM10.7234 12.7255L10.7233 12.7254M10.7234 12.7255L10.7233 12.7254M10.7234 12.7255L10.7506 12.6982L10.7233 12.7254M10.7234 12.7255L10.7233 12.7254M10.5045 12.769L10.5519 12.6545M10.5045 12.769L10.5519 12.6545M10.7234 12.2921C10.7555 12.3077 10.7848 12.3285 10.8102 12.3538L10.7234 12.4407L10.7234 12.2921ZM10.772 12.6767L10.7233 12.7254L10.772 12.6767Z" fill="#565656"/>
<path d="M10.3409 12.8015C10.3159 12.774 10.2958 12.7423 10.2816 12.7079C10.2653 12.6685 10.2569 12.6263 10.2568 12.5837C10.2568 12.567 10.2581 12.5504 10.2607 12.5339L10.3808 12.5837L10.2607 12.5339C10.2646 12.5085 10.2716 12.4835 10.2815 12.4596C10.2978 12.4202 10.3217 12.3844 10.3518 12.3543C10.3761 12.3299 10.4042 12.3096 10.4349 12.2941C10.4421 12.2904 10.4495 12.2871 10.457 12.284C10.4963 12.2676 10.5385 12.2592 10.5811 12.2592C10.6237 12.2592 10.6659 12.2676 10.7053 12.2839C10.7113 12.2864 10.7173 12.289 10.7231 12.2919L10.7231 12.441L10.6093 12.5551L10.5815 12.583L10.5993 12.54L10.5815 12.583L10.5812 12.5832L10.5811 12.5834L10.581 12.5834L10.581 12.5835L10.5809 12.5836L10.5806 12.5839L10.5223 12.6423L10.481 12.6252L10.5223 12.6423L10.494 12.6707L10.3687 12.796M10.3409 12.8015C10.3444 12.8054 10.3481 12.8092 10.3518 12.8129L10.3687 12.796M10.3409 12.8015L10.3687 12.796M10.3409 12.8015L10.3687 12.796M10.5225 12.6424L10.5812 12.5836M10.5225 12.6424L10.5812 12.5836M10.5225 12.6424L10.5519 12.6545M10.5225 12.6424L10.5519 12.6545M10.5812 12.5836L10.6095 12.5553L10.7231 12.4416V12.4416M10.5812 12.5836L10.7231 12.4416M10.5812 12.5836L10.7232 12.7255M10.5812 12.5836L10.7232 12.7255M10.5812 12.5836L10.7232 12.7255M10.5812 12.5836L10.7232 12.7255M10.5519 12.6545L10.5813 12.6667L10.5519 12.6545M10.5519 12.6545L10.5045 12.769M10.369 12.7959L10.5225 12.6424M10.369 12.7959L10.3519 12.8131L10.447 12.9079L10.4939 12.9547L10.5813 12.8673L10.6644 12.7843L10.7232 12.7255M10.369 12.7959L10.5045 12.769M10.369 12.7959L10.5045 12.769M10.5225 12.6424L10.7232 12.7255M10.5225 12.6424L10.5519 12.6545M10.5225 12.6424L10.5045 12.769M10.7232 12.7255L10.6228 12.6839L10.7232 12.7255ZM10.7232 12.7255L10.7232 12.6424M10.7232 12.7255L10.7232 12.6424M10.9523 12.4959L10.9055 12.4491L10.8105 12.3541L10.7234 12.4413L10.7234 12.5247L10.7234 12.5836L10.7234 12.6424M10.9523 12.4959L10.7234 12.6424M10.9523 12.4959L10.865 12.5835L10.782 12.6667M10.9523 12.4959L10.782 12.6667M10.7234 12.6424L10.782 12.6667M10.7234 12.6424L10.782 12.6667M10.7231 12.4416L10.7232 12.5248L10.7232 12.5836L10.7232 12.6424M10.7231 12.4416L10.7232 12.6424M10.8652 12.5835L10.7987 12.65L10.8651 12.5835L10.9524 12.496L10.7821 12.6667M10.8652 12.5835L10.7821 12.6667M10.8652 12.5835L10.9522 12.4966L10.8652 12.5835ZM10.7821 12.6667L10.8589 12.6985L10.7821 12.6667ZM11.0229 12.8496C11.0328 12.8255 11.0398 12.8005 11.0437 12.775C11.0495 12.7378 11.0487 12.6996 11.0413 12.6622L10.7235 12.7255L10.7233 12.7256V12.7256L11.0229 12.8496ZM11.0229 12.8496C11.0065 12.8891 10.9826 12.9248 10.9526 12.9547C10.9377 12.9697 10.9212 12.9833 10.9034 12.9951C10.864 13.0215 10.8194 13.0388 10.7729 13.046C10.7566 13.0485 10.74 13.0498 10.7233 13.0498M11.0229 12.8496L10.7233 12.7256L10.7233 12.7256L10.7233 12.7257L10.7233 12.9263L10.7233 13.0498M10.7233 13.0498C10.6736 13.0498 10.6252 13.0384 10.5814 13.0171C10.5494 13.0015 10.5199 12.9807 10.4943 12.9551L10.494 12.9548L10.5813 12.8675L10.6645 12.7843L10.7232 12.7256L10.7232 12.7256L10.6645 12.7845M10.7233 13.0498L10.7233 12.9261L10.7232 12.7257L10.6645 12.7845M10.6645 12.7845L10.5813 12.8679L10.6645 12.7845ZM10.7234 12.7255L10.7233 12.7254M10.7234 12.7255L10.7233 12.7254M10.7234 12.7255L10.7506 12.6982L10.7233 12.7254M10.7234 12.7255L10.7233 12.7254M10.5045 12.769L10.5519 12.6545M10.5045 12.769L10.5519 12.6545M10.7234 12.2921C10.7555 12.3077 10.7848 12.3285 10.8102 12.3538L10.7234 12.4407L10.7234 12.2921ZM10.772 12.6767L10.7233 12.7254L10.772 12.6767Z" stroke="#565656" stroke-width="6.91892"/>
<path d="M10.3409 12.8015C10.3159 12.774 10.2958 12.7423 10.2816 12.7079C10.2653 12.6685 10.2569 12.6263 10.2568 12.5837C10.2568 12.567 10.2581 12.5504 10.2607 12.5339L10.3808 12.5837L10.2607 12.5339C10.2646 12.5085 10.2716 12.4835 10.2815 12.4596C10.2978 12.4202 10.3217 12.3844 10.3518 12.3543C10.3761 12.3299 10.4042 12.3096 10.4349 12.2941C10.4421 12.2904 10.4495 12.2871 10.457 12.284C10.4963 12.2676 10.5385 12.2592 10.5811 12.2592C10.6237 12.2592 10.6659 12.2676 10.7053 12.2839C10.7113 12.2864 10.7173 12.289 10.7231 12.2919L10.7231 12.441L10.6093 12.5551L10.5815 12.583L10.5993 12.54L10.5815 12.583L10.5812 12.5832L10.5811 12.5834L10.581 12.5834L10.581 12.5835L10.5809 12.5836L10.5806 12.5839L10.5223 12.6423L10.481 12.6252L10.5223 12.6423L10.494 12.6707L10.3687 12.796M10.3409 12.8015C10.3444 12.8054 10.3481 12.8092 10.3518 12.8129L10.3687 12.796M10.3409 12.8015L10.3687 12.796M10.3409 12.8015L10.3687 12.796M10.5225 12.6424L10.5812 12.5836M10.5225 12.6424L10.5812 12.5836M10.5225 12.6424L10.5519 12.6545M10.5225 12.6424L10.5519 12.6545M10.5812 12.5836L10.6095 12.5553L10.7231 12.4416V12.4416M10.5812 12.5836L10.7231 12.4416M10.5812 12.5836L10.7232 12.7255M10.5812 12.5836L10.7232 12.7255M10.5812 12.5836L10.7232 12.7255M10.5812 12.5836L10.7232 12.7255M10.5519 12.6545L10.5813 12.6667L10.5519 12.6545M10.5519 12.6545L10.5045 12.769M10.369 12.7959L10.5225 12.6424M10.369 12.7959L10.3519 12.8131L10.447 12.9079L10.4939 12.9547L10.5813 12.8673L10.6644 12.7843L10.7232 12.7255M10.369 12.7959L10.5045 12.769M10.369 12.7959L10.5045 12.769M10.5225 12.6424L10.7232 12.7255M10.5225 12.6424L10.5519 12.6545M10.5225 12.6424L10.5045 12.769M10.7232 12.7255L10.6228 12.6839L10.7232 12.7255ZM10.7232 12.7255L10.7232 12.6424M10.7232 12.7255L10.7232 12.6424M10.9523 12.4959L10.9055 12.4491L10.8105 12.3541L10.7234 12.4413L10.7234 12.5247L10.7234 12.5836L10.7234 12.6424M10.9523 12.4959L10.7234 12.6424M10.9523 12.4959L10.865 12.5835L10.782 12.6667M10.9523 12.4959L10.782 12.6667M10.7234 12.6424L10.782 12.6667M10.7234 12.6424L10.782 12.6667M10.7231 12.4416L10.7232 12.5248L10.7232 12.5836L10.7232 12.6424M10.7231 12.4416L10.7232 12.6424M10.8652 12.5835L10.7987 12.65L10.8651 12.5835L10.9524 12.496L10.7821 12.6667M10.8652 12.5835L10.7821 12.6667M10.8652 12.5835L10.9522 12.4966L10.8652 12.5835ZM10.7821 12.6667L10.8589 12.6985L10.7821 12.6667ZM11.0229 12.8496C11.0328 12.8255 11.0398 12.8005 11.0437 12.775C11.0495 12.7378 11.0487 12.6996 11.0413 12.6622L10.7235 12.7255L10.7233 12.7256V12.7256L11.0229 12.8496ZM11.0229 12.8496C11.0065 12.8891 10.9826 12.9248 10.9526 12.9547C10.9377 12.9697 10.9212 12.9833 10.9034 12.9951C10.864 13.0215 10.8194 13.0388 10.7729 13.046C10.7566 13.0485 10.74 13.0498 10.7233 13.0498M11.0229 12.8496L10.7233 12.7256L10.7233 12.7256L10.7233 12.7257L10.7233 12.9263L10.7233 13.0498M10.7233 13.0498C10.6736 13.0498 10.6252 13.0384 10.5814 13.0171C10.5494 13.0015 10.5199 12.9807 10.4943 12.9551L10.494 12.9548L10.5813 12.8675L10.6645 12.7843L10.7232 12.7256L10.7232 12.7256L10.6645 12.7845M10.7233 13.0498L10.7233 12.9261L10.7232 12.7257L10.6645 12.7845M10.6645 12.7845L10.5813 12.8679L10.6645 12.7845ZM10.7234 12.7255L10.7233 12.7254M10.7234 12.7255L10.7233 12.7254M10.7234 12.7255L10.7506 12.6982L10.7233 12.7254M10.7234 12.7255L10.7233 12.7254M10.5045 12.769L10.5519 12.6545M10.5045 12.769L10.5519 12.6545M10.7234 12.2921C10.7555 12.3077 10.7848 12.3285 10.8102 12.3538L10.7234 12.4407L10.7234 12.2921ZM10.772 12.6767L10.7233 12.7254L10.772 12.6767Z" stroke="#565656" stroke-width="6.91892"/>
<path d="M9.94346 14.4483C9.90711 14.4483 9.87138 14.4422 9.83765 14.4306L9.94346 10.9953C9.18526 11.0439 8.4678 11.3667 7.92735 11.9071L9.83765 13.8174C9.87138 13.8058 9.90711 13.7997 9.94346 13.7997H10.1442C10.1806 13.7997 10.2163 13.8058 10.25 13.8174C10.2961 13.8333 10.3384 13.8596 10.3736 13.8947C10.4344 13.9555 10.4685 14.038 10.4685 14.124C10.4685 14.21 10.4344 14.2925 10.3736 14.3533C10.3384 14.3885 10.2961 14.4147 10.25 14.4306C10.2163 14.4422 10.1806 14.4483 10.1442 14.4483H9.94346ZM9.83765 14.4306C9.79158 14.4147 9.74925 14.3885 9.71413 14.3533C9.65331 14.2925 9.61914 14.21 9.61914 14.124C9.61914 14.038 9.65331 13.9555 9.71413 13.8947C9.74925 13.8596 9.79158 13.8333 9.83765 13.8174L9.83765 14.4306Z" fill="#565656"/>
<path d="M9.94346 14.4483C9.90711 14.4483 9.87138 14.4422 9.83765 14.4306L9.94346 10.9953C9.18526 11.0439 8.4678 11.3667 7.92735 11.9071L9.83765 13.8174C9.87138 13.8058 9.90711 13.7997 9.94346 13.7997H10.1442C10.1806 13.7997 10.2163 13.8058 10.25 13.8174C10.2961 13.8333 10.3384 13.8596 10.3736 13.8947C10.4344 13.9555 10.4685 14.038 10.4685 14.124C10.4685 14.21 10.4344 14.2925 10.3736 14.3533C10.3384 14.3885 10.2961 14.4147 10.25 14.4306C10.2163 14.4422 10.1806 14.4483 10.1442 14.4483H9.94346ZM9.83765 14.4306C9.79158 14.4147 9.74925 14.3885 9.71413 14.3533C9.65331 14.2925 9.61914 14.21 9.61914 14.124C9.61914 14.038 9.65331 13.9555 9.71413 13.8947C9.74925 13.8596 9.79158 13.8333 9.83765 13.8174L9.83765 14.4306Z" stroke="#565656" stroke-width="6.91892"/>
<path d="M9.94346 14.4483C9.90711 14.4483 9.87138 14.4422 9.83765 14.4306L9.94346 10.9953C9.18526 11.0439 8.4678 11.3667 7.92735 11.9071L9.83765 13.8174C9.87138 13.8058 9.90711 13.7997 9.94346 13.7997H10.1442C10.1806 13.7997 10.2163 13.8058 10.25 13.8174C10.2961 13.8333 10.3384 13.8596 10.3736 13.8947C10.4344 13.9555 10.4685 14.038 10.4685 14.124C10.4685 14.21 10.4344 14.2925 10.3736 14.3533C10.3384 14.3885 10.2961 14.4147 10.25 14.4306C10.2163 14.4422 10.1806 14.4483 10.1442 14.4483H9.94346ZM9.83765 14.4306C9.79158 14.4147 9.74925 14.3885 9.71413 14.3533C9.65331 14.2925 9.61914 14.21 9.61914 14.124C9.61914 14.038 9.65331 13.9555 9.71413 13.8947C9.74925 13.8596 9.79158 13.8333 9.83765 13.8174L9.83765 14.4306Z" stroke="#565656" stroke-width="6.91892"/>
<path d="M10.5813 15.6647L10.5812 15.6648L10.5813 15.6647ZM10.5813 15.6647L10.5813 15.6646L10.5813 15.6647ZM10.9528 15.7521L10.9526 15.7523M10.9528 15.7521C10.9562 15.7485 10.9596 15.7449 10.9629 15.7411C11.0156 15.6814 11.0446 15.6041 11.044 15.5241C11.0438 15.5075 11.0424 15.4912 11.0398 15.475C11.0291 15.4082 10.9976 15.346 10.9491 15.2975C10.9247 15.273 10.8968 15.2529 10.8666 15.2375L10.7203 15.4565M10.9528 15.7521L10.9365 15.7358M10.9528 15.7521L10.9414 15.7412L10.9526 15.7523M10.9526 15.7523L10.9365 15.7358M10.9526 15.7523L10.936 15.7358L10.9365 15.7358M10.7203 15.4565L10.8666 15.2375C10.8224 15.2151 10.7732 15.2028 10.7227 15.2023C10.6734 15.2019 10.6251 15.2127 10.5813 15.2333C10.5811 15.2334 10.581 15.2335 10.5808 15.2335C10.5493 15.2485 10.5201 15.2685 10.4945 15.2932M10.7203 15.4565L10.6951 15.4943L10.5813 15.3802L10.5809 15.3799L10.4945 15.2932M10.7203 15.4565L10.6951 15.4943L10.7197 15.519L10.7235 15.5228L10.7273 15.5266L10.7785 15.5779L10.7823 15.5816L10.9365 15.7358M10.4945 15.2932L10.4942 15.2935L10.5121 15.3115L10.4945 15.2932ZM10.2631 15.6014C10.268 15.5767 10.2758 15.5528 10.2862 15.5301C10.3022 15.4951 10.3244 15.463 10.3519 15.4355C10.3519 15.4355 10.3519 15.4355 10.352 15.4354C10.352 15.4354 10.3521 15.4353 10.3521 15.4353L10.4865 15.3012L10.5809 15.3925L10.5813 15.3928L10.6916 15.4995L10.6732 15.527L10.6916 15.4995L10.7196 15.5267L10.7754 15.5845L10.9178 15.7321M10.2631 15.6014C10.2505 15.6643 10.2569 15.7296 10.2815 15.7889C10.2978 15.8284 10.3218 15.8641 10.3517 15.8941M10.2631 15.6014L10.5813 15.6648M10.2631 15.6014L10.5813 15.6648M10.3517 15.8941C10.3667 15.9091 10.3832 15.9227 10.401 15.9346M10.3517 15.8941L10.5811 15.6651M10.3517 15.8941L10.5811 15.6651M10.401 15.9346C10.4544 15.9703 10.5172 15.9893 10.5814 15.9892M10.401 15.9346L10.5811 15.6651M10.401 15.9346L10.5811 15.6651M10.5814 15.9892C10.6281 15.9892 10.6738 15.9791 10.7156 15.9601C10.7505 15.9443 10.7826 15.9222 10.8103 15.8946C10.8103 15.8946 10.8103 15.8946 10.8104 15.8946C10.8105 15.8944 10.8106 15.8943 10.8107 15.8942L10.9448 15.7601L10.9178 15.7321M10.5814 15.9892L10.5813 15.6651L10.5814 15.9892ZM10.9178 15.7321L10.7181 15.6922M10.9178 15.7321L10.7181 15.6922M10.5811 15.6651L10.5811 15.6651M10.5811 15.6651L10.5811 15.6651M10.5811 15.6651L10.5811 15.6651M10.5811 15.6651L10.5811 15.6651M10.5811 15.6651L10.5813 15.6648M10.5811 15.6651L10.5813 15.6648M10.5811 15.6651L10.5813 15.6648M10.5811 15.6651L10.5813 15.6648M10.5811 15.6651L10.5813 15.6648M10.5811 15.6651L10.5813 15.6648M10.7181 15.6922L10.5815 15.665M10.7181 15.6922L10.5815 15.665M10.5815 15.665L10.5814 15.6649L10.5815 15.665Z" fill="#565656"/>
<path d="M10.5813 15.6647L10.5812 15.6648L10.5813 15.6647ZM10.5813 15.6647L10.5813 15.6646L10.5813 15.6647ZM10.9528 15.7521L10.9526 15.7523M10.9528 15.7521C10.9562 15.7485 10.9596 15.7449 10.9629 15.7411C11.0156 15.6814 11.0446 15.6041 11.044 15.5241C11.0438 15.5075 11.0424 15.4912 11.0398 15.475C11.0291 15.4082 10.9976 15.346 10.9491 15.2975C10.9247 15.273 10.8968 15.2529 10.8666 15.2375L10.7203 15.4565M10.9528 15.7521L10.9365 15.7358M10.9528 15.7521L10.9414 15.7412L10.9526 15.7523M10.9526 15.7523L10.9365 15.7358M10.9526 15.7523L10.936 15.7358L10.9365 15.7358M10.7203 15.4565L10.8666 15.2375C10.8224 15.2151 10.7732 15.2028 10.7227 15.2023C10.6734 15.2019 10.6251 15.2127 10.5813 15.2333C10.5811 15.2334 10.581 15.2335 10.5808 15.2335C10.5493 15.2485 10.5201 15.2685 10.4945 15.2932M10.7203 15.4565L10.6951 15.4943L10.5813 15.3802L10.5809 15.3799L10.4945 15.2932M10.7203 15.4565L10.6951 15.4943L10.7197 15.519L10.7235 15.5228L10.7273 15.5266L10.7785 15.5779L10.7823 15.5816L10.9365 15.7358M10.4945 15.2932L10.4942 15.2935L10.5121 15.3115L10.4945 15.2932ZM10.2631 15.6014C10.268 15.5767 10.2758 15.5528 10.2862 15.5301C10.3022 15.4951 10.3244 15.463 10.3519 15.4355C10.3519 15.4355 10.3519 15.4355 10.352 15.4354C10.352 15.4354 10.3521 15.4353 10.3521 15.4353L10.4865 15.3012L10.5809 15.3925L10.5813 15.3928L10.6916 15.4995L10.6732 15.527L10.6916 15.4995L10.7196 15.5267L10.7754 15.5845L10.9178 15.7321M10.2631 15.6014C10.2505 15.6643 10.2569 15.7296 10.2815 15.7889C10.2978 15.8284 10.3218 15.8641 10.3517 15.8941M10.2631 15.6014L10.5813 15.6648M10.2631 15.6014L10.5813 15.6648M10.3517 15.8941C10.3667 15.9091 10.3832 15.9227 10.401 15.9346M10.3517 15.8941L10.5811 15.6651M10.3517 15.8941L10.5811 15.6651M10.401 15.9346C10.4544 15.9703 10.5172 15.9893 10.5814 15.9892M10.401 15.9346L10.5811 15.6651M10.401 15.9346L10.5811 15.6651M10.5814 15.9892C10.6281 15.9892 10.6738 15.9791 10.7156 15.9601C10.7505 15.9443 10.7826 15.9222 10.8103 15.8946C10.8103 15.8946 10.8103 15.8946 10.8104 15.8946C10.8105 15.8944 10.8106 15.8943 10.8107 15.8942L10.9448 15.7601L10.9178 15.7321M10.5814 15.9892L10.5813 15.6651L10.5814 15.9892ZM10.9178 15.7321L10.7181 15.6922M10.9178 15.7321L10.7181 15.6922M10.5811 15.6651L10.5811 15.6651M10.5811 15.6651L10.5811 15.6651M10.5811 15.6651L10.5811 15.6651M10.5811 15.6651L10.5811 15.6651M10.5811 15.6651L10.5813 15.6648M10.5811 15.6651L10.5813 15.6648M10.5811 15.6651L10.5813 15.6648M10.5811 15.6651L10.5813 15.6648M10.5811 15.6651L10.5813 15.6648M10.5811 15.6651L10.5813 15.6648M10.7181 15.6922L10.5815 15.665M10.7181 15.6922L10.5815 15.665M10.5815 15.665L10.5814 15.6649L10.5815 15.665Z" stroke="#565656" stroke-width="6.91892"/>
<path d="M10.5813 15.6647L10.5812 15.6648L10.5813 15.6647ZM10.5813 15.6647L10.5813 15.6646L10.5813 15.6647ZM10.9528 15.7521L10.9526 15.7523M10.9528 15.7521C10.9562 15.7485 10.9596 15.7449 10.9629 15.7411C11.0156 15.6814 11.0446 15.6041 11.044 15.5241C11.0438 15.5075 11.0424 15.4912 11.0398 15.475C11.0291 15.4082 10.9976 15.346 10.9491 15.2975C10.9247 15.273 10.8968 15.2529 10.8666 15.2375L10.7203 15.4565M10.9528 15.7521L10.9365 15.7358M10.9528 15.7521L10.9414 15.7412L10.9526 15.7523M10.9526 15.7523L10.9365 15.7358M10.9526 15.7523L10.936 15.7358L10.9365 15.7358M10.7203 15.4565L10.8666 15.2375C10.8224 15.2151 10.7732 15.2028 10.7227 15.2023C10.6734 15.2019 10.6251 15.2127 10.5813 15.2333C10.5811 15.2334 10.581 15.2335 10.5808 15.2335C10.5493 15.2485 10.5201 15.2685 10.4945 15.2932M10.7203 15.4565L10.6951 15.4943L10.5813 15.3802L10.5809 15.3799L10.4945 15.2932M10.7203 15.4565L10.6951 15.4943L10.7197 15.519L10.7235 15.5228L10.7273 15.5266L10.7785 15.5779L10.7823 15.5816L10.9365 15.7358M10.4945 15.2932L10.4942 15.2935L10.5121 15.3115L10.4945 15.2932ZM10.2631 15.6014C10.268 15.5767 10.2758 15.5528 10.2862 15.5301C10.3022 15.4951 10.3244 15.463 10.3519 15.4355C10.3519 15.4355 10.3519 15.4355 10.352 15.4354C10.352 15.4354 10.3521 15.4353 10.3521 15.4353L10.4865 15.3012L10.5809 15.3925L10.5813 15.3928L10.6916 15.4995L10.6732 15.527L10.6916 15.4995L10.7196 15.5267L10.7754 15.5845L10.9178 15.7321M10.2631 15.6014C10.2505 15.6643 10.2569 15.7296 10.2815 15.7889C10.2978 15.8284 10.3218 15.8641 10.3517 15.8941M10.2631 15.6014L10.5813 15.6648M10.2631 15.6014L10.5813 15.6648M10.3517 15.8941C10.3667 15.9091 10.3832 15.9227 10.401 15.9346M10.3517 15.8941L10.5811 15.6651M10.3517 15.8941L10.5811 15.6651M10.401 15.9346C10.4544 15.9703 10.5172 15.9893 10.5814 15.9892M10.401 15.9346L10.5811 15.6651M10.401 15.9346L10.5811 15.6651M10.5814 15.9892C10.6281 15.9892 10.6738 15.9791 10.7156 15.9601C10.7505 15.9443 10.7826 15.9222 10.8103 15.8946C10.8103 15.8946 10.8103 15.8946 10.8104 15.8946C10.8105 15.8944 10.8106 15.8943 10.8107 15.8942L10.9448 15.7601L10.9178 15.7321M10.5814 15.9892L10.5813 15.6651L10.5814 15.9892ZM10.9178 15.7321L10.7181 15.6922M10.9178 15.7321L10.7181 15.6922M10.5811 15.6651L10.5811 15.6651M10.5811 15.6651L10.5811 15.6651M10.5811 15.6651L10.5811 15.6651M10.5811 15.6651L10.5811 15.6651M10.5811 15.6651L10.5813 15.6648M10.5811 15.6651L10.5813 15.6648M10.5811 15.6651L10.5813 15.6648M10.5811 15.6651L10.5813 15.6648M10.5811 15.6651L10.5813 15.6648M10.5811 15.6651L10.5813 15.6648M10.7181 15.6922L10.5815 15.665M10.7181 15.6922L10.5815 15.665M10.5815 15.665L10.5814 15.6649L10.5815 15.665Z" stroke="#565656" stroke-width="6.91892"/>
<path d="M12.1212 16.6271C12.0352 16.6271 11.9527 16.593 11.8919 16.5321C11.8567 16.497 11.8304 16.4545 11.8145 16.4084C11.803 16.3747 11.7969 16.3391 11.7969 16.3028V16.1017C11.7969 16.0655 11.803 16.0298 11.8145 15.9962C11.8304 15.95 11.8567 15.9076 11.8919 15.8724C11.9527 15.8116 12.0352 15.7774 12.1212 15.7774C12.2072 15.7774 12.2897 15.8116 12.3505 15.8724C12.3857 15.9076 12.412 15.95 12.4279 15.9962C12.4394 16.0298 12.4455 16.0655 12.4455 16.1017V16.3028C12.4455 16.3391 12.4394 16.3747 12.4279 16.4084C12.412 16.4545 12.3857 16.497 12.3505 16.5321C12.2897 16.593 12.2072 16.6271 12.1212 16.6271Z" fill="#565656"/>
<path d="M12.1212 16.6271C12.0352 16.6271 11.9527 16.593 11.8919 16.5321C11.8567 16.497 11.8304 16.4545 11.8145 16.4084C11.803 16.3747 11.7969 16.3391 11.7969 16.3028V16.1017C11.7969 16.0655 11.803 16.0298 11.8145 15.9962C11.8304 15.95 11.8567 15.9076 11.8919 15.8724C11.9527 15.8116 12.0352 15.7774 12.1212 15.7774C12.2072 15.7774 12.2897 15.8116 12.3505 15.8724C12.3857 15.9076 12.412 15.95 12.4279 15.9962C12.4394 16.0298 12.4455 16.0655 12.4455 16.1017V16.3028C12.4455 16.3391 12.4394 16.3747 12.4279 16.4084C12.412 16.4545 12.3857 16.497 12.3505 16.5321C12.2897 16.593 12.2072 16.6271 12.1212 16.6271Z" stroke="#565656" stroke-width="6.91892"/>
<path d="M12.1212 16.6271C12.0352 16.6271 11.9527 16.593 11.8919 16.5321C11.8567 16.497 11.8304 16.4545 11.8145 16.4084C11.803 16.3747 11.7969 16.3391 11.7969 16.3028V16.1017C11.7969 16.0655 11.803 16.0298 11.8145 15.9962C11.8304 15.95 11.8567 15.9076 11.8919 15.8724C11.9527 15.8116 12.0352 15.7774 12.1212 15.7774C12.2072 15.7774 12.2897 15.8116 12.3505 15.8724C12.3857 15.9076 12.412 15.95 12.4279 15.9962C12.4394 16.0298 12.4455 16.0655 12.4455 16.1017V16.3028C12.4455 16.3391 12.4394 16.3747 12.4279 16.4084C12.412 16.4545 12.3857 16.497 12.3505 16.5321C12.2897 16.593 12.2072 16.6271 12.1212 16.6271Z" stroke="#565656" stroke-width="6.91892"/>
<mask id="path-18-inside-5_318_386" fill="white">
<path d="M13.6619 15.9892C13.5759 15.9892 13.4934 15.955 13.4326 15.8942L13.2906 15.7521C13.2596 15.7222 13.2349 15.6864 13.2178 15.6469C13.2008 15.6073 13.1918 15.5648 13.1914 15.5217C13.191 15.4786 13.1992 15.4359 13.2155 15.3961C13.2317 15.3562 13.2558 15.32 13.2862 15.2895C13.3167 15.259 13.3529 15.2349 13.3927 15.2186C13.4326 15.2022 13.4753 15.194 13.5183 15.1943C13.5614 15.1947 13.6039 15.2036 13.6435 15.2206C13.6831 15.2375 13.7189 15.2622 13.7489 15.2932L13.8912 15.4352C13.9367 15.4806 13.9677 15.5384 13.9802 15.6013C13.9928 15.6643 13.9864 15.7296 13.9619 15.7889C13.9373 15.8482 13.8957 15.8989 13.8423 15.9346C13.7889 15.9702 13.7261 15.9892 13.6619 15.9892Z"/>
</mask>
<path d="M13.6619 15.9892C13.5759 15.9892 13.4934 15.955 13.4326 15.8942L13.2906 15.7521C13.2596 15.7222 13.2349 15.6864 13.2178 15.6469C13.2008 15.6073 13.1918 15.5648 13.1914 15.5217C13.191 15.4786 13.1992 15.4359 13.2155 15.3961C13.2317 15.3562 13.2558 15.32 13.2862 15.2895C13.3167 15.259 13.3529 15.2349 13.3927 15.2186C13.4326 15.2022 13.4753 15.194 13.5183 15.1943C13.5614 15.1947 13.6039 15.2036 13.6435 15.2206C13.6831 15.2375 13.7189 15.2622 13.7489 15.2932L13.8912 15.4352C13.9367 15.4806 13.9677 15.5384 13.9802 15.6013C13.9928 15.6643 13.9864 15.7296 13.9619 15.7889C13.9373 15.8482 13.8957 15.8989 13.8423 15.9346C13.7889 15.9702 13.7261 15.9892 13.6619 15.9892Z" fill="#565656"/>
<path d="M13.6619 15.9892L13.6674 9.07026L13.6634 9.07026L13.6619 15.9892ZM13.4326 15.8942L18.3258 11.0025L18.325 11.0017L13.4326 15.8942ZM13.2906 15.7521L18.183 10.8597L18.1388 10.8155L18.0938 10.7721L13.2906 15.7521ZM13.7489 15.2932L8.77562 20.1034L8.81843 20.1477L8.86201 20.1912L13.7489 15.2932ZM13.8912 15.4352L9.00439 20.3332L9.005 20.3338L13.8912 15.4352ZM13.6634 9.07026C15.4122 9.07063 17.0893 9.76565 18.3258 11.0025L8.53948 20.7858C9.89755 22.1443 11.7396 22.9077 13.6605 22.9081L13.6634 9.07026ZM18.325 11.0017L18.183 10.8597L8.39817 20.6445L8.54022 20.7866L18.325 11.0017ZM18.0938 10.7721C18.7241 11.38 19.227 12.1073 19.5731 12.9116L6.86253 18.3821C7.24275 19.2656 7.79509 20.0644 8.48737 20.7321L18.0938 10.7721ZM19.5731 12.9116C19.9193 13.716 20.1018 14.5812 20.11 15.4567L6.27281 15.5867C6.28184 16.5484 6.4823 17.4987 6.86253 18.3821L19.5731 12.9116ZM20.11 15.4567C20.1183 16.3323 19.952 17.2007 19.621 18.0115L6.80994 12.7806C6.44634 13.6711 6.26378 14.625 6.27281 15.5867L20.11 15.4567ZM19.621 18.0115C19.29 18.8222 18.8008 19.5589 18.1821 20.1784L8.39036 10.4005C7.71079 11.0811 7.17352 11.8902 6.80994 12.7806L19.621 18.0115ZM18.1821 20.1784C17.5634 20.7981 16.8274 21.2883 16.0172 21.6204L10.7682 8.81675C9.87831 9.18157 9.06997 9.71996 8.39036 10.4005L18.1821 20.1784ZM16.0172 21.6204C15.207 21.9526 14.3387 22.12 13.4631 22.113L13.5735 8.27565C12.6118 8.26798 11.6581 8.45191 10.7682 8.81675L16.0172 21.6204ZM13.4631 22.113C12.5875 22.1061 11.722 21.9248 10.9172 21.5797L16.3698 8.86142C15.4858 8.48245 14.5353 8.28332 13.5735 8.27565L13.4631 22.113ZM10.9172 21.5797C10.1125 21.2347 9.38445 20.7329 8.77562 20.1034L18.7221 10.4829C18.0534 9.79158 17.2537 9.24037 16.3698 8.86142L10.9172 21.5797ZM8.86201 20.1912L9.00439 20.3332L18.7781 10.5372L18.6357 10.3952L8.86201 20.1912ZM9.005 20.3338C8.08074 19.4119 7.45091 18.2364 7.19527 16.9563L20.7652 14.2464C20.4844 12.8404 19.7926 11.5492 18.7775 10.5366L9.005 20.3338ZM7.19527 16.9563C6.93964 15.6761 7.06969 14.3489 7.56897 13.1427L20.3547 18.4351C20.9031 17.1103 21.046 15.6525 20.7652 14.2464L7.19527 16.9563ZM7.56897 13.1427C8.06827 11.9364 8.91433 10.9056 9.99993 10.1806L17.6847 21.6885C18.8771 20.8922 19.8063 19.76 20.3547 18.4351L7.56897 13.1427ZM9.99993 10.1806C11.0856 9.45567 12.362 9.06923 13.6674 9.07026L13.6565 22.9081C15.0903 22.9092 16.4922 22.4848 17.6847 21.6885L9.99993 10.1806Z" fill="#565656" mask="url(#path-18-inside-5_318_386)"/>
<path d="M13.6619 15.9892L13.6674 9.07026L13.6634 9.07026L13.6619 15.9892ZM13.4326 15.8942L18.3258 11.0025L18.325 11.0017L13.4326 15.8942ZM13.2906 15.7521L18.183 10.8597L18.1388 10.8155L18.0938 10.7721L13.2906 15.7521ZM13.7489 15.2932L8.77562 20.1034L8.81843 20.1477L8.86201 20.1912L13.7489 15.2932ZM13.8912 15.4352L9.00439 20.3332L9.005 20.3338L13.8912 15.4352ZM13.6634 9.07026C15.4122 9.07063 17.0893 9.76565 18.3258 11.0025L8.53948 20.7858C9.89755 22.1443 11.7396 22.9077 13.6605 22.9081L13.6634 9.07026ZM18.325 11.0017L18.183 10.8597L8.39817 20.6445L8.54022 20.7866L18.325 11.0017ZM18.0938 10.7721C18.7241 11.38 19.227 12.1073 19.5731 12.9116L6.86253 18.3821C7.24275 19.2656 7.79509 20.0644 8.48737 20.7321L18.0938 10.7721ZM19.5731 12.9116C19.9193 13.716 20.1018 14.5812 20.11 15.4567L6.27281 15.5867C6.28184 16.5484 6.4823 17.4987 6.86253 18.3821L19.5731 12.9116ZM20.11 15.4567C20.1183 16.3323 19.952 17.2007 19.621 18.0115L6.80994 12.7806C6.44634 13.6711 6.26378 14.625 6.27281 15.5867L20.11 15.4567ZM19.621 18.0115C19.29 18.8222 18.8008 19.5589 18.1821 20.1784L8.39036 10.4005C7.71079 11.0811 7.17352 11.8902 6.80994 12.7806L19.621 18.0115ZM18.1821 20.1784C17.5634 20.7981 16.8274 21.2883 16.0172 21.6204L10.7682 8.81675C9.87831 9.18157 9.06997 9.71996 8.39036 10.4005L18.1821 20.1784ZM16.0172 21.6204C15.207 21.9526 14.3387 22.12 13.4631 22.113L13.5735 8.27565C12.6118 8.26798 11.6581 8.45191 10.7682 8.81675L16.0172 21.6204ZM13.4631 22.113C12.5875 22.1061 11.722 21.9248 10.9172 21.5797L16.3698 8.86142C15.4858 8.48245 14.5353 8.28332 13.5735 8.27565L13.4631 22.113ZM10.9172 21.5797C10.1125 21.2347 9.38445 20.7329 8.77562 20.1034L18.7221 10.4829C18.0534 9.79158 17.2537 9.24037 16.3698 8.86142L10.9172 21.5797ZM8.86201 20.1912L9.00439 20.3332L18.7781 10.5372L18.6357 10.3952L8.86201 20.1912ZM9.005 20.3338C8.08074 19.4119 7.45091 18.2364 7.19527 16.9563L20.7652 14.2464C20.4844 12.8404 19.7926 11.5492 18.7775 10.5366L9.005 20.3338ZM7.19527 16.9563C6.93964 15.6761 7.06969 14.3489 7.56897 13.1427L20.3547 18.4351C20.9031 17.1103 21.046 15.6525 20.7652 14.2464L7.19527 16.9563ZM7.56897 13.1427C8.06827 11.9364 8.91433 10.9056 9.99993 10.1806L17.6847 21.6885C18.8771 20.8922 19.8063 19.76 20.3547 18.4351L7.56897 13.1427ZM9.99993 10.1806C11.0856 9.45567 12.362 9.06923 13.6674 9.07026L13.6565 22.9081C15.0903 22.9092 16.4922 22.4848 17.6847 21.6885L9.99993 10.1806Z" fill="#565656" mask="url(#path-18-inside-5_318_386)"/>
<path d="M14.0997 14.4483C14.0634 14.4483 14.0276 14.4422 13.9939 14.4306C13.9478 14.4147 13.9055 14.3885 13.8704 14.3533C13.8096 14.2925 13.7754 14.21 13.7754 14.124C13.7754 14.038 13.8096 13.9555 13.8704 13.8947C13.9055 13.8596 13.9478 13.8333 13.9939 13.8174C14.0276 13.8058 14.0634 13.7997 14.0997 13.7997H14.3005C14.3368 13.7997 14.3726 13.8058 14.4063 13.8174C14.4524 13.8333 14.4947 13.8596 14.5298 13.8947C14.5906 13.9555 14.6248 14.038 14.6248 14.124C14.6248 14.21 14.5906 14.2925 14.5298 14.3533C14.4947 14.3885 14.4524 14.4147 14.4063 14.4306C14.3726 14.4422 14.3368 14.4483 14.3005 14.4483H14.0997Z" fill="#565656"/>
<path d="M14.0997 14.4483C14.0634 14.4483 14.0276 14.4422 13.9939 14.4306C13.9478 14.4147 13.9055 14.3885 13.8704 14.3533C13.8096 14.2925 13.7754 14.21 13.7754 14.124C13.7754 14.038 13.8096 13.9555 13.8704 13.8947C13.9055 13.8596 13.9478 13.8333 13.9939 13.8174C14.0276 13.8058 14.0634 13.7997 14.0997 13.7997H14.3005C14.3368 13.7997 14.3726 13.8058 14.4063 13.8174C14.4524 13.8333 14.4947 13.8596 14.5298 13.8947C14.5906 13.9555 14.6248 14.038 14.6248 14.124C14.6248 14.21 14.5906 14.2925 14.5298 14.3533C14.4947 14.3885 14.4524 14.4147 14.4063 14.4306C14.3726 14.4422 14.3368 14.4483 14.3005 14.4483H14.0997Z" stroke="#565656" stroke-width="6.91892"/>
<path d="M14.0997 14.4483C14.0634 14.4483 14.0276 14.4422 13.9939 14.4306C13.9478 14.4147 13.9055 14.3885 13.8704 14.3533C13.8096 14.2925 13.7754 14.21 13.7754 14.124C13.7754 14.038 13.8096 13.9555 13.8704 13.8947C13.9055 13.8596 13.9478 13.8333 13.9939 13.8174C14.0276 13.8058 14.0634 13.7997 14.0997 13.7997H14.3005C14.3368 13.7997 14.3726 13.8058 14.4063 13.8174C14.4524 13.8333 14.4947 13.8596 14.5298 13.8947C14.5906 13.9555 14.6248 14.038 14.6248 14.124C14.6248 14.21 14.5906 14.2925 14.5298 14.3533C14.4947 14.3885 14.4524 14.4147 14.4063 14.4306C14.3726 14.4422 14.3368 14.4483 14.3005 14.4483H14.0997Z" stroke="#565656" stroke-width="6.91892"/>
<path d="M13.5207 12.4416L13.5207 12.5248L13.5206 12.5836V12.5836L13.5206 12.6424M13.5207 12.4416L13.5206 12.6424M13.5207 12.4416L13.6343 12.5553L13.6626 12.5836M13.5207 12.4416L13.5206 12.6424M13.5206 12.6424L13.5206 12.7255M13.6626 12.5836L13.5206 12.7255M13.6626 12.5836L13.5206 12.7255M13.6626 12.5836L13.7213 12.6424L13.8322 12.7534L13.8748 12.7959L13.8919 12.8131L13.7968 12.9079L13.7499 12.9547L13.6625 12.8673L13.5794 12.7843L13.5206 12.7255M13.6626 12.5836L13.6627 12.5835L13.6627 12.5835L13.6626 12.5836ZM13.5206 12.7255L13.5206 12.7255M13.5206 12.7255L13.5206 12.7255L13.5206 12.7255M13.8921 12.3543C13.9222 12.3844 13.9461 12.4202 13.9623 12.4596C13.9722 12.4835 13.9792 12.5085 13.9832 12.5339C13.9857 12.5504 13.987 12.567 13.987 12.5837C13.987 12.6263 13.9786 12.6685 13.9623 12.7079C13.948 12.7423 13.9279 12.774 13.9029 12.8015C13.8994 12.8054 13.8958 12.8092 13.8921 12.8129L13.8752 12.796L13.7499 12.6707L13.7215 12.6423L13.6632 12.5839L13.663 12.5836L13.663 12.5836L13.6629 12.5835L13.6628 12.5834L13.8921 12.3543ZM13.8921 12.3543C13.8677 12.3299 13.8396 12.3096 13.8089 12.2941C13.8017 12.2904 13.7943 12.2871 13.7868 12.284C13.7475 12.2676 13.7053 12.2592 13.6627 12.2592C13.6201 12.2592 13.5779 12.2676 13.5386 12.2839C13.5325 12.2864 13.5266 12.289 13.5207 12.2919L13.5207 12.441L13.6345 12.5551L13.6623 12.583L13.6626 12.5832L13.6627 12.5834L13.6628 12.5834L13.8921 12.3543ZM13.5205 13.0498L13.5206 12.9261L13.5206 12.7257L13.5793 12.7845L13.6625 12.8679L13.5793 12.7845L13.5206 12.7256L13.5206 12.7256L13.5794 12.7843L13.6625 12.8675L13.7498 12.9548L13.7495 12.9551C13.7239 12.9807 13.6944 13.0015 13.6624 13.0171C13.6186 13.0384 13.5702 13.0498 13.5205 13.0498ZM13.5205 13.0498L13.5205 12.9263L13.5205 12.7257L13.5205 12.7256L13.2912 12.9547C13.3062 12.9697 13.3226 12.9833 13.3404 12.9951C13.3798 13.0215 13.4244 13.0388 13.4709 13.046C13.4872 13.0485 13.5038 13.0498 13.5205 13.0498ZM13.2912 12.4962L13.3786 12.5835L13.3786 12.5835L13.4451 12.65L13.3788 12.5835L13.3788 12.5835L13.2914 12.496L13.2912 12.4962ZM13.2912 12.4962L13.3786 12.5835L13.3786 12.5835L13.4618 12.6667M13.2912 12.4962C13.2657 12.5218 13.2447 12.5513 13.229 12.5835C13.229 12.5835 13.229 12.5835 13.229 12.5835C13.2169 12.6083 13.208 12.6348 13.2025 12.6622C13.1951 12.6996 13.1943 12.7378 13.2001 12.775C13.204 12.8005 13.211 12.8255 13.221 12.8496C13.2373 12.8891 13.2613 12.9248 13.2912 12.9547L13.5205 12.7256L13.5205 12.7256V12.7256L13.5204 12.7255L13.4655 12.6705L13.5205 12.6424M13.4618 12.6667L13.3788 12.5835L13.3788 12.5835L13.2915 12.4959L13.3849 12.6985L13.4618 12.6667ZM13.4618 12.6667L13.5205 12.6424M13.4618 12.6667L13.5205 12.6424M13.4618 12.6667L13.5205 12.6424M13.5205 12.6424L13.5205 12.7254M13.5205 12.6424L13.5205 12.7254M13.5205 12.6424L13.5204 12.5836V12.5836L13.5204 12.5247L13.5204 12.4413L13.4333 12.3541L13.5204 12.4413L13.5205 12.6424ZM13.5205 12.7254L13.4718 12.6767L13.5205 12.7254ZM13.4337 12.3538C13.459 12.3285 13.4883 12.3077 13.5204 12.2921L13.5204 12.4407L13.4337 12.3538ZM13.5204 12.7255L13.4934 12.6983L13.5205 12.7254V12.7255V12.7255L13.5204 12.7255Z" fill="#565656"/>
<path d="M13.5207 12.4416L13.5207 12.5248L13.5206 12.5836V12.5836L13.5206 12.6424M13.5207 12.4416L13.5206 12.6424M13.5207 12.4416L13.6343 12.5553L13.6626 12.5836M13.5207 12.4416L13.5206 12.6424M13.5206 12.6424L13.5206 12.7255M13.6626 12.5836L13.5206 12.7255M13.6626 12.5836L13.5206 12.7255M13.6626 12.5836L13.7213 12.6424L13.8322 12.7534L13.8748 12.7959L13.8919 12.8131L13.7968 12.9079L13.7499 12.9547L13.6625 12.8673L13.5794 12.7843L13.5206 12.7255M13.6626 12.5836L13.6627 12.5835L13.6627 12.5835L13.6626 12.5836ZM13.5206 12.7255L13.5206 12.7255M13.5206 12.7255L13.5206 12.7255L13.5206 12.7255M13.8921 12.3543C13.9222 12.3844 13.9461 12.4202 13.9623 12.4596C13.9722 12.4835 13.9792 12.5085 13.9832 12.5339C13.9857 12.5504 13.987 12.567 13.987 12.5837C13.987 12.6263 13.9786 12.6685 13.9623 12.7079C13.948 12.7423 13.9279 12.774 13.9029 12.8015C13.8994 12.8054 13.8958 12.8092 13.8921 12.8129L13.8752 12.796L13.7499 12.6707L13.7215 12.6423L13.6632 12.5839L13.663 12.5836L13.663 12.5836L13.6629 12.5835L13.6628 12.5834L13.8921 12.3543ZM13.8921 12.3543C13.8677 12.3299 13.8396 12.3096 13.8089 12.2941C13.8017 12.2904 13.7943 12.2871 13.7868 12.284C13.7475 12.2676 13.7053 12.2592 13.6627 12.2592C13.6201 12.2592 13.5779 12.2676 13.5386 12.2839C13.5325 12.2864 13.5266 12.289 13.5207 12.2919L13.5207 12.441L13.6345 12.5551L13.6623 12.583L13.6626 12.5832L13.6627 12.5834L13.6628 12.5834L13.8921 12.3543ZM13.5205 13.0498L13.5206 12.9261L13.5206 12.7257L13.5793 12.7845L13.6625 12.8679L13.5793 12.7845L13.5206 12.7256L13.5206 12.7256L13.5794 12.7843L13.6625 12.8675L13.7498 12.9548L13.7495 12.9551C13.7239 12.9807 13.6944 13.0015 13.6624 13.0171C13.6186 13.0384 13.5702 13.0498 13.5205 13.0498ZM13.5205 13.0498L13.5205 12.9263L13.5205 12.7257L13.5205 12.7256L13.2912 12.9547C13.3062 12.9697 13.3226 12.9833 13.3404 12.9951C13.3798 13.0215 13.4244 13.0388 13.4709 13.046C13.4872 13.0485 13.5038 13.0498 13.5205 13.0498ZM13.2912 12.4962L13.3786 12.5835L13.3786 12.5835L13.4451 12.65L13.3788 12.5835L13.3788 12.5835L13.2914 12.496L13.2912 12.4962ZM13.2912 12.4962L13.3786 12.5835L13.3786 12.5835L13.4618 12.6667M13.2912 12.4962C13.2657 12.5218 13.2447 12.5513 13.229 12.5835C13.229 12.5835 13.229 12.5835 13.229 12.5835C13.2169 12.6083 13.208 12.6348 13.2025 12.6622C13.1951 12.6996 13.1943 12.7378 13.2001 12.775C13.204 12.8005 13.211 12.8255 13.221 12.8496C13.2373 12.8891 13.2613 12.9248 13.2912 12.9547L13.5205 12.7256L13.5205 12.7256V12.7256L13.5204 12.7255L13.4655 12.6705L13.5205 12.6424M13.4618 12.6667L13.3788 12.5835L13.3788 12.5835L13.2915 12.4959L13.3849 12.6985L13.4618 12.6667ZM13.4618 12.6667L13.5205 12.6424M13.4618 12.6667L13.5205 12.6424M13.4618 12.6667L13.5205 12.6424M13.5205 12.6424L13.5205 12.7254M13.5205 12.6424L13.5205 12.7254M13.5205 12.6424L13.5204 12.5836V12.5836L13.5204 12.5247L13.5204 12.4413L13.4333 12.3541L13.5204 12.4413L13.5205 12.6424ZM13.5205 12.7254L13.4718 12.6767L13.5205 12.7254ZM13.4337 12.3538C13.459 12.3285 13.4883 12.3077 13.5204 12.2921L13.5204 12.4407L13.4337 12.3538ZM13.5204 12.7255L13.4934 12.6983L13.5205 12.7254V12.7255V12.7255L13.5204 12.7255Z" stroke="#565656" stroke-width="6.91892"/>
<path d="M13.5207 12.4416L13.5207 12.5248L13.5206 12.5836V12.5836L13.5206 12.6424M13.5207 12.4416L13.5206 12.6424M13.5207 12.4416L13.6343 12.5553L13.6626 12.5836M13.5207 12.4416L13.5206 12.6424M13.5206 12.6424L13.5206 12.7255M13.6626 12.5836L13.5206 12.7255M13.6626 12.5836L13.5206 12.7255M13.6626 12.5836L13.7213 12.6424L13.8322 12.7534L13.8748 12.7959L13.8919 12.8131L13.7968 12.9079L13.7499 12.9547L13.6625 12.8673L13.5794 12.7843L13.5206 12.7255M13.6626 12.5836L13.6627 12.5835L13.6627 12.5835L13.6626 12.5836ZM13.5206 12.7255L13.5206 12.7255M13.5206 12.7255L13.5206 12.7255L13.5206 12.7255M13.8921 12.3543C13.9222 12.3844 13.9461 12.4202 13.9623 12.4596C13.9722 12.4835 13.9792 12.5085 13.9832 12.5339C13.9857 12.5504 13.987 12.567 13.987 12.5837C13.987 12.6263 13.9786 12.6685 13.9623 12.7079C13.948 12.7423 13.9279 12.774 13.9029 12.8015C13.8994 12.8054 13.8958 12.8092 13.8921 12.8129L13.8752 12.796L13.7499 12.6707L13.7215 12.6423L13.6632 12.5839L13.663 12.5836L13.663 12.5836L13.6629 12.5835L13.6628 12.5834L13.8921 12.3543ZM13.8921 12.3543C13.8677 12.3299 13.8396 12.3096 13.8089 12.2941C13.8017 12.2904 13.7943 12.2871 13.7868 12.284C13.7475 12.2676 13.7053 12.2592 13.6627 12.2592C13.6201 12.2592 13.5779 12.2676 13.5386 12.2839C13.5325 12.2864 13.5266 12.289 13.5207 12.2919L13.5207 12.441L13.6345 12.5551L13.6623 12.583L13.6626 12.5832L13.6627 12.5834L13.6628 12.5834L13.8921 12.3543ZM13.5205 13.0498L13.5206 12.9261L13.5206 12.7257L13.5793 12.7845L13.6625 12.8679L13.5793 12.7845L13.5206 12.7256L13.5206 12.7256L13.5794 12.7843L13.6625 12.8675L13.7498 12.9548L13.7495 12.9551C13.7239 12.9807 13.6944 13.0015 13.6624 13.0171C13.6186 13.0384 13.5702 13.0498 13.5205 13.0498ZM13.5205 13.0498L13.5205 12.9263L13.5205 12.7257L13.5205 12.7256L13.2912 12.9547C13.3062 12.9697 13.3226 12.9833 13.3404 12.9951C13.3798 13.0215 13.4244 13.0388 13.4709 13.046C13.4872 13.0485 13.5038 13.0498 13.5205 13.0498ZM13.2912 12.4962L13.3786 12.5835L13.3786 12.5835L13.4451 12.65L13.3788 12.5835L13.3788 12.5835L13.2914 12.496L13.2912 12.4962ZM13.2912 12.4962L13.3786 12.5835L13.3786 12.5835L13.4618 12.6667M13.2912 12.4962C13.2657 12.5218 13.2447 12.5513 13.229 12.5835C13.229 12.5835 13.229 12.5835 13.229 12.5835C13.2169 12.6083 13.208 12.6348 13.2025 12.6622C13.1951 12.6996 13.1943 12.7378 13.2001 12.775C13.204 12.8005 13.211 12.8255 13.221 12.8496C13.2373 12.8891 13.2613 12.9248 13.2912 12.9547L13.5205 12.7256L13.5205 12.7256V12.7256L13.5204 12.7255L13.4655 12.6705L13.5205 12.6424M13.4618 12.6667L13.3788 12.5835L13.3788 12.5835L13.2915 12.4959L13.3849 12.6985L13.4618 12.6667ZM13.4618 12.6667L13.5205 12.6424M13.4618 12.6667L13.5205 12.6424M13.4618 12.6667L13.5205 12.6424M13.5205 12.6424L13.5205 12.7254M13.5205 12.6424L13.5205 12.7254M13.5205 12.6424L13.5204 12.5836V12.5836L13.5204 12.5247L13.5204 12.4413L13.4333 12.3541L13.5204 12.4413L13.5205 12.6424ZM13.5205 12.7254L13.4718 12.6767L13.5205 12.7254ZM13.4337 12.3538C13.459 12.3285 13.4883 12.3077 13.5204 12.2921L13.5204 12.4407L13.4337 12.3538ZM13.5204 12.7255L13.4934 12.6983L13.5205 12.7254V12.7255V12.7255L13.5204 12.7255Z" stroke="#565656" stroke-width="6.91892"/>
</svg>
