<svg width="185" height="136" viewBox="0 0 185 136" fill="none" xmlns="http://www.w3.org/2000/svg">
<g clip-path="url(#clip0_1948_252)">
<path d="M178.656 67.6032H170.797L167.491 61.8582H159.072L155.766 67.6032H58.2273C51.1815 67.6032 45.0571 63.7732 41.751 58.0823C41.4077 57.5584 41.1729 56.9803 40.8838 56.4564L37.4874 49.0312L31.363 35.7707C30.8933 34.8132 31.7424 33.7112 32.8083 33.9099L61.7321 39.2755V5.45579C61.7321 4.968 62.1657 4.55248 62.6354 4.55248H64.4962C64.984 4.55248 65.3634 4.98607 65.3634 5.45579V25.6718L71.1626 25.7621V11.6886C71.1626 11.2189 71.542 10.8214 72.0298 10.8214H73.8906C74.3603 10.8214 74.7578 11.2008 74.7578 11.6886V25.8163H77.7748V0.903129C77.7748 0.379213 78.1542 -0.000175476 78.6781 -0.000175476H80.5028C81.0267 -0.000175476 81.4061 0.379213 81.4061 0.903129V23.5038L82.8514 24.9491V27.0628H87.7834V30.4231L84.6218 33.4402H101.821V21.083H111.342V42.8707C111.342 43.1055 111.486 43.3946 111.685 43.5933L113.979 45.8877C114.178 46.0864 114.359 46.1768 114.594 46.1768L123.067 47.2788C123.446 47.333 123.789 47.5137 124.024 47.8569L129.769 55.8602C129.914 56.0951 130.203 56.2396 130.492 56.2396L166.786 56.2938C172.875 56.9622 177.698 61.6594 178.656 67.6393V67.6032Z" fill="#182A41"/>
<path d="M120.862 2.34845V11.5441C115.641 11.5441 111.432 15.7535 111.378 21.0288H111.324V21.083H101.803V20.9385C101.803 20.1255 101.857 19.3125 102.001 18.5357C102.001 18.4453 102.001 18.3369 102.056 18.2466C102.11 17.7227 102.2 17.1988 102.345 16.711C102.435 16.2774 102.543 15.8438 102.688 15.4102C103.067 14.1095 103.591 12.9171 104.26 11.779C104.458 11.4357 104.639 11.1105 104.874 10.7673C105.019 10.4782 105.163 10.2975 105.308 10.0988C105.597 9.71942 105.886 9.34003 106.121 8.99678C106.554 8.52706 106.988 8.03927 107.421 7.60569C107.71 7.31663 107.999 7.02757 108.325 6.79271C109.047 6.12427 109.77 5.54615 110.583 5.02223C110.962 4.78737 111.396 4.55252 111.829 4.29959C113.166 3.57695 114.648 2.9627 116.183 2.61944C116.617 2.47491 117.087 2.38458 117.52 2.33038C117.864 2.24005 118.243 2.18586 118.622 2.13166C119.056 2.07746 119.489 2.04133 119.923 2.04133C120.122 1.98713 120.357 1.98713 120.591 1.98713C120.79 2.04133 120.881 2.13166 120.881 2.33038L120.862 2.34845Z" fill="#C4A458"/>
<path d="M170.743 70.8012L167.491 76.4197H159.072L155.82 70.8012H57.1069V70.7289C44.822 69.9521 40.8113 63.7193 38.6253 59.1305C38.6253 59.1305 38.6253 59.1124 38.6073 59.0943L33.0248 46.9901C30.2968 46.0506 27.3882 45.5448 24.335 45.5448C13.5315 45.5448 4.22747 51.9402 0.0180661 61.1719H13.387C19.5656 61.1719 24.8048 66.0498 24.8409 72.2284C24.8409 75.3177 23.6124 78.1179 21.5709 80.1413C19.5656 82.1467 16.7834 83.4113 13.7122 83.4113H0C4.2094 92.625 13.5134 99.0385 24.317 99.0385C35.1205 99.0385 44.5149 92.5708 48.7062 83.3029L166.786 83.2306C173.236 82.5441 178.312 77.305 178.764 70.8012H170.743Z" fill="#182A41"/>
</g>
<path d="M8.60562 126.821V124.493H14.9663V124.66C14.9663 127.14 14.2873 129.053 12.9292 130.397C11.7097 131.616 10.0676 132.226 8.00281 132.226C5.89644 132.226 4.21966 131.602 2.97247 130.355C1.60056 128.983 0.914607 127.203 0.914607 125.013C0.914607 122.934 1.59363 121.216 2.95169 119.858C4.33745 118.445 6.15974 117.738 8.41854 117.738C9.63802 117.738 10.7051 117.98 11.6197 118.465C12.6867 119.006 13.5528 119.851 14.218 121.001L11.8691 122.269C11.4949 121.549 10.9545 121.001 10.2478 120.627C9.66573 120.336 9.01442 120.191 8.29382 120.191C6.9912 120.191 5.92416 120.599 5.0927 121.417C4.16423 122.318 3.7 123.537 3.7 125.075C3.7 126.53 4.1573 127.701 5.07191 128.588C5.88951 129.378 6.91498 129.773 8.14832 129.773C9.22921 129.773 10.1369 129.496 10.8713 128.942C11.5365 128.429 11.973 127.722 12.1809 126.821H8.60562ZM19.0544 119.775C20.4402 118.417 22.2209 117.738 24.3966 117.738C26.5722 117.738 28.346 118.417 29.7179 119.775C31.1037 121.133 31.7966 122.872 31.7966 124.992C31.7966 127.112 31.1037 128.852 29.7179 130.21C28.346 131.554 26.5722 132.226 24.3966 132.226C22.2209 132.226 20.4402 131.554 19.0544 130.21C17.6825 128.852 16.9966 127.112 16.9966 124.992C16.9966 122.872 17.6825 121.133 19.0544 119.775ZM21.0707 128.443C21.9299 129.33 23.0385 129.773 24.3966 129.773C25.7546 129.773 26.8632 129.33 27.7224 128.443C28.5816 127.542 29.0112 126.392 29.0112 124.992C29.0112 123.593 28.5746 122.442 27.7016 121.542C26.8424 120.641 25.7407 120.191 24.3966 120.191C23.0524 120.191 21.9437 120.641 21.0707 121.542C20.2115 122.442 19.7819 123.593 19.7819 124.992C19.7819 126.392 20.2115 127.542 21.0707 128.443ZM34.4947 118.05H37.197V129.586H41.479V131.914H34.4947V118.05ZM43.5531 118.05H47.17C48.2647 118.05 49.2209 118.147 50.0385 118.341C50.8561 118.521 51.6183 118.874 52.325 119.401C53.1703 120.038 53.8217 120.842 54.279 121.812C54.7501 122.782 54.9857 123.842 54.9857 124.992C54.9857 127.417 54.0572 129.281 52.2003 130.584C51.452 131.11 50.6898 131.464 49.9138 131.644C49.1378 131.824 48.2093 131.914 47.1284 131.914H43.5531V118.05ZM46.2554 120.378V129.586H47.0868C48.5003 129.586 49.6297 129.281 50.475 128.671C51.0155 128.283 51.4381 127.764 51.743 127.112C52.0479 126.447 52.2003 125.741 52.2003 124.992C52.2003 124.258 52.0479 123.565 51.743 122.914C51.452 122.248 51.0363 121.708 50.4958 121.292C49.6782 120.683 48.5419 120.378 47.0868 120.378H46.2554ZM65.3773 118.05V120.378H60.3886V123.475H65.1695V125.803H60.3886V129.586H65.3773V131.914H57.6863V118.05H65.3773ZM70.9085 131.914H68.2062V118.05H70.077L78.5164 127.3V118.05H81.2186V131.914H79.3478L70.9085 122.643V131.914ZM92.3543 118.05V123.412H98.2161V118.05H100.918V131.914H98.2161V125.741H92.3543V131.914H89.6521V118.05H92.3543ZM113.73 131.914L112.503 129.004H106.912L105.685 131.914H102.755L108.72 118.05H110.841L116.64 131.914H113.73ZM107.764 126.801H111.714L109.739 121.812L107.764 126.801ZM118.467 118.05H122.478C124.003 118.05 125.181 118.396 126.012 119.089C126.927 119.865 127.384 120.904 127.384 122.207C127.384 123.662 126.844 124.75 125.763 125.47C125.347 125.761 124.841 125.962 124.245 126.073L128.569 131.914H125.201L121.501 126.343H121.169V131.914H118.467V118.05ZM121.169 120.253V124.431H121.938C122.16 124.431 122.374 124.417 122.582 124.389C122.804 124.348 123.088 124.272 123.435 124.161C123.781 124.036 124.058 123.821 124.266 123.516C124.488 123.198 124.599 122.803 124.599 122.332C124.599 121.86 124.495 121.472 124.287 121.168C124.079 120.849 123.802 120.634 123.455 120.523C123.109 120.398 122.832 120.322 122.624 120.295C122.416 120.267 122.201 120.253 121.98 120.253H121.169ZM130.61 118.05H134.04C135.551 118.05 136.68 118.341 137.428 118.923C138.288 119.588 138.717 120.544 138.717 121.791C138.717 123.024 138.198 123.932 137.158 124.514C137.865 124.625 138.468 124.916 138.967 125.387C139.632 126.025 139.964 126.891 139.964 127.986C139.964 129.15 139.569 130.085 138.78 130.792C137.934 131.54 136.763 131.914 135.267 131.914H130.61V118.05ZM133.313 120.253V123.807H134.082C134.22 123.807 134.345 123.807 134.456 123.807C134.581 123.794 134.754 123.752 134.976 123.683C135.211 123.613 135.405 123.523 135.558 123.412C135.724 123.288 135.869 123.108 135.994 122.872C136.119 122.623 136.181 122.332 136.181 121.999C136.181 121.403 135.987 120.967 135.599 120.689C135.211 120.398 134.712 120.253 134.103 120.253H133.313ZM133.313 125.886V129.711H134.477C135.28 129.711 135.897 129.586 136.327 129.337C136.895 129.004 137.179 128.471 137.179 127.736C137.179 126.988 136.839 126.461 136.16 126.156C135.772 125.976 135.156 125.886 134.31 125.886H133.313ZM144.066 119.775C145.452 118.417 147.232 117.738 149.408 117.738C151.584 117.738 153.357 118.417 154.729 119.775C156.115 121.133 156.808 122.872 156.808 124.992C156.808 127.112 156.115 128.852 154.729 130.21C153.357 131.554 151.584 132.226 149.408 132.226C147.232 132.226 145.452 131.554 144.066 130.21C142.694 128.852 142.008 127.112 142.008 124.992C142.008 122.872 142.694 121.133 144.066 119.775ZM146.082 128.443C146.941 129.33 148.05 129.773 149.408 129.773C150.766 129.773 151.875 129.33 152.734 128.443C153.593 127.542 154.023 126.392 154.023 124.992C154.023 123.593 153.586 122.442 152.713 121.542C151.854 120.641 150.752 120.191 149.408 120.191C148.064 120.191 146.955 120.641 146.082 121.542C145.223 122.442 144.793 123.593 144.793 124.992C144.793 126.392 145.223 127.542 146.082 128.443ZM159.506 118.05H162.208V126.759C162.208 127.632 162.43 128.318 162.874 128.817C163.4 129.454 164.135 129.773 165.077 129.773C166.019 129.773 166.754 129.454 167.28 128.817C167.724 128.318 167.945 127.632 167.945 126.759V118.05H170.648V126.53C170.648 128.11 170.301 129.344 169.608 130.23C169.123 130.868 168.472 131.36 167.654 131.706C166.851 132.053 165.992 132.226 165.077 132.226C164.162 132.226 163.296 132.053 162.479 131.706C161.675 131.36 161.03 130.868 160.545 130.23C159.853 129.344 159.506 128.11 159.506 126.53V118.05ZM174.025 118.05H178.037C179.561 118.05 180.739 118.396 181.571 119.089C182.485 119.865 182.942 120.904 182.942 122.207C182.942 123.662 182.402 124.75 181.321 125.47C180.905 125.761 180.4 125.962 179.804 126.073L184.127 131.914H180.76L177.06 126.343H176.727V131.914H174.025V118.05ZM176.727 120.253V124.431H177.496C177.718 124.431 177.933 124.417 178.141 124.389C178.363 124.348 178.647 124.272 178.993 124.161C179.339 124.036 179.617 123.821 179.824 123.516C180.046 123.198 180.157 122.803 180.157 122.332C180.157 121.86 180.053 121.472 179.845 121.168C179.637 120.849 179.36 120.634 179.014 120.523C178.667 120.398 178.39 120.322 178.182 120.295C177.974 120.267 177.76 120.253 177.538 120.253H176.727Z" fill="#182A41"/>
<defs>
<clipPath id="clip0_1948_252">
<rect width="178.764" height="99.0564" fill="white"/>
</clipPath>
</defs>
</svg>
