<svg width="150" height="150" viewBox="0 0 150 150" fill="none" xmlns="http://www.w3.org/2000/svg">
<circle cx="75.0002" cy="75" r="75" fill="white"/>
<circle cx="75.0002" cy="75" r="67.5" fill="white" stroke="#A8964E" stroke-dasharray="2 2"/>
<path d="M78.5702 68.0641C80.5197 68.9949 82.2173 70.3799 83.5205 72.1028C84.8237 73.8257 85.6944 75.8362 86.0595 77.9654C86.4246 80.0947 86.2733 82.2804 85.6185 84.339C84.9636 86.3977 83.8243 88.2691 82.2962 89.7961L68.7962 103.296C66.2644 105.828 62.8306 107.25 59.2502 107.25C55.6698 107.25 52.236 105.828 49.7042 103.296C47.1724 100.764 45.7501 97.3305 45.7501 93.7501C45.7501 90.1696 47.1724 86.7358 49.7042 84.2041L54.9752 78.9331M95.0252 77.0671L100.296 71.7961C102.828 69.2643 104.25 65.8305 104.25 62.2501C104.25 58.6696 102.828 55.2358 100.296 52.7041C97.7644 50.1723 94.3306 48.75 90.7502 48.75C87.1698 48.75 83.736 50.1723 81.2042 52.7041L67.7042 66.2041C66.1761 67.7311 65.0368 69.6025 64.382 71.6611C63.7271 73.7198 63.5759 75.9055 63.9409 78.0347C64.306 80.1639 65.1767 82.1744 66.4799 83.8974C67.7831 85.6203 69.4807 87.0053 71.4302 87.9361" stroke="#A8964E" stroke-width="1.5" stroke-linecap="round" stroke-linejoin="round"/>
</svg>
