<svg width="131" height="131" viewBox="0 0 131 131" fill="none" xmlns="http://www.w3.org/2000/svg">
<g clip-path="url(#clip0_621_5355)">
<path d="M71.3631 12.7841L72.5204 5.35827L75.038 5.75092C75.6206 5.83922 76.0823 6.01948 76.4233 6.2854C76.7644 6.55133 76.9931 6.87826 77.1163 7.26041C77.2395 7.64255 77.2653 8.05525 77.2005 8.49268C77.1294 8.92964 76.9798 9.31643 76.7457 9.64627C76.5117 9.97612 76.1956 10.2176 75.7912 10.3703C75.3868 10.5229 74.8964 10.5554 74.3138 10.4671L72.5101 10.1853L72.634 9.38581L74.4066 9.65891C74.8074 9.72083 75.1384 9.70163 75.3994 9.60131C75.6605 9.50099 75.8691 9.33984 76.0185 9.12366C76.168 8.90747 76.2635 8.6493 76.3115 8.34961C76.3596 8.04993 76.3422 7.77689 76.2725 7.52518C76.1965 7.27299 76.0479 7.05953 75.8262 6.8911C75.6045 6.72268 75.2903 6.60412 74.8836 6.53545L73.2991 6.28921L72.2656 12.9156L71.3636 12.7779L71.3631 12.7841Z" fill="#231F20"/>
<path d="M77.317 13.822L78.6812 8.35175L79.4962 8.55241L79.288 9.37711L79.3438 9.39396C79.5082 9.14731 79.7493 8.97598 80.0486 8.87224C80.3542 8.76897 80.6653 8.76091 80.995 8.84272C81.057 8.86005 81.1317 8.87833 81.2248 8.90433C81.3179 8.93033 81.3862 8.94814 81.4357 8.96452L81.2189 9.82015C81.2189 9.82015 81.1272 9.77531 81.0351 9.73674C80.9429 9.69818 80.8314 9.66447 80.7194 9.63704C80.4519 9.57256 80.1989 9.56607 79.9664 9.62431C79.7275 9.68207 79.529 9.79344 79.3582 9.95745C79.1874 10.1215 79.0767 10.3279 79.0136 10.5759L78.1498 14.0367L77.3102 13.8278L77.317 13.822Z" fill="#231F20"/>
<path d="M82.698 15.4803C82.1851 15.3088 81.7742 15.0439 81.4844 14.6871C81.1883 14.3298 81.0103 13.9182 80.9519 13.4335C80.893 12.9551 80.9509 12.4413 81.1381 11.8931C81.3253 11.3449 81.5873 10.8971 81.9304 10.5502C82.2734 10.2033 82.6651 9.96754 83.1045 9.85544C83.5439 9.74333 84.0111 9.76603 84.493 9.92887C84.7708 10.0257 85.0327 10.1656 85.2724 10.348C85.512 10.5304 85.7096 10.7665 85.8593 11.0496C86.009 11.3326 86.0977 11.6679 86.1128 12.0545C86.1279 12.4412 86.0501 12.8839 85.886 13.377L85.7712 13.7222L81.6442 12.3232L81.8879 11.6149L85.1746 12.7292C85.2798 12.4276 85.308 12.139 85.2717 11.8645C85.2355 11.5901 85.1275 11.3418 84.9532 11.1327C84.7789 10.9236 84.5437 10.7668 84.247 10.6685C83.9197 10.5553 83.61 10.5445 83.3189 10.6236C83.0277 10.7027 82.7692 10.8538 82.5568 11.0652C82.3443 11.2766 82.1853 11.5363 82.081 11.8254L81.9184 12.2997C81.7804 12.7 81.7335 13.0693 81.7849 13.3954C81.8299 13.7211 81.9544 14.0022 82.1525 14.2321C82.3568 14.4624 82.6226 14.6341 82.9562 14.7478C83.1725 14.8211 83.379 14.8556 83.5757 14.8516C83.7724 14.8475 83.9527 14.8106 84.1236 14.7287C84.2945 14.6469 84.4431 14.5254 84.5757 14.3648L85.2927 14.8551C85.1161 15.0945 84.8988 15.2866 84.6291 15.4178C84.3652 15.5558 84.0619 15.6277 83.7378 15.6411C83.4136 15.6545 83.0627 15.6026 82.698 15.4803Z" fill="#231F20"/>
<path d="M87.7719 17.5134C87.288 17.2935 86.9246 16.988 86.6812 16.6031C86.4378 16.2182 86.3122 15.7853 86.311 15.2986C86.3035 14.8115 86.4234 14.315 86.6581 13.8083C86.9002 13.2895 87.2044 12.8701 87.5824 12.5638C87.9609 12.2512 88.3744 12.0613 88.8231 11.9942C89.2717 11.927 89.7288 11.9995 90.1943 12.2116C90.5556 12.378 90.8501 12.5898 91.0768 12.8597C91.304 13.1234 91.459 13.4195 91.5293 13.747C91.6058 14.0751 91.5874 14.4023 91.4857 14.7422L90.6957 14.3791C90.7409 14.1171 90.7042 13.8489 90.5792 13.5741C90.4543 13.2992 90.2237 13.0796 89.8746 12.9205C89.5686 12.7773 89.2613 12.735 88.9595 12.788C88.6576 12.841 88.3744 12.9839 88.1101 13.2104C87.8521 13.4373 87.6321 13.7493 87.451 14.1337C87.2689 14.5306 87.171 14.9024 87.1633 15.2557C87.1556 15.6089 87.2273 15.9177 87.3847 16.1824C87.5421 16.447 87.7736 16.6541 88.0859 16.7978C88.2881 16.8889 88.4931 16.9423 88.6957 16.945C88.8983 16.9477 89.0848 16.9113 89.262 16.8299C89.4393 16.7485 89.5942 16.6275 89.7335 16.4611L90.5235 16.8242C90.3373 17.1071 90.105 17.3297 89.8203 17.4914C89.5356 17.6531 89.2188 17.7366 88.8631 17.7476C88.5137 17.7591 88.1463 17.6744 87.7666 17.5003L87.7719 17.5134Z" fill="#231F20"/>
<path d="M90.6394 18.8107L93.3579 13.8663L94.1184 14.284L91.3998 19.2285L90.6394 18.8107ZM94.1958 13.2599C94.0499 13.1793 93.945 13.0576 93.8934 12.9021C93.8423 12.7402 93.8537 12.5894 93.9276 12.4497C94.0079 12.3104 94.1226 12.218 94.2907 12.1738C94.4525 12.1292 94.609 12.1537 94.755 12.2342C94.901 12.3148 95.0058 12.4365 95.0574 12.592C95.109 12.7476 95.0976 12.8984 95.0232 13.0444C94.943 13.1837 94.8283 13.2761 94.6602 13.3203C94.4984 13.3649 94.3418 13.3404 94.1958 13.2599Z" fill="#231F20"/>
<path d="M98.2381 18.2925L97.4639 18.057C97.4932 17.9202 97.4979 17.7752 97.4904 17.623C97.4766 17.4703 97.425 17.3147 97.3293 17.1558C97.2394 17.0037 97.086 16.8531 96.8745 16.717C96.5845 16.5308 96.2999 16.4397 96.0203 16.4502C95.7407 16.4606 95.5363 16.5652 95.4068 16.7703C95.2917 16.9511 95.2648 17.1387 95.3267 17.3266C95.3885 17.5145 95.5429 17.7348 95.7773 17.9863L96.37 18.6125C96.7282 18.9871 96.9482 19.345 97.0171 19.6914C97.0922 20.0384 97.0224 20.3743 96.8073 20.7056C96.6347 20.9769 96.3985 21.1675 96.1045 21.2843C95.8105 21.4011 95.4854 21.4271 95.1282 21.3748C94.7709 21.3225 94.4082 21.175 94.0333 20.9381C93.5497 20.6298 93.2099 20.2629 93.0319 19.8513C92.8477 19.4393 92.8427 19.0029 93.0169 18.5421L93.8203 18.8114C93.7219 19.1073 93.7266 19.3794 93.8283 19.6272C93.9299 19.875 94.1352 20.0927 94.4311 20.2857C94.7697 20.5009 95.0916 20.6011 95.3843 20.5853C95.677 20.5695 95.8944 20.4596 96.024 20.2545C96.1313 20.0921 96.1572 19.9171 96.1143 19.7306C96.0714 19.5441 95.947 19.3451 95.7408 19.1399L95.0642 18.4505C94.6939 18.0686 94.4743 17.7045 94.4118 17.3585C94.3492 17.0126 94.419 16.6766 94.6342 16.3453C94.8063 16.0803 95.0362 15.8892 95.3171 15.7777C95.6043 15.6667 95.9105 15.6393 96.2488 15.6902C96.5872 15.7411 96.9256 15.8741 97.2579 16.0888C97.7294 16.3899 98.0332 16.7288 98.1695 17.1056C98.3057 17.4824 98.3267 17.8758 98.2192 18.2911L98.2381 18.2925Z" fill="#231F20"/>
<path d="M96.7374 22.6338L100.103 18.1048L100.799 18.6187L97.4336 23.1477L96.7374 22.6338ZM101.014 17.6113C100.876 17.5124 100.797 17.3801 100.766 17.2134C100.734 17.0467 100.77 16.9041 100.869 16.7725C100.967 16.641 101.093 16.5683 101.259 16.5493C101.426 16.5303 101.574 16.5731 101.713 16.6721C101.851 16.771 101.93 16.9033 101.961 17.07C101.987 17.2362 101.957 17.3793 101.858 17.5109C101.76 17.6424 101.634 17.7151 101.468 17.7341C101.301 17.7531 101.153 17.7103 101.014 17.6113Z" fill="#231F20"/>
<path d="M100.116 25.4613C99.7297 25.1287 99.4737 24.7428 99.3418 24.3095C99.2098 23.8761 99.2057 23.4271 99.3301 22.9563C99.4544 22.4854 99.7042 22.0304 100.086 21.5917C100.468 21.1466 100.885 20.8306 101.337 20.6373C101.789 20.444 102.237 20.3831 102.688 20.4488C103.139 20.5146 103.555 20.7166 103.942 21.0492C104.328 21.3818 104.584 21.7676 104.716 22.201C104.848 22.6344 104.852 23.0896 104.727 23.5604C104.603 24.0313 104.347 24.4921 103.965 24.9309C103.583 25.3696 103.166 25.6856 102.721 25.8794C102.276 26.0669 101.828 26.1278 101.376 26.0621C100.925 25.9964 100.509 25.7943 100.123 25.4617L100.116 25.4613ZM100.623 24.874C100.915 25.1236 101.221 25.2605 101.544 25.2722C101.86 25.2835 102.176 25.2063 102.473 25.0455C102.771 24.8848 103.048 24.653 103.298 24.3686C103.547 24.0841 103.729 23.7819 103.848 23.456C103.968 23.1302 104.005 22.8107 103.946 22.4966C103.888 22.1825 103.713 21.8976 103.421 21.648C103.13 21.3922 102.823 21.2616 102.501 21.2498C102.178 21.2381 101.868 21.3158 101.564 21.4823C101.26 21.6489 100.983 21.8744 100.74 22.1593C100.49 22.4437 100.309 22.746 100.189 23.0718C100.07 23.3914 100.04 23.7114 100.098 24.0255C100.157 24.3395 100.332 24.6245 100.63 24.8745L100.623 24.874Z" fill="#231F20"/>
<path d="M105.784 25.9343L103.301 28.2552L102.709 27.6228L106.828 23.77L107.403 24.3822L106.762 24.9846L106.814 25.0391C107.113 24.9417 107.419 24.9269 107.736 25.0077C108.047 25.0818 108.349 25.2753 108.642 25.5881C108.906 25.8672 109.074 26.1642 109.158 26.4802C109.242 26.7962 109.224 27.1171 109.103 27.4492C108.983 27.7814 108.749 28.1112 108.395 28.4383L105.776 30.8879L105.184 30.2555L107.762 27.847C108.089 27.5431 108.259 27.2211 108.284 26.8881C108.31 26.5488 108.181 26.2357 107.906 25.9432C107.718 25.7394 107.5 25.6029 107.265 25.5282C107.03 25.4536 106.784 25.4475 106.532 25.5106C106.28 25.5737 106.034 25.7195 105.789 25.9473L105.784 25.9343Z" fill="#231F20"/>
<path d="M114.523 29.6854L115.113 30.5957L111.242 36.1228L111.287 36.1957L117.932 34.9669L118.522 35.8835L112.188 39.9542L111.722 39.2365L116.538 36.1442L116.498 36.0843L110.406 37.2033L109.958 36.5122L113.496 31.4466L113.457 31.3867L108.641 34.479L108.176 33.7614L114.51 29.6907L114.523 29.6854Z" fill="#231F20"/>
<path d="M113.538 43.1336C113.309 42.6424 113.218 42.1679 113.265 41.7102C113.319 41.2529 113.49 40.8362 113.797 40.4613C114.104 40.0864 114.514 39.7762 115.04 39.5253C115.565 39.2807 116.069 39.1545 116.563 39.1602C117.057 39.166 117.492 39.281 117.879 39.5252C118.266 39.7693 118.569 40.1145 118.788 40.5734C118.914 40.8357 118.994 41.1198 119.028 41.4194C119.062 41.719 119.033 42.0264 118.934 42.3285C118.835 42.637 118.654 42.9266 118.386 43.2096C118.118 43.4864 117.75 43.7429 117.27 43.9657L116.935 44.1236L115.078 40.1917L115.755 39.8701L117.235 43.0026C117.524 42.8665 117.753 42.6879 117.929 42.4673C118.104 42.2468 118.205 42.0016 118.238 41.7324C118.271 41.4632 118.222 41.1878 118.085 40.8994C117.938 40.5849 117.733 40.3546 117.473 40.2022C117.212 40.0498 116.927 39.965 116.623 39.961C116.319 39.957 116.023 40.0167 115.746 40.1538L115.293 40.3659C114.906 40.5452 114.61 40.7692 114.407 41.0256C114.203 41.2882 114.087 41.5701 114.064 41.8717C114.041 42.1733 114.1 42.4874 114.253 42.8023C114.352 43.0056 114.466 43.1785 114.607 43.3219C114.742 43.4585 114.899 43.5652 115.078 43.6293C115.257 43.6934 115.445 43.7202 115.655 43.7045L115.799 44.5622C115.505 44.6031 115.215 44.5749 114.931 44.4776C114.647 44.3803 114.387 44.2215 114.15 43.9951C113.914 43.7687 113.714 43.4819 113.55 43.1409L113.538 43.1336Z" fill="#231F20"/>
<path d="M115.617 48.2325C115.44 47.7199 115.394 47.2362 115.492 46.7886C115.589 46.341 115.809 45.9406 116.152 45.6C116.494 45.2594 116.939 44.9897 117.486 44.7973C118.033 44.6048 118.551 44.5366 119.035 44.5922C119.519 44.6477 119.95 44.813 120.309 45.0867C120.668 45.3666 120.938 45.7408 121.104 46.221C121.204 46.5003 121.252 46.7883 121.254 47.0918C121.256 47.3952 121.189 47.6935 121.06 47.987C120.93 48.2805 120.719 48.5552 120.421 48.8044C120.123 49.0536 119.734 49.2643 119.232 49.4412L118.887 49.5605L117.449 45.458L118.158 45.2083L119.305 48.4799C119.604 48.3761 119.857 48.2246 120.05 48.018C120.242 47.8177 120.374 47.5813 120.432 47.3203C120.49 47.0529 120.473 46.7736 120.369 46.4751C120.254 46.1504 120.077 45.8969 119.831 45.714C119.585 45.5311 119.315 45.4221 119.013 45.3867C118.712 45.3513 118.412 45.3791 118.119 45.4833L117.643 45.6496C117.24 45.7897 116.921 45.9805 116.695 46.2161C116.468 46.4517 116.321 46.7186 116.266 47.0241C116.212 47.3233 116.238 47.6413 116.353 47.9722C116.425 48.1862 116.525 48.3707 116.647 48.5252C116.768 48.6798 116.917 48.7985 117.082 48.8805C117.253 48.9629 117.44 49.0086 117.649 49.0118L117.704 49.8816C117.405 49.8907 117.124 49.8378 116.848 49.7095C116.573 49.5813 116.333 49.3989 116.124 49.1492C115.909 48.8991 115.741 48.5958 115.617 48.2325Z" fill="#231F20"/>
<path d="M123.593 49.9354L123.808 50.7731L118.587 52.1034C118.349 52.1611 118.184 52.2435 118.081 52.3431C117.979 52.4428 117.926 52.5525 117.917 52.6719C117.908 52.7913 117.918 52.9121 117.947 53.0344C117.972 53.1247 117.997 53.2025 118.019 53.2547C118.046 53.3136 118.068 53.3595 118.084 53.3923L117.373 53.7555C117.339 53.7024 117.293 53.6295 117.243 53.5372C117.194 53.4387 117.152 53.3155 117.107 53.1604C117.049 52.9222 117.036 52.6811 117.08 52.4254C117.124 52.176 117.231 51.9439 117.404 51.7422C117.578 51.5404 117.823 51.401 118.14 51.3175L123.587 49.9286L123.593 49.9354ZM122.794 52.2762L122.084 52.4563L121.354 49.627L122.064 49.4469L122.794 52.2762Z" fill="#231F20"/>
<path d="M122.527 57.6587L122.176 56.9308C122.296 56.8577 122.411 56.7652 122.514 56.653C122.618 56.5408 122.698 56.3952 122.749 56.2222C122.801 56.0491 122.804 55.8408 122.759 55.591C122.702 55.2518 122.571 54.9827 122.377 54.7848C122.182 54.5868 121.967 54.5073 121.723 54.5521C121.511 54.5866 121.357 54.695 121.261 54.871C121.166 55.047 121.101 55.3076 121.082 55.6474L121.017 56.5082C120.991 57.0243 120.871 57.4261 120.666 57.7138C120.46 58.0016 120.162 58.1749 119.777 58.2469C119.455 58.3047 119.154 58.263 118.874 58.1217C118.593 57.9804 118.349 57.7661 118.144 57.4662C117.938 57.1663 117.801 56.802 117.726 56.3667C117.63 55.8033 117.667 55.3069 117.85 54.8974C118.034 54.4816 118.354 54.1835 118.805 54.0028L119.152 54.7747C118.863 54.9045 118.666 55.0918 118.552 55.3296C118.439 55.5738 118.417 55.8691 118.479 56.2151C118.55 56.6123 118.692 56.9137 118.899 57.1189C119.105 57.324 119.333 57.4045 119.577 57.3661C119.77 57.3301 119.923 57.2343 120.03 57.078C120.137 56.9218 120.198 56.6927 120.214 56.4032L120.268 55.4404C120.301 54.9122 120.421 54.5042 120.632 54.2231C120.844 53.9421 121.142 53.7688 121.527 53.6969C121.842 53.6448 122.137 53.6798 122.405 53.8201C122.673 53.9605 122.912 54.1618 123.099 54.4477C123.293 54.734 123.42 55.0659 123.492 55.4568C123.589 56.0076 123.543 56.4591 123.357 56.8179C123.172 57.1767 122.891 57.4524 122.52 57.6582L122.527 57.6587Z" fill="#231F20"/>
<path d="M126.118 62.7897L118.593 63.1747L118.547 62.2676L126.073 61.8826L126.118 62.7897Z" fill="#231F20"/>
<path d="M122.051 65.4521L118.655 65.3721L118.676 64.508L124.324 64.6446L124.305 65.4836L123.419 65.4608L123.414 65.5362C123.701 65.678 123.926 65.8846 124.095 66.1565C124.265 66.4284 124.346 66.7821 124.333 67.2045C124.323 67.5829 124.235 67.9174 124.074 68.2023C123.913 68.4871 123.668 68.7024 123.353 68.8555C123.037 69.0085 122.632 69.079 122.152 69.0679L118.559 68.9794L118.58 68.1153L122.11 68.199C122.553 68.2073 122.903 68.1011 123.16 67.8804C123.418 67.6598 123.55 67.3411 123.554 66.9434C123.563 66.666 123.505 66.4215 123.395 66.1983C123.279 65.981 123.108 65.8038 122.884 65.6731C122.659 65.5423 122.379 65.4769 122.05 65.4647L122.051 65.4521Z" fill="#231F20"/>
<path d="M118.098 72.1421C118.159 71.679 118.334 71.2816 118.619 70.9555C118.903 70.6295 119.276 70.3923 119.737 70.2502C120.197 70.1081 120.726 70.0723 121.316 70.1485C121.906 70.2247 122.4 70.3948 122.811 70.6534C123.216 70.9115 123.515 71.2374 123.707 71.6248C123.893 72.0117 123.962 72.4466 123.901 72.9159C123.855 73.2789 123.757 73.5622 123.609 73.7595C123.461 73.9569 123.304 74.103 123.139 74.1916C122.974 74.2802 122.835 74.3582 122.73 74.4071L122.724 74.4825L125.479 74.8425L125.363 75.6995L117.89 74.7235L117.998 73.8911L118.857 74.0067L118.865 73.9062C118.775 73.8299 118.663 73.7266 118.521 73.5895C118.379 73.4524 118.267 73.2669 118.176 73.0389C118.086 72.8109 118.064 72.5123 118.11 72.1556L118.098 72.1421ZM118.855 72.3573C118.81 72.7014 118.863 73.0024 119.014 73.2666C119.165 73.5308 119.39 73.7437 119.701 73.9063C120.005 74.0746 120.371 74.1844 120.798 74.2356C121.218 74.2927 121.593 74.2768 121.922 74.2006C122.251 74.1244 122.522 73.9743 122.729 73.7561C122.935 73.5379 123.064 73.257 123.109 72.9129C123.156 72.5499 123.103 72.2363 122.946 71.9716C122.788 71.7069 122.564 71.494 122.259 71.332C121.955 71.1699 121.608 71.0616 121.212 71.0127C120.811 70.9571 120.442 70.9734 120.1 71.055C119.758 71.1365 119.475 71.2857 119.256 71.4966C119.03 71.7134 118.901 72.0006 118.849 72.3568L118.855 72.3573Z" fill="#231F20"/>
<path d="M119.071 79.8871L122.32 80.6699L122.116 81.514L116.621 80.1884L116.825 79.3443L117.758 79.5666L117.763 79.5101C117.524 79.3151 117.334 79.0606 117.206 78.7413C117.078 78.422 117.062 78.0542 117.162 77.6448C117.245 77.3035 117.394 77.0177 117.614 76.7879C117.828 76.5576 118.112 76.4022 118.453 76.3269C118.795 76.2517 119.2 76.2633 119.666 76.3807L123.157 77.2261L122.954 78.0702L119.518 77.2416C119.12 77.142 118.769 77.1849 118.478 77.3461C118.186 77.5137 117.996 77.771 117.912 78.1186C117.865 78.3298 117.86 78.5569 117.918 78.7951C117.976 79.0396 118.092 79.2633 118.28 79.4607C118.467 79.6645 118.729 79.8043 119.071 79.8871Z" fill="#231F20"/>
<path d="M119.106 86.4678L119.154 85.6626C119.293 85.6605 119.435 85.6333 119.584 85.5877C119.733 85.5421 119.873 85.4516 120.003 85.3287C120.133 85.2058 120.241 85.0244 120.323 84.7842C120.436 84.4578 120.459 84.1625 120.39 83.892C120.316 83.6209 120.164 83.4514 119.936 83.371C119.732 83.2987 119.547 83.3163 119.374 83.4233C119.207 83.5308 119.028 83.7257 118.835 84.0144L118.362 84.737C118.082 85.1708 117.781 85.4639 117.459 85.6165C117.137 85.7691 116.795 85.7748 116.424 85.6457C116.115 85.5401 115.876 85.3577 115.699 85.0979C115.522 84.8381 115.412 84.5328 115.382 84.1703C115.353 83.8079 115.414 83.4207 115.553 83.0079C115.746 82.4664 116.017 82.0572 116.381 81.7814C116.744 81.5055 117.163 81.4046 117.653 81.4669L117.576 82.3079C117.261 82.284 116.997 82.3462 116.782 82.5006C116.568 82.655 116.397 82.9011 116.283 83.24C116.146 83.6215 116.121 83.9545 116.208 84.2328C116.294 84.511 116.452 84.6936 116.68 84.774C116.865 84.8386 117.044 84.8268 117.215 84.7449C117.386 84.6568 117.551 84.4923 117.708 84.2515L118.226 83.4376C118.513 82.9917 118.82 82.699 119.142 82.5527C119.469 82.4131 119.812 82.4012 120.183 82.5303C120.485 82.6353 120.719 82.811 120.89 83.064C121.061 83.3171 121.166 83.6094 121.191 83.9525C121.215 84.2956 121.169 84.6523 121.034 85.0212C120.848 85.5443 120.585 85.9225 120.252 86.1437C119.912 86.3644 119.536 86.4687 119.112 86.4682L119.106 86.4678Z" fill="#231F20"/>
<path d="M120.797 89.1549L120.445 89.9498L115.522 87.7764C115.295 87.6771 115.114 87.6382 114.973 87.6528C114.833 87.6674 114.721 87.7222 114.638 87.8107C114.555 87.8992 114.491 88.0018 114.437 88.1178C114.399 88.2034 114.375 88.2773 114.357 88.3392C114.34 88.4011 114.33 88.4446 114.321 88.4818L113.535 88.3275C113.539 88.2647 113.545 88.183 113.572 88.0776C113.593 87.9718 113.635 87.8422 113.703 87.6957C113.802 87.4694 113.95 87.2721 114.14 87.1032C114.331 86.9344 114.555 86.8186 114.818 86.769C115.082 86.7195 115.358 86.7593 115.658 86.8895L120.803 89.1617L120.797 89.1549ZM118.718 90.5016L118.044 90.2042L119.228 87.5323L119.902 87.8297L118.718 90.5016Z" fill="#231F20"/>
<path d="M113.115 89.0985L118.12 91.714L117.728 92.4553L116.972 92.0569L116.943 92.1052C117.142 92.3288 117.254 92.5964 117.287 92.9148C117.314 93.2328 117.252 93.5441 117.097 93.842C117.067 93.8966 117.03 93.9696 116.979 94.0543C116.929 94.1389 116.899 94.1998 116.87 94.2419L116.09 93.8353C116.09 93.8353 116.153 93.7579 116.216 93.6742C116.279 93.5906 116.337 93.4939 116.389 93.3967C116.515 93.1534 116.578 92.9117 116.577 92.6715C116.576 92.4313 116.517 92.2057 116.393 92.0067C116.275 91.802 116.103 91.6436 115.872 91.525L112.702 89.8697L113.102 89.1038L113.115 89.0985Z" fill="#231F20"/>
<path d="M109.332 91.6178C109.411 91.4911 109.495 91.39 109.571 91.3073C109.653 91.2251 109.714 91.1665 109.754 91.1443L110.279 91.7401C110.122 91.8862 110.003 92.0352 109.929 92.1812C109.855 92.3272 109.836 92.4838 109.88 92.6578C109.924 92.8317 110.035 93.0423 110.219 93.2837L110.502 93.6589L116.417 94.9594L115.907 95.7487L111.271 94.6334L111.242 94.6817L114.191 98.4119L113.682 99.2012L109.522 93.7049C109.332 93.4567 109.205 93.2133 109.127 92.9799C109.05 92.7403 109.03 92.5113 109.066 92.2865C109.102 92.0617 109.188 91.8345 109.332 91.6178Z" fill="#231F20"/>
<path d="M105.325 100.604L106.881 98.8828L112.482 103.919L110.857 105.717C110.366 106.262 109.838 106.62 109.266 106.804C108.695 106.988 108.111 106.995 107.509 106.829C106.908 106.657 106.319 106.316 105.738 105.792C105.156 105.267 104.748 104.712 104.514 104.125C104.279 103.539 104.229 102.948 104.363 102.351C104.497 101.755 104.82 101.172 105.332 100.604L105.325 100.604ZM106.872 100.095L105.966 101.101C105.551 101.563 105.294 102.023 105.195 102.49C105.097 102.956 105.151 103.409 105.346 103.853C105.54 104.298 105.869 104.727 106.32 105.134C106.77 105.541 107.225 105.816 107.689 105.964C108.147 106.113 108.603 106.116 109.037 105.984C109.478 105.853 109.893 105.562 110.287 105.131L111.262 104.048L106.865 100.095L106.872 100.095Z" fill="#231F20"/>
<path d="M100.4 105.312C100.808 104.951 101.242 104.737 101.698 104.658C102.154 104.579 102.606 104.632 103.048 104.823C103.497 105.009 103.91 105.318 104.29 105.751C104.669 106.185 104.932 106.64 105.061 107.112C105.196 107.583 105.2 108.038 105.078 108.478C104.956 108.917 104.705 109.303 104.319 109.64C104.095 109.831 103.849 109.99 103.568 110.101C103.287 110.213 102.984 110.272 102.662 110.26C102.34 110.248 102.011 110.16 101.663 109.976C101.322 109.799 100.976 109.513 100.626 109.114L100.381 108.836L103.652 105.969L104.148 106.531L101.542 108.817C101.752 109.054 101.986 109.23 102.251 109.332C102.509 109.433 102.773 109.466 103.049 109.424C103.318 109.381 103.568 109.255 103.806 109.045C104.064 108.818 104.236 108.559 104.309 108.262C104.381 107.97 104.385 107.673 104.305 107.383C104.226 107.093 104.081 106.829 103.877 106.592L103.544 106.22C103.264 105.901 102.971 105.677 102.663 105.553C102.356 105.428 102.054 105.399 101.752 105.458C101.449 105.518 101.172 105.661 100.908 105.894C100.738 106.045 100.605 106.206 100.504 106.375C100.409 106.545 100.351 106.724 100.336 106.912C100.322 107.101 100.352 107.292 100.426 107.488L99.6371 107.864C99.5184 107.59 99.4637 107.307 99.4798 107.012C99.4958 106.716 99.5753 106.419 99.7304 106.127C99.8856 105.835 100.102 105.567 100.388 105.311L100.4 105.312Z" fill="#231F20"/>
<path d="M98.2122 107.434L101.369 112.115L100.674 112.581L100.178 111.848L100.118 111.888C100.19 112.203 100.161 112.504 100.038 112.785C99.9147 113.073 99.6999 113.316 99.393 113.52C99.0856 113.731 98.78 113.834 98.4761 113.83C98.1781 113.833 97.8809 113.741 97.5957 113.574L97.5487 113.608C97.5943 113.928 97.5385 114.246 97.3955 114.544C97.2526 114.843 97.0102 115.116 96.6766 115.337C96.2559 115.621 95.8243 115.715 95.3866 115.637C94.943 115.553 94.536 115.238 94.1654 114.692L92.0513 111.562L92.7721 111.079L94.8863 114.209C95.1199 114.556 95.3784 114.739 95.6683 114.761C95.9581 114.783 96.2298 114.709 96.484 114.532C96.8113 114.311 97.0028 114.041 97.0522 113.722C97.1016 113.404 97.0236 113.094 96.8187 112.788L94.7614 109.745L95.4958 109.251L97.6551 112.453C97.8377 112.72 98.0667 112.876 98.3483 112.923C98.6299 112.97 98.9075 112.902 99.181 112.721C99.3679 112.596 99.5072 112.429 99.6053 112.222C99.697 112.014 99.7394 111.79 99.7196 111.548C99.6999 111.306 99.6099 111.072 99.4564 110.839L97.485 107.916L98.2059 107.434L98.2122 107.434Z" fill="#231F20"/>
<path d="M89.6031 112.596C89.9256 112.438 90.2424 112.354 90.5666 112.341C90.8903 112.334 91.1826 112.406 91.4562 112.56C91.7297 112.713 91.9457 112.957 92.1047 113.285C92.2476 113.574 92.31 113.838 92.2857 114.076C92.2676 114.315 92.1817 114.529 92.04 114.727C91.8983 114.925 91.726 115.108 91.5232 115.276C91.3204 115.444 91.106 115.598 90.8857 115.746C90.5986 115.939 90.3653 116.092 90.1852 116.211C90.0051 116.33 89.8831 116.434 89.8188 116.531C89.7545 116.627 89.7527 116.734 89.8193 116.859L89.83 116.885C89.9894 117.207 90.2078 117.419 90.4735 117.509C90.7392 117.599 91.0532 117.553 91.4086 117.378C91.7776 117.191 92.0288 116.969 92.1568 116.701C92.2848 116.433 92.3479 116.185 92.3394 115.963L93.2091 115.858C93.2314 116.233 93.1752 116.557 93.0399 116.837C92.9047 117.118 92.7281 117.357 92.4973 117.561C92.2732 117.759 92.0263 117.923 91.776 118.05C91.6113 118.132 91.4156 118.206 91.1889 118.271C90.9559 118.335 90.7132 118.361 90.4549 118.342C90.1966 118.322 89.9439 118.227 89.6907 118.056C89.4375 117.886 89.2122 117.597 89.0144 117.196L87.3458 113.873L88.123 113.483L88.4642 114.166L88.5039 114.144C88.5013 114.011 88.5263 113.848 88.5909 113.664C88.6493 113.478 88.7585 113.291 88.9186 113.101C89.0788 112.911 89.3068 112.745 89.5968 112.596L89.6031 112.596ZM89.831 113.353C89.5216 113.507 89.298 113.698 89.1418 113.92C88.9914 114.149 88.9104 114.383 88.8981 114.628C88.8796 114.873 88.9323 115.099 89.0368 115.309L89.395 116.018C89.4056 115.962 89.4617 115.891 89.557 115.803C89.6523 115.715 89.7671 115.623 89.8944 115.532C90.0285 115.434 90.1553 115.349 90.2821 115.264C90.409 115.179 90.5092 115.11 90.5891 115.06C90.7759 114.935 90.9449 114.796 91.0891 114.649C91.2333 114.502 91.3338 114.345 91.3781 114.178C91.4288 114.011 91.4048 113.826 91.3056 113.629C91.1676 113.359 90.9701 113.205 90.7002 113.172C90.4307 113.133 90.141 113.193 89.8315 113.347L89.831 113.353Z" fill="#231F20"/>
<path d="M86.726 117.794L85.5214 114.619L86.3366 114.315L88.3327 119.59L87.55 119.885L87.2387 119.059L87.167 119.085C87.1432 119.399 87.039 119.688 86.8484 119.946C86.6579 120.203 86.3635 120.408 85.9654 120.561C85.6065 120.698 85.2674 120.742 84.9412 120.699C84.615 120.655 84.3279 120.513 84.0673 120.272C83.8067 120.032 83.5915 119.693 83.4227 119.244L82.1553 115.894L82.9705 115.589L84.2164 118.887C84.375 119.304 84.6008 119.586 84.9063 119.736C85.2118 119.885 85.5535 119.892 85.9255 119.749C86.186 119.655 86.3937 119.507 86.5533 119.323C86.7135 119.133 86.8125 118.913 86.8451 118.65C86.8771 118.393 86.8418 118.106 86.7255 117.8L86.726 117.794Z" fill="#231F20"/>
<path d="M79.0385 116.638C79.4973 116.521 79.9271 116.534 80.3349 116.673C80.7426 116.811 81.1031 117.072 81.4109 117.443C81.7187 117.814 81.9486 118.292 82.0953 118.866C82.242 119.439 82.2724 119.96 82.1858 120.433C82.0993 120.907 81.9109 121.304 81.6143 121.622C81.3177 121.941 80.9464 122.16 80.4872 122.283C80.1316 122.376 79.8326 122.391 79.597 122.323C79.3614 122.255 79.165 122.17 79.016 122.045C78.8666 121.926 78.7472 121.829 78.6647 121.747L78.5935 121.767L79.29 124.455L78.45 124.669L76.5672 117.392L77.3815 117.182L77.5969 118.02L77.7001 117.996C77.7344 117.879 77.7899 117.731 77.8667 117.554C77.9435 117.376 78.0711 117.196 78.2487 117.027C78.4326 116.857 78.696 116.726 79.0453 116.632L79.0385 116.638ZM79.1187 117.421C78.7825 117.509 78.5172 117.666 78.3343 117.905C78.1452 118.144 78.0347 118.432 77.9959 118.777C77.9572 119.121 77.9917 119.503 78.0936 119.915C78.1959 120.321 78.3535 120.668 78.5482 120.942C78.7492 121.216 78.9817 121.411 79.2581 121.526C79.5349 121.636 79.8441 121.653 80.1866 121.565C80.5422 121.472 80.8143 121.309 81.0039 121.064C81.1935 120.82 81.304 120.531 81.3423 120.193C81.3805 119.854 81.3509 119.492 81.2471 119.105C81.1433 118.718 80.9979 118.378 80.7916 118.091C80.5852 117.804 80.3469 117.602 80.0652 117.474C79.7834 117.345 79.4612 117.333 79.1124 117.421L79.1187 117.421Z" fill="#231F20"/>
<path d="M72.0593 122.536L72.7944 122.2C72.8615 122.319 72.9542 122.433 73.0663 122.543C73.1784 122.653 73.3181 122.733 73.4912 122.79C73.6643 122.847 73.8727 122.857 74.1227 122.819C74.4623 122.769 74.7379 122.644 74.9421 122.457C75.1468 122.264 75.2259 122.055 75.1936 121.813C75.1589 121.602 75.0569 121.442 74.8871 121.341C74.7174 121.24 74.4561 121.176 74.11 121.143L73.2478 121.065C72.7316 121.02 72.3297 120.888 72.0478 120.678C71.7659 120.467 71.592 120.169 71.5328 119.779C71.4873 119.46 71.5353 119.16 71.6768 118.88C71.8247 118.601 72.0453 118.365 72.3513 118.173C72.6573 117.981 73.0283 117.851 73.4644 117.783C74.0346 117.7 74.5251 117.75 74.9354 117.939C75.3456 118.128 75.6378 118.453 75.8057 118.914L75.0207 119.241C74.8967 118.953 74.7156 118.75 74.4775 118.631C74.2394 118.512 73.9437 118.483 73.5915 118.532C73.1942 118.591 72.8862 118.725 72.6742 118.93C72.4623 119.136 72.3759 119.356 72.4145 119.599C72.4444 119.791 72.5342 119.943 72.6904 120.056C72.8467 120.169 73.0697 120.237 73.3595 120.259L74.3235 120.332C74.8522 120.378 75.2605 120.51 75.5351 120.733C75.8102 120.95 75.9836 121.253 76.037 121.637C76.0831 121.95 76.0355 122.243 75.8949 122.51C75.7543 122.778 75.5404 123.008 75.248 123.188C74.9614 123.375 74.6165 123.494 74.2255 123.553C73.6742 123.638 73.2224 123.578 72.8631 123.387C72.5105 123.19 72.2338 122.91 72.0409 122.529L72.0593 122.536Z" fill="#231F20"/>
<path d="M65.6641 120.631C65.9622 120.628 66.2351 120.705 66.4776 120.85C66.7201 120.995 66.921 121.187 67.0673 121.432C67.2135 121.677 67.288 121.948 67.2909 122.245C67.2938 122.542 67.2162 122.814 67.0711 123.056C66.9261 123.298 66.7277 123.492 66.4822 123.637C66.2368 123.783 65.965 123.857 65.667 123.86C65.369 123.863 65.096 123.785 64.8535 123.64C64.611 123.496 64.4168 123.298 64.2701 123.059C64.1239 122.814 64.0494 122.543 64.0465 122.246C64.0436 121.949 64.1213 121.677 64.2663 121.435C64.4113 121.193 64.6039 120.993 64.8493 120.847C65.0948 120.701 65.3666 120.627 65.6646 120.624L65.6641 120.631Z" fill="#AB9FE1"/>
<path d="M59.681 118.219L58.53 125.646L56.0119 125.259C55.4293 125.171 54.9677 124.991 54.6266 124.725C54.2855 124.459 54.0568 124.132 53.9336 123.75C53.8105 123.368 53.7784 122.954 53.8494 122.517C53.9142 122.08 54.0701 121.694 54.3042 121.364C54.5383 121.034 54.8543 120.792 55.2588 120.64C55.6632 120.487 56.1535 120.455 56.7362 120.543L58.5403 120.819L58.4164 121.618L56.6438 121.345C56.243 121.283 55.912 121.302 55.651 121.402C55.3899 121.503 55.1813 121.664 55.0382 121.881C54.8888 122.097 54.7932 122.355 54.7515 122.655C54.7035 122.955 54.7208 123.228 54.7905 123.48C54.8665 123.732 55.0151 123.945 55.2368 124.114C55.4643 124.289 55.7727 124.401 56.1799 124.463L57.7644 124.709L58.7916 118.082L59.6936 118.22L59.681 118.219Z" fill="#231F20"/>
<path d="M53.7271 117.181L52.3628 122.652L51.5479 122.451L51.7561 121.626L51.7003 121.609C51.5296 121.856 51.2948 122.027 50.9955 122.131C50.6899 122.234 50.3783 122.249 50.0486 122.167C49.9866 122.15 49.9119 122.131 49.8188 122.105C49.7258 122.079 49.6574 122.061 49.6079 122.045L49.8184 121.189C49.8184 121.189 49.9106 121.228 50.0022 121.272C50.0939 121.317 50.2059 121.345 50.3179 121.372C50.5855 121.437 50.8384 121.443 51.071 121.385C51.3035 121.327 51.5083 121.216 51.6791 121.052C51.8499 120.888 51.9606 120.681 52.0237 120.433L52.8875 116.972L53.7334 117.182L53.7271 117.181Z" fill="#231F20"/>
<path d="M48.3456 115.529C48.8585 115.701 49.2694 115.966 49.5655 116.323C49.8621 116.674 50.0396 117.092 50.0985 117.57C50.1637 118.049 50.0995 118.562 49.9123 119.111C49.7251 119.659 49.4631 120.107 49.12 120.454C48.777 120.8 48.3853 121.036 47.9459 121.148C47.5065 121.26 47.0393 121.238 46.5574 121.075C46.2796 120.978 46.0172 120.844 45.778 120.656C45.5384 120.473 45.3408 120.237 45.1911 119.954C45.0414 119.671 44.9527 119.336 44.9376 118.949C44.9225 118.563 45.0003 118.12 45.1644 117.627L45.2792 117.281L49.4067 118.674L49.1693 119.383L45.8758 118.274C45.7769 118.577 45.7424 118.865 45.785 119.14C45.8275 119.415 45.9292 119.662 46.1035 119.871C46.2778 120.081 46.513 120.237 46.8097 120.336C47.137 120.449 47.4467 120.46 47.7378 120.381C48.029 120.301 48.2875 120.15 48.4999 119.939C48.7124 119.728 48.8714 119.468 48.9694 119.178L49.132 118.704C49.2704 118.297 49.3169 117.934 49.2655 117.608C49.2205 117.283 49.096 117.001 48.8916 116.771C48.6873 116.541 48.4215 116.369 48.0874 116.262C47.8712 116.188 47.6647 116.154 47.4679 116.158C47.2712 116.162 47.091 116.199 46.92 116.281C46.7491 116.363 46.6005 116.484 46.4679 116.645L45.751 116.154C45.9275 115.915 46.1448 115.723 46.4145 115.592C46.6784 115.454 46.9754 115.381 47.3059 115.368C47.6363 115.356 47.981 115.407 48.3456 115.529Z" fill="#231F20"/>
<path d="M43.2712 113.503C43.7552 113.722 44.1186 114.028 44.3619 114.413C44.6053 114.798 44.731 115.231 44.7385 115.718C44.7465 116.199 44.6261 116.701 44.3913 117.208C44.1556 117.727 43.8451 118.146 43.4671 118.453C43.0891 118.759 42.675 118.955 42.2264 119.022C41.7777 119.089 41.3206 119.017 40.8551 118.805C40.4938 118.639 40.1994 118.427 39.9727 118.157C39.7455 117.893 39.5904 117.597 39.5139 117.269C39.4373 116.941 39.4557 116.614 39.5575 116.274L40.3474 116.637C40.3022 116.899 40.339 117.167 40.4639 117.442C40.5889 117.717 40.8194 117.936 41.1686 118.096C41.4746 118.239 41.7819 118.281 42.0837 118.228C42.3855 118.175 42.6688 118.032 42.9267 117.805C43.1847 117.578 43.4047 117.266 43.5859 116.882C43.768 116.485 43.8595 116.113 43.8735 115.76C43.8875 115.407 43.8095 115.098 43.6521 114.833C43.4947 114.569 43.2633 114.361 42.951 114.218C42.7488 114.127 42.5437 114.073 42.3411 114.07C42.1386 114.068 41.952 114.104 41.7748 114.186C41.5976 114.267 41.4427 114.388 41.3096 114.555L40.5197 114.192C40.7058 113.909 40.9381 113.686 41.2228 113.525C41.5075 113.363 41.8243 113.279 42.18 113.268C42.5294 113.257 42.8969 113.342 43.277 113.509L43.2712 113.503Z" fill="#231F20"/>
<path d="M36.8469 117.762C36.9929 117.843 37.0977 117.964 37.1493 118.12C37.2004 118.282 37.189 118.433 37.1151 118.572C37.0348 118.712 36.9201 118.804 36.7583 118.849C36.5966 118.893 36.4395 118.875 36.294 118.788C36.1485 118.701 36.0432 118.586 35.9916 118.43C35.9404 118.269 35.9518 118.118 36.0258 117.978C36.0997 117.838 36.2207 117.746 36.3825 117.702C36.5443 117.657 36.7014 117.675 36.8469 117.762ZM40.3975 112.205L37.6853 117.149L36.9248 116.732L39.637 111.787L40.3975 112.205Z" fill="#231F20"/>
<path d="M32.7982 112.729L33.5725 112.965C33.5431 113.102 33.5385 113.247 33.546 113.399C33.5598 113.552 33.6114 113.707 33.7071 113.866C33.8028 114.025 33.9503 114.169 34.1681 114.305C34.4582 114.492 34.7433 114.576 35.0224 114.572C35.302 114.562 35.5063 114.457 35.6359 114.252C35.751 114.071 35.7778 113.884 35.716 113.696C35.6542 113.508 35.4998 113.288 35.2653 113.036L34.6727 112.41C34.3145 112.035 34.0944 111.677 34.0256 111.331C33.9504 110.984 34.0202 110.648 34.2354 110.317C34.408 110.045 34.6446 109.849 34.9382 109.738C35.2321 109.621 35.5573 109.595 35.9145 109.648C36.2717 109.7 36.6344 109.847 37.0094 110.084C37.493 110.393 37.8332 110.753 38.0107 111.171C38.1882 111.589 38.2 112.02 38.0258 112.48L37.2224 112.211C37.3208 111.915 37.316 111.643 37.2144 111.395C37.1127 111.147 36.9074 110.93 36.611 110.743C36.2725 110.528 35.9505 110.428 35.6579 110.443C35.3652 110.459 35.1478 110.569 35.0182 110.774C34.9109 110.937 34.8845 111.118 34.9279 111.298C34.9713 111.478 35.0951 111.684 35.3014 111.889L35.978 112.578C36.3483 112.96 36.5679 113.324 36.6304 113.67C36.693 114.016 36.6232 114.352 36.4143 114.684C36.2422 114.949 36.0123 115.14 35.7314 115.251C35.4505 115.363 35.138 115.39 34.7996 115.339C34.4613 115.288 34.1229 115.155 33.7906 114.94C33.3191 114.639 33.0152 114.3 32.879 113.924C32.7428 113.547 32.7218 113.153 32.8293 112.738L32.7982 112.729Z" fill="#231F20"/>
<path d="M30.022 113.41C30.1603 113.509 30.239 113.642 30.2707 113.808C30.3025 113.975 30.2664 114.118 30.1677 114.249C30.069 114.381 29.9431 114.453 29.7769 114.472C29.6108 114.491 29.4619 114.449 29.3237 114.35C29.1854 114.251 29.1067 114.118 29.075 113.952C29.0432 113.785 29.0793 113.642 29.178 113.511C29.2767 113.379 29.4026 113.307 29.5687 113.288C29.7349 113.269 29.8838 113.311 30.022 113.41ZM34.2989 108.388L30.9401 112.917L30.2439 112.403L33.6028 107.874L34.2989 108.388Z" fill="#231F20"/>
<path d="M30.9199 105.56C31.3066 105.893 31.5626 106.279 31.6946 106.712C31.8265 107.146 31.8306 107.595 31.7063 108.065C31.582 108.536 31.3321 108.991 30.9504 109.43C30.5682 109.875 30.1514 110.191 29.6996 110.384C29.2478 110.578 28.7996 110.639 28.3546 110.573C27.9034 110.508 27.4878 110.306 27.101 109.973C26.7143 109.64 26.4579 109.261 26.3259 108.827C26.1939 108.394 26.1903 107.939 26.3147 107.468C26.439 106.997 26.6956 106.536 27.0778 106.091C27.4595 105.653 27.8763 105.337 28.3218 105.143C28.7669 104.955 29.2151 104.894 29.6663 104.96C30.1176 105.026 30.5332 105.228 30.9199 105.56ZM30.4129 106.148C30.1213 105.898 29.8148 105.761 29.4926 105.749C29.1766 105.738 28.8603 105.815 28.5625 105.982C28.2584 106.149 27.9878 106.375 27.7382 106.659C27.4886 106.944 27.3068 107.252 27.1876 107.572C27.0679 107.898 27.0311 108.217 27.0897 108.531C27.1483 108.845 27.3232 109.13 27.6148 109.38C27.9059 109.636 28.2129 109.766 28.5352 109.778C28.8574 109.79 29.1675 109.712 29.4716 109.546C29.7756 109.379 30.0525 109.154 30.2958 108.869C30.5455 108.584 30.7267 108.282 30.8464 107.956C30.9661 107.63 30.9962 107.317 30.9376 107.003C30.879 106.688 30.7036 106.41 30.4062 106.153L30.4129 106.148Z" fill="#231F20"/>
<path d="M25.2581 105.101L27.7339 102.779L28.3261 103.412L24.2069 107.271L23.6322 106.658L24.2734 106.056L24.2205 106.002C23.9216 106.099 23.6164 106.114 23.2988 106.039C22.9876 105.965 22.6854 105.772 22.3923 105.459C22.1282 105.18 21.9606 104.883 21.8768 104.567C21.7929 104.251 21.8109 103.93 21.931 103.598C22.0512 103.266 22.2853 102.936 22.6395 102.609L25.2581 100.159L25.8502 100.792L23.2791 103.2C22.9583 103.505 22.7819 103.826 22.7567 104.159C22.7315 104.492 22.8594 104.812 23.1351 105.104C23.3225 105.308 23.5403 105.445 23.7754 105.519C24.0105 105.594 24.2572 105.6 24.5096 105.531C24.762 105.461 25.007 105.322 25.2523 105.094L25.2581 105.101Z" fill="#231F20"/>
<path d="M16.5055 101.355L15.9154 100.444L19.7806 94.9168L19.7354 94.8439L13.0899 96.079L12.4998 95.1686L18.8338 91.098L19.2991 91.8157L14.4902 94.9085L14.53 94.9683L20.6154 93.8489L21.0637 94.54L17.5312 99.6061L17.5711 99.666L22.38 96.5732L22.8453 97.2908L16.5113 101.361L16.5055 101.355Z" fill="#231F20"/>
<path d="M17.4789 87.8991C17.7142 88.3909 17.805 88.8653 17.7514 89.3226C17.7041 89.7803 17.5269 90.1966 17.2197 90.5715C16.9189 90.9468 16.5021 91.2628 15.983 91.5079C15.4575 91.7525 14.9537 91.8787 14.4599 91.873C13.9661 91.8672 13.5312 91.7522 13.1437 91.5143C12.7561 91.2765 12.4532 90.925 12.2345 90.4661C12.109 90.1975 12.0287 89.9197 11.9948 89.6138C11.9604 89.3142 11.99 89.0068 12.0889 88.7047C12.1878 88.4025 12.3686 88.1066 12.6371 87.8236C12.9057 87.5406 13.2731 87.2903 13.7525 87.0675L14.0876 86.9096L15.9514 90.8357L15.2744 91.1573L13.7879 88.0244C13.4988 88.1605 13.2698 88.339 13.0947 88.5596C12.9196 88.7802 12.8187 89.0253 12.792 89.295C12.7589 89.5642 12.8141 89.8401 12.9444 90.128C13.0917 90.4425 13.2961 90.6728 13.557 90.8252C13.8179 90.9776 14.103 91.0624 14.4069 91.0664C14.7107 91.0704 15.0004 91.0102 15.2832 90.8736L15.7365 90.6615C16.1239 90.4822 16.4197 90.2582 16.6228 90.0018C16.826 89.7455 16.9428 89.4573 16.9656 89.1557C16.9884 88.8541 16.9298 88.54 16.7762 88.2251C16.6775 88.0218 16.5639 87.8489 16.4227 87.7055C16.2873 87.5689 16.1306 87.4622 15.9517 87.3981C15.7727 87.334 15.5847 87.3072 15.3744 87.3229L15.2302 86.4652C15.5247 86.4243 15.8141 86.4525 16.0982 86.5498C16.3823 86.6471 16.6428 86.8059 16.8791 87.0323C17.1155 87.2587 17.3155 87.5455 17.4798 87.8866L17.4789 87.8991Z" fill="#231F20"/>
<path d="M15.3992 82.8068C15.5822 83.3198 15.6217 83.803 15.5244 84.2507C15.4272 84.6983 15.2068 85.0987 14.8642 85.4393C14.5216 85.7799 14.0767 86.0495 13.5362 86.2424C12.9893 86.4349 12.4709 86.5031 11.9872 86.4476C11.4972 86.3915 11.0724 86.2267 10.7129 85.9531C10.3534 85.6794 10.0844 85.2989 9.91795 84.8187C9.81868 84.5395 9.77076 84.2515 9.76837 83.948C9.76598 83.6445 9.82659 83.3458 9.95652 83.0523C10.0864 82.7588 10.2973 82.484 10.5887 82.2344C10.88 81.9847 11.2766 81.7682 11.7774 81.5976L12.1223 81.4783L13.5609 85.5808L12.8513 85.8305L11.7047 82.5589C11.4054 82.6626 11.1594 82.8147 10.9601 83.0207C10.7675 83.221 10.6356 83.4575 10.5778 83.7185C10.5196 83.9858 10.5365 84.2652 10.6469 84.5642C10.7617 84.8888 10.939 85.1424 11.185 85.3253C11.4309 85.5082 11.7015 85.6171 12.003 85.6525C12.3045 85.688 12.6044 85.6601 12.8974 85.5559L13.3726 85.3896C13.776 85.2495 14.0946 85.0588 14.3215 84.8232C14.5485 84.5876 14.6954 84.3207 14.7502 84.0152C14.8045 83.716 14.7779 83.398 14.6635 83.0671C14.591 82.853 14.4909 82.6685 14.3695 82.514C14.2481 82.3595 14.0987 82.2408 13.9338 82.1588C13.7626 82.0763 13.5759 82.0306 13.3671 82.0275L13.3125 81.1576C13.611 81.1486 13.8921 81.2015 14.1676 81.3297C14.443 81.458 14.6827 81.6404 14.8982 81.8905C15.1138 82.1406 15.2809 82.4439 15.4055 82.8072L15.3992 82.8068Z" fill="#231F20"/>
<path d="M7.42304 81.1102L7.2076 80.2724L12.4224 78.9354C12.6612 78.8776 12.8258 78.7953 12.9284 78.6956C13.031 78.596 13.0837 78.4862 13.0927 78.3668C13.1017 78.2474 13.0918 78.1266 13.0631 78.0044C13.0382 77.9141 13.0124 77.8363 12.991 77.7841C12.9638 77.7252 12.9419 77.6793 12.9254 77.6464L13.6372 77.2832C13.6712 77.3363 13.7164 77.4093 13.7665 77.5015C13.816 77.6001 13.8574 77.7232 13.9027 77.8783C13.9607 78.1165 13.9742 78.3577 13.9295 78.6134C13.8853 78.8628 13.779 79.0949 13.6053 79.2966C13.4317 79.4983 13.1867 79.6378 12.8698 79.7212L7.42257 81.1164L7.42304 81.1102ZM8.21479 78.7688L8.92544 78.5887L9.65558 81.418L8.94493 81.5981L8.21479 78.7688Z" fill="#231F20"/>
<path d="M8.4825 73.3863L8.83298 74.1142C8.7134 74.1873 8.59868 74.2798 8.49514 74.392C8.39161 74.5042 8.31089 74.6498 8.25978 74.8228C8.20867 74.9959 8.20559 75.2042 8.25006 75.454C8.31308 75.7937 8.43851 76.0623 8.63264 76.2602C8.82678 76.4581 9.04254 76.5377 9.28672 76.4929C9.49844 76.4584 9.65238 76.35 9.74807 76.174C9.84376 75.9979 9.90152 75.7369 9.92719 75.3976L9.9923 74.5368C10.0187 74.0207 10.1378 73.6189 10.3433 73.3312C10.5488 73.0434 10.8471 72.87 11.2327 72.7981C11.5539 72.7403 11.8549 72.782 12.1357 72.9233C12.4165 73.0646 12.6601 73.2789 12.8655 73.5788C13.071 73.8787 13.2082 74.243 13.283 74.6783C13.3797 75.2417 13.3422 75.7381 13.1591 76.1476C12.9756 76.5634 12.6616 76.862 12.2044 77.0422L11.8572 76.2703C12.1458 76.1405 12.3438 75.9532 12.4568 75.7153C12.5703 75.4712 12.5927 75.1759 12.5301 74.8299C12.4588 74.4327 12.3168 74.1313 12.1106 73.9261C11.898 73.7205 11.6759 73.6405 11.4322 73.6789C11.2394 73.7149 11.0864 73.8107 10.9796 73.967C10.8727 74.1232 10.8115 74.346 10.7954 74.6418L10.7416 75.6046C10.708 76.1328 10.5884 76.5408 10.3771 76.8219C10.1657 77.1029 9.86747 77.2762 9.48183 77.3481C9.1674 77.4002 8.87222 77.3652 8.60356 77.2311C8.32859 77.0966 8.09712 76.8895 7.90964 76.6036C7.71586 76.3172 7.58888 75.9854 7.51707 75.5945C7.41933 75.0436 7.46615 74.5922 7.6517 74.2334C7.83725 73.8746 8.11791 73.5988 8.48833 73.3931L8.4825 73.3863Z" fill="#231F20"/>
<path d="M4.89126 68.2551L12.417 67.8638L12.4625 68.7709L4.93671 69.1622L4.89126 68.2551Z" fill="#231F20"/>
<path d="M8.95212 65.586L12.3488 65.666L12.3278 66.5301L6.67909 66.3999L6.6982 65.5609L7.5836 65.5836L7.5893 65.5082C7.30221 65.3664 7.07657 65.1661 6.90752 64.8879C6.73846 64.6097 6.65701 64.2623 6.66996 63.8399C6.67957 63.4615 6.76194 63.1265 6.92919 62.8422C7.09014 62.5573 7.33454 62.342 7.65027 62.189C7.96601 62.0359 8.37055 61.9654 8.85129 61.9765L12.4443 62.0587L12.4232 62.9228L8.89376 62.8391C8.45082 62.8309 8.10061 62.9371 7.84313 63.1577C7.59195 63.3789 7.46013 63.6975 7.44909 64.0948C7.44078 64.3722 7.49833 64.6166 7.61448 64.8403C7.73063 65.0639 7.90147 65.2348 8.12603 65.3655C8.3506 65.4963 8.63079 65.5617 8.95937 65.5739L8.95212 65.586Z" fill="#231F20"/>
<path d="M12.8999 58.883C12.8395 59.3461 12.67 59.744 12.3856 60.07C12.1011 60.3961 11.7283 60.6333 11.2677 60.7754C10.807 60.9174 10.2784 60.9533 9.68852 60.8771C9.09864 60.8009 8.60458 60.6308 8.19325 60.3722C7.78823 60.1141 7.48971 59.7882 7.29723 59.4008C7.11105 59.0139 7.04256 58.579 7.10341 58.1097C7.14988 57.7467 7.24735 57.4634 7.39534 57.266C7.54333 57.0687 7.70013 56.9226 7.86525 56.834C8.03084 56.7391 8.16933 56.6674 8.27442 56.6185L8.28012 56.5431L5.52559 56.1831L5.6348 55.3256L13.1079 56.3016L13.0005 57.1339L12.1407 57.0247L12.1331 57.1252C12.2224 57.2015 12.3349 57.3048 12.4767 57.4419C12.6184 57.579 12.7311 57.7644 12.8215 57.9924C12.9115 58.2267 12.9338 58.5191 12.8878 58.8758L12.8999 58.883ZM12.1431 58.6678C12.1882 58.3237 12.1349 58.0226 11.9838 57.7584C11.8327 57.4942 11.608 57.2814 11.2971 57.1188C10.9863 56.9563 10.6275 56.8407 10.2005 56.7894C9.78024 56.7324 9.40519 56.7482 9.07578 56.8307C8.74637 56.9133 8.47569 57.0571 8.26909 57.2752C8.06249 57.4934 7.93352 57.7744 7.88848 58.1185C7.84201 58.4815 7.89433 58.7951 8.05126 59.066C8.20867 59.3307 8.43335 59.5436 8.73792 59.7057C9.0425 59.8677 9.38915 59.9761 9.78466 60.0249C10.1865 60.0743 10.5547 60.0642 10.8968 59.9827C11.2388 59.9011 11.5162 59.7515 11.7417 59.5348C11.9672 59.318 12.0967 59.0308 12.149 58.6746L12.1431 58.6678Z" fill="#231F20"/>
<path d="M11.9255 51.1571L8.67703 50.3742L8.88028 49.5302L14.3757 50.8495L14.1724 51.6935L13.2451 51.4717L13.2282 51.5273C13.4795 51.7233 13.6631 51.9773 13.791 52.2966C13.9189 52.6159 13.9359 52.9774 13.8348 53.3931C13.7519 53.7344 13.6036 54.0201 13.3897 54.2504C13.1759 54.4807 12.8917 54.6361 12.5501 54.7114C12.2081 54.7929 11.8039 54.775 11.3376 54.6576L7.84622 53.8185L8.04946 52.9744L11.4846 53.803C11.8831 53.8963 12.2344 53.8597 12.5254 53.6985C12.8168 53.5309 13.0074 53.2736 13.0907 52.9261C13.1384 52.7148 13.1366 52.4872 13.0849 52.2495C13.0273 52.005 12.9112 51.7814 12.7233 51.5839C12.5355 51.3864 12.2741 51.2403 11.9318 51.1575L11.9255 51.1571Z" fill="#231F20"/>
<path d="M11.8784 44.5752L11.8302 45.3804C11.6906 45.3825 11.5491 45.4097 11.4 45.4553C11.2508 45.5008 11.1108 45.5914 10.9812 45.7143C10.8515 45.8371 10.7422 46.0248 10.6612 46.2588C10.5478 46.5851 10.5254 46.8804 10.6 47.1515C10.6745 47.4225 10.8265 47.592 11.0548 47.6724C11.2585 47.7447 11.4436 47.7271 11.6164 47.6201C11.7892 47.5131 11.9624 47.3177 12.1554 47.029L12.6282 46.3065C12.9082 45.8727 13.2092 45.5795 13.5312 45.4269C13.8532 45.2743 14.1958 45.2686 14.5663 45.3978C14.8751 45.5033 15.1148 45.6857 15.2916 45.9455C15.4746 46.2058 15.5783 46.5106 15.6079 46.8731C15.6375 47.2355 15.5829 47.6232 15.4376 48.0355C15.2446 48.577 14.9728 48.9862 14.6098 49.262C14.2468 49.5379 13.8272 49.6388 13.3377 49.5765L13.414 48.7356C13.729 48.7594 13.9935 48.6972 14.2084 48.5366C14.4229 48.3822 14.5936 48.136 14.7079 47.7971C14.8445 47.4156 14.8634 47.0822 14.783 46.8044C14.6968 46.5198 14.5391 46.3436 14.3107 46.2631C14.1255 46.1985 13.9472 46.2103 13.7762 46.2922C13.6048 46.3803 13.4403 46.5448 13.2822 46.7919L12.7644 47.6059C12.4772 48.0517 12.1762 48.3449 11.8484 48.4907C11.5273 48.6308 11.1779 48.6422 10.8075 48.5131C10.5049 48.4081 10.2711 48.2324 10.1001 47.9794C9.92917 47.7263 9.82455 47.434 9.7998 47.0909C9.76876 46.7474 9.82106 46.3911 9.95038 46.0217C10.1362 45.4924 10.3925 45.12 10.7323 44.8992C11.0659 44.678 11.4481 44.5679 11.8721 44.5747L11.8784 44.5752Z" fill="#231F20"/>
<path d="M10.187 41.888L10.5386 41.0931L15.4688 43.2669C15.6957 43.3663 15.8765 43.4052 16.0171 43.3906C16.1576 43.3759 16.2694 43.3212 16.3522 43.2327C16.4349 43.1441 16.4997 43.0416 16.5528 42.9256C16.591 42.84 16.6156 42.766 16.6329 42.7041C16.6503 42.6423 16.6604 42.5925 16.6691 42.5615L17.4558 42.7158C17.4511 42.7787 17.4449 42.8603 17.4179 42.9657C17.3972 43.0716 17.3557 43.2011 17.2876 43.3477C17.1881 43.5739 17.0464 43.7717 16.8499 43.9401C16.6534 44.1085 16.4355 44.2247 16.172 44.2743C15.9147 44.3244 15.6326 44.2841 15.332 44.1539L10.187 41.888ZM12.2659 40.5413L12.9404 40.8387L11.7561 43.5106L11.0816 43.2131L12.2659 40.5413Z" fill="#231F20"/>
<path d="M17.8695 41.9384L12.8587 39.3225L13.2443 38.5807L14.0004 38.9728L14.0299 38.9182C13.8309 38.7009 13.7122 38.4265 13.6856 38.1086C13.6589 37.7906 13.7205 37.4793 13.8761 37.1814C13.9056 37.1268 13.9428 37.0538 13.9935 36.9691C14.0443 36.8845 14.0742 36.8236 14.1028 36.7815L14.8831 37.1881C14.8831 37.1881 14.8202 37.2655 14.7569 37.3491C14.6935 37.4328 14.6355 37.5295 14.5838 37.6267C14.4577 37.87 14.395 38.1117 14.3959 38.3519C14.3967 38.592 14.4557 38.8177 14.58 39.0167C14.6976 39.2214 14.8694 39.3798 15.1012 39.4984L18.271 41.1537L17.8709 41.9196L17.8695 41.9384Z" fill="#231F20"/>
<path d="M21.6466 39.4183C21.5673 39.545 21.4899 39.6465 21.4077 39.7288C21.3254 39.811 21.264 39.8696 21.2243 39.8918L20.699 39.296C20.8558 39.1499 20.9748 39.0009 21.0492 38.8549C21.1236 38.7089 21.1418 38.5523 21.0979 38.3783C21.0604 38.2049 20.9433 37.9938 20.7588 37.7524L20.4766 37.3772L14.5611 36.0829L15.0707 35.2937L19.7076 36.4027L19.7366 36.3544L16.7808 32.6237L17.2904 31.8344L21.456 37.3312C21.6463 37.5794 21.7736 37.8228 21.851 38.0562C21.9279 38.2958 21.9486 38.5248 21.9126 38.7496C21.8766 38.9744 21.7897 39.2016 21.6466 39.4183Z" fill="#231F20"/>
<path d="M25.6535 30.4262L24.0976 32.1473L18.4964 27.117L20.1215 25.3189C20.6125 24.7747 21.1402 24.4165 21.7122 24.226C22.2838 24.0417 22.8673 24.0353 23.4694 24.2009C24.0715 24.3665 24.6598 24.7144 25.2416 25.2323C25.823 25.7565 26.2309 26.3119 26.4658 26.892C26.7002 27.4785 26.7506 28.07 26.6167 28.6665C26.4829 29.263 26.16 29.8452 25.6482 30.4131L25.6535 30.4262ZM24.1069 30.9348L25.0131 29.9291C25.4282 29.4676 25.6849 29.0067 25.7835 28.5403C25.8822 28.0738 25.8277 27.621 25.6332 27.1766C25.4387 26.7322 25.11 26.3029 24.6529 25.8955C24.2021 25.4886 23.7476 25.2141 23.2836 25.0652C22.8259 24.9169 22.3699 24.914 21.9354 25.0454C21.4941 25.1826 21.0797 25.4672 20.6859 25.8988L19.7106 26.9814L24.1074 30.9285L24.1069 30.9348Z" fill="#231F20"/>
<path d="M30.5657 25.717C30.1582 26.078 29.7239 26.2916 29.268 26.3708C28.8121 26.4501 28.3599 26.3969 27.9113 26.2113C27.4628 26.0257 27.049 25.7164 26.6635 25.2828C26.2781 24.8493 26.0211 24.3938 25.892 23.9227C25.7566 23.4512 25.753 22.9959 25.8749 22.5565C25.9969 22.1171 26.2478 21.7316 26.6345 21.3944C26.8581 21.2028 27.1045 21.0445 27.3854 20.933C27.6668 20.8153 27.9686 20.7623 28.2909 20.774C28.6132 20.7858 28.9424 20.8739 29.2901 21.0518C29.6315 21.2293 29.9775 21.5145 30.3279 21.9076L30.5731 22.1852L27.3019 25.0531L26.8058 24.4911L29.412 22.2048C29.2018 21.9677 28.968 21.7921 28.7032 21.6899C28.4448 21.5882 28.1811 21.5556 27.9117 21.5984C27.6424 21.6412 27.392 21.7676 27.1544 21.9772C26.8964 22.2041 26.7248 22.4628 26.6516 22.7606C26.5783 23.0584 26.5754 23.3488 26.6548 23.6392C26.7342 23.9296 26.879 24.1933 27.0829 24.4299L27.4159 24.8026C27.696 25.1208 27.9895 25.3452 28.2969 25.4696C28.6044 25.5939 28.9063 25.6231 29.2086 25.5638C29.5109 25.5045 29.7879 25.3612 30.0526 25.1284C30.2225 24.977 30.355 24.8164 30.4566 24.6471C30.5518 24.4774 30.6097 24.2985 30.6239 24.11C30.6382 23.9215 30.6083 23.7297 30.5344 23.5346L31.3169 23.1577C31.4361 23.4258 31.4903 23.7143 31.4805 24.0105C31.4645 24.3063 31.385 24.6036 31.2299 24.8952C31.081 25.1873 30.8576 25.461 30.5725 25.7112L30.5657 25.717Z" fill="#231F20"/>
<path d="M32.7607 23.5892L29.6038 18.9144L30.2981 18.4488L30.7939 19.1814L30.854 19.1417C30.7827 18.8266 30.8119 18.5255 30.9345 18.2441C31.0572 17.9627 31.2725 17.7136 31.5794 17.5093C31.8868 17.2988 32.1925 17.1955 32.4963 17.1995C32.7943 17.1968 33.0915 17.2888 33.3767 17.4557L33.4237 17.4214C33.3781 17.102 33.4276 16.7834 33.5706 16.4846C33.714 16.1795 33.956 15.9134 34.2895 15.6922C34.7102 15.4081 35.1423 15.3081 35.5796 15.3917C36.0231 15.4758 36.4301 15.7909 36.8007 16.3371L38.9148 19.467L38.194 19.9496L36.0799 16.8197C35.8462 16.4735 35.5877 16.2896 35.2974 16.274C35.0071 16.2583 34.7358 16.3263 34.4817 16.503C34.1544 16.7247 33.9629 16.9945 33.9135 17.3131C33.864 17.6316 33.942 17.9408 34.147 18.247L36.2043 21.2904L35.4699 21.7846L33.3043 18.5814C33.1216 18.3148 32.8927 18.1584 32.6111 18.1119C32.3294 18.0653 32.0519 18.1328 31.7783 18.3143C31.5915 18.4392 31.4521 18.6056 31.3541 18.813C31.2623 19.0209 31.22 19.2452 31.2397 19.4868C31.2595 19.7284 31.3495 19.9627 31.503 20.1955L33.4743 23.1187L32.7535 23.6013L32.7607 23.5892Z" fill="#231F20"/>
<path d="M41.3639 18.4201C41.0414 18.5789 40.7246 18.6624 40.4004 18.6758C40.0763 18.6892 39.7844 18.6102 39.5109 18.4568C39.2436 18.3039 39.0213 18.0596 38.8624 17.7316C38.7195 17.4428 38.657 17.179 38.6814 16.9407C38.6995 16.7019 38.7854 16.4873 38.9271 16.2894C39.0688 16.0916 39.241 15.9088 39.4438 15.7409C39.6466 15.5729 39.8611 15.4185 40.0813 15.2709C40.3684 15.0778 40.6018 14.9248 40.7819 14.8057C40.962 14.6867 41.0839 14.5821 41.1482 14.4859C41.2126 14.3897 41.2143 14.2824 41.1478 14.1573L41.1371 14.1312C40.9713 13.809 40.7592 13.5971 40.4935 13.5075C40.2279 13.4179 39.9139 13.4636 39.5585 13.6389C39.1895 13.8259 38.9378 14.0533 38.8103 14.3154C38.6822 14.5837 38.6191 14.8317 38.6277 15.0535L37.758 15.1584C37.7356 14.7838 37.7919 14.4595 37.9271 14.1791C38.0624 13.8986 38.2389 13.6592 38.4698 13.4555C38.6938 13.2576 38.9407 13.093 39.1911 12.9666C39.3557 12.8843 39.5514 12.8106 39.7781 12.7456C40.0111 12.6811 40.2539 12.6552 40.5122 12.6748C40.7705 12.6943 41.0231 12.7892 41.2763 12.96C41.5296 13.1309 41.7548 13.4196 41.9527 13.82L43.6217 17.1374L42.8445 17.5273L42.5033 16.8443L42.4636 16.8666C42.4662 16.9995 42.4413 17.1619 42.3766 17.3466C42.3182 17.5317 42.209 17.7194 42.0489 17.9095C41.8888 18.0996 41.6608 18.2656 41.3707 18.4142L41.3639 18.4201ZM41.1297 17.663C41.4391 17.5095 41.6627 17.3179 41.8189 17.0959C41.9693 16.8671 42.0504 16.6331 42.0626 16.3876C42.0811 16.1426 42.0285 15.9174 41.924 15.7073L41.5658 14.9977C41.5552 15.0538 41.4991 15.1254 41.4037 15.213C41.3084 15.3005 41.1937 15.393 41.0664 15.4844C40.9323 15.5817 40.8054 15.6669 40.6786 15.7521C40.5518 15.8373 40.4516 15.9055 40.3717 15.9564C40.1848 16.0813 40.0159 16.2201 39.8717 16.3672C39.7275 16.5143 39.6269 16.671 39.5826 16.8382C39.532 17.005 39.556 17.1901 39.6551 17.3872C39.7932 17.6567 39.9906 17.8106 40.2606 17.8437C40.5301 17.883 40.8198 17.8228 41.1292 17.6693L41.1297 17.663Z" fill="#231F20"/>
<path d="M44.2347 13.2218L45.4393 16.3966L44.6242 16.7014L42.6212 11.4315L43.4039 11.1368L43.7153 11.9629L43.787 11.9367C43.8107 11.6226 43.915 11.3334 44.1055 11.0761C44.2961 10.8188 44.5904 10.6136 44.9885 10.4605C45.3474 10.3233 45.6866 10.2795 46.0128 10.3231C46.339 10.3667 46.6261 10.5085 46.8871 10.7431C47.1477 10.984 47.3629 11.3225 47.5317 11.7713L48.8054 15.122L47.9903 15.4268L46.7375 12.1346C46.5789 11.7182 46.3532 11.4357 46.0476 11.2862C45.7421 11.1367 45.4068 11.1303 45.0285 11.2723C44.7675 11.3726 44.5603 11.5149 44.4001 11.705C44.24 11.8951 44.141 12.1151 44.1084 12.3781C44.0763 12.6347 44.1117 12.9218 44.2279 13.2276L44.2347 13.2218Z" fill="#231F20"/>
<path d="M51.9295 14.3663C51.4708 14.4832 51.0409 14.4697 50.6331 14.3314C50.2254 14.1931 49.8649 13.9321 49.5571 13.5612C49.2494 13.1904 49.0194 12.7117 48.8727 12.1382C48.726 11.5647 48.6957 11.0443 48.7822 10.5706C48.8687 10.0969 49.0571 9.70036 49.3537 9.38157C49.644 9.06229 50.0217 8.84441 50.4809 8.72117C50.8364 8.628 51.1354 8.6127 51.371 8.68108C51.6071 8.74317 51.803 8.83382 51.952 8.95883C52.1014 9.07756 52.2208 9.17505 52.3033 9.25712L52.3745 9.23723L51.678 6.54949L52.518 6.33498L54.4071 13.6121L53.5928 13.8223L53.3774 12.9845L53.2805 13.0088C53.2463 13.1262 53.1908 13.2737 53.114 13.4511C53.0372 13.6286 52.9095 13.8085 52.7319 13.9783C52.548 14.1477 52.2846 14.2794 51.9353 14.373L51.9295 14.3663ZM51.8494 13.583C52.1855 13.4947 52.4513 13.3315 52.6337 13.0989C52.816 12.8662 52.9334 12.5718 52.9721 12.2271C53.0108 11.8825 52.9763 11.5008 52.8745 11.0886C52.7658 10.6823 52.6141 10.3422 52.4198 10.0621C52.2188 9.78786 51.9864 9.59334 51.7037 9.47717C51.421 9.361 51.1171 9.35697 50.7746 9.44481C50.4191 9.53798 50.147 9.70065 49.9574 9.94539C49.7678 10.1901 49.6572 10.4788 49.619 10.8171C49.5807 11.1554 49.6103 11.5179 49.7141 11.9049C49.8179 12.2919 49.9633 12.6315 50.1702 12.9125C50.3703 13.1994 50.6148 13.4011 50.9028 13.5303C51.1851 13.6528 51.5069 13.6708 51.8556 13.5834L51.8494 13.583Z" fill="#231F20"/>
<path d="M58.8961 8.46664L58.161 8.80282C58.0939 8.684 58.0012 8.56956 57.8891 8.45998C57.777 8.35039 57.6373 8.27031 57.4642 8.21299C57.2911 8.15566 57.0827 8.14622 56.8327 8.18418C56.4931 8.23432 56.2175 8.35882 56.0133 8.54558C55.8086 8.73863 55.729 8.95377 55.7618 9.19006C55.7965 9.40122 55.8985 9.56059 56.0683 9.6619C56.2443 9.76368 56.4993 9.8272 56.8454 9.8597L57.7076 9.93756C58.2238 9.98292 58.6257 10.1144 58.9076 10.3253C59.1894 10.5362 59.3634 10.8337 59.4226 11.2237C59.4681 11.5431 59.4201 11.8428 59.2785 12.1227C59.1307 12.4022 58.91 12.6383 58.6036 12.8363C58.2976 13.028 57.9266 13.1579 57.4968 13.2265C56.9266 13.3098 56.4361 13.26 56.0258 13.071C55.6156 12.882 55.3234 12.5566 55.1492 12.0947L55.9343 11.7687C56.0583 12.0561 56.2393 12.2593 56.4774 12.3785C56.7155 12.4976 57.0112 12.5263 57.3634 12.4771C57.7607 12.4187 58.0687 12.284 58.2807 12.0788C58.4926 11.8737 58.579 11.6528 58.5404 11.4097C58.5105 11.2179 58.4207 11.0657 58.2645 10.9528C58.1083 10.8399 57.8852 10.7725 57.5954 10.7506L56.6314 10.6776C56.1027 10.6313 55.6944 10.4993 55.4198 10.2764C55.1447 10.0597 54.9713 9.75586 54.9179 9.37267C54.8719 9.05955 54.9194 8.76615 55.06 8.49875C55.2006 8.23135 55.4145 8.00108 55.7069 7.82098C55.9935 7.63413 56.3384 7.51488 56.7294 7.45599C57.2807 7.37131 57.7325 7.43076 58.0918 7.62223C58.4444 7.81952 58.7211 8.09953 58.914 8.48063L58.8961 8.46664Z" fill="#231F20"/>
<path d="M65.2973 11.1309C64.9992 11.1336 64.7263 11.0561 64.4838 10.9114C64.2349 10.7662 64.0403 10.5745 63.8941 10.3297C63.7479 10.0848 63.6733 9.81376 63.6705 9.51654C63.6676 9.21933 63.7389 8.94668 63.8902 8.70536C64.0416 8.46405 64.2274 8.26957 64.4733 8.11756C64.7188 7.97183 64.9905 7.8976 65.2886 7.89486C65.5866 7.89213 65.86 7.96336 66.1025 8.10809C66.345 8.25282 66.546 8.44495 66.6922 8.68982C66.8384 8.93468 66.913 9.20572 66.9158 9.50294C66.9187 9.80015 66.8474 10.0728 66.6961 10.3141C66.5506 10.5622 66.3585 10.7562 66.113 10.9019C65.8675 11.0477 65.5958 11.1219 65.2977 11.1246L65.2973 11.1309Z" fill="#AB9FE1"/>
</g>
<defs>
<clipPath id="clip0_621_5355">
<rect width="121" height="121" fill="white" transform="translate(9.73553 0.609131) rotate(4.32564)"/>
</clipPath>
</defs>
</svg>
