<svg width="36" height="36" viewBox="0 0 36 36" fill="none" xmlns="http://www.w3.org/2000/svg">
<path d="M1.5 6V15H10.5" stroke="#A8964E" stroke-width="3" stroke-linecap="round" stroke-linejoin="round"/>
<path d="M34.5 30V21H25.5" stroke="#A8964E" stroke-width="3" stroke-linecap="round" stroke-linejoin="round"/>
<path d="M30.735 13.4999C29.9742 11.35 28.6813 9.42797 26.9768 7.913C25.2723 6.39802 23.2118 5.33952 20.9876 4.83626C18.7633 4.333 16.4479 4.40138 14.2572 5.03503C12.0666 5.66868 10.0721 6.84694 8.46 8.45987L1.5 14.9999M34.5 20.9999L27.54 27.5399C25.9279 29.1528 23.9334 30.3311 21.7428 30.9647C19.5521 31.5984 17.2367 31.6667 15.0124 31.1635C12.7882 30.6602 10.7277 29.6017 9.0232 28.0867C7.3187 26.5718 6.02575 24.6497 5.265 22.4999" stroke="#A8964E" stroke-width="3" stroke-linecap="round" stroke-linejoin="round"/>
</svg>
