<svg width="80" height="80" viewBox="0 0 80 80" fill="none" xmlns="http://www.w3.org/2000/svg">
<mask id="mask0_621_5150" style="mask-type:luminance" maskUnits="userSpaceOnUse" x="0" y="0" width="80" height="80">
<path d="M80 0H0V80H80V0Z" fill="white"/>
</mask>
<g mask="url(#mask0_621_5150)">
<path d="M40.0007 21.492L45.2069 23.6976C45.9947 24.0313 46.8546 23.4067 46.7807 22.5543L46.2918 16.9212L49.9983 12.6513C50.5591 12.0053 50.2307 10.9945 49.3972 10.8013L43.8888 9.52572L40.9733 4.68103C40.5321 3.94791 39.4693 3.94791 39.028 4.68103L36.1125 9.52572L30.6041 10.8013C29.7705 10.9945 29.4422 12.0053 30.0032 12.6513L33.7096 16.9212L33.2207 22.5543C33.1468 23.4067 34.0066 24.0313 34.7944 23.6976L40.0007 21.492Z" stroke="#808080" stroke-width="3" stroke-miterlimit="10" stroke-linecap="round" stroke-linejoin="round"/>
<path d="M17.9276 29.8808L22.1383 31.6648C22.7755 31.9348 23.4712 31.4296 23.4113 30.7401L23.0158 26.184L26.0138 22.7305C26.4673 22.2079 26.2018 21.3904 25.5276 21.2343L21.0723 20.2024L18.7141 16.284C18.3574 15.6912 17.4977 15.6912 17.141 16.284L14.7827 20.2024L10.3274 21.2343C9.65335 21.3904 9.38772 22.2079 9.84132 22.7305L12.8393 26.184L12.4438 30.7401C12.384 31.4296 13.0794 31.9348 13.7166 31.6648L17.9276 29.8808Z" stroke="#808080" stroke-width="3" stroke-miterlimit="10" stroke-linecap="round" stroke-linejoin="round"/>
<path d="M62.0775 29.8808L66.2885 31.6648C66.9256 31.9348 67.6211 31.4296 67.5613 30.7401L67.1658 26.184L70.1638 22.7305C70.6174 22.2079 70.3517 21.3904 69.6775 21.2343L65.2222 20.2024L62.8642 16.284C62.5074 15.6912 61.6478 15.6912 61.291 16.284L58.9328 20.2024L54.4775 21.2343C53.8033 21.3904 53.5377 22.2079 53.9914 22.7305L56.9892 26.184L56.5938 30.7401C56.5339 31.4296 57.2294 31.9348 57.8666 31.6648L62.0775 29.8808Z" stroke="#808080" stroke-width="3" stroke-miterlimit="10" stroke-linecap="round" stroke-linejoin="round"/>
<path d="M9.25043 51.9834C9.25043 57.2193 13.495 61.4639 18.7309 61.4639C23.9668 61.4639 28.2114 57.2193 28.2114 51.9834C28.2114 46.7475 23.9668 42.5029 18.7309 42.5029C13.495 42.5029 9.25043 46.7475 9.25043 51.9834Z" stroke="#808080" stroke-width="3" stroke-miterlimit="10" stroke-linecap="round" stroke-linejoin="round"/>
<path d="M51.7977 51.9839C51.7977 57.2198 56.0423 61.4644 61.2782 61.4644C66.5141 61.4644 70.7587 57.2198 70.7587 51.9839C70.7587 46.748 66.5141 42.5034 61.2782 42.5034C56.0423 42.5034 51.7977 46.748 51.7977 51.9839Z" stroke="#808080" stroke-width="3" stroke-miterlimit="10" stroke-linecap="round" stroke-linejoin="round"/>
<path d="M54.0508 62.3438C55.2083 61.7803 56.2345 61.4642 57.6084 61.4642H64.9402C69.7806 61.4642 73.7045 65.3879 73.7045 70.2284V75.8696H55.7773" stroke="#808080" stroke-width="3" stroke-miterlimit="10" stroke-linecap="round" stroke-linejoin="round"/>
<path d="M24.2255 75.8696H6.29849V70.2284C6.29849 65.3879 10.2224 61.464 15.0626 61.464H22.3944C23.7685 61.464 24.7946 61.7803 25.9521 62.3438" stroke="#808080" stroke-width="3" stroke-miterlimit="10" stroke-linecap="round" stroke-linejoin="round"/>
<path d="M27.9709 45.5536C27.9709 52.1989 33.3581 57.5859 40.0034 57.5859C46.6487 57.5859 52.0358 52.1989 52.0358 45.5536C52.0358 38.9083 46.6487 33.5212 40.0034 33.5212C33.3581 33.5212 27.9709 38.9083 27.9709 45.5536Z" stroke="#808080" stroke-width="3" stroke-miterlimit="10" stroke-linecap="round" stroke-linejoin="round"/>
<path d="M55.7775 75.8696V68.7098C55.7775 62.5663 50.7974 57.5862 44.6541 57.5862H35.3486C29.2053 57.5862 24.225 62.5663 24.225 68.7098V75.8696" stroke="#808080" stroke-width="3" stroke-miterlimit="10" stroke-linecap="round" stroke-linejoin="round"/>
<path d="M78.4405 75.8696H47.0666" stroke="#808080" stroke-width="3" stroke-miterlimit="10" stroke-linecap="round" stroke-linejoin="round"/>
<path d="M32.9351 75.8696H1.56105" stroke="#808080" stroke-width="3" stroke-miterlimit="10" stroke-linecap="round" stroke-linejoin="round"/>
</g>
</svg>
