<svg width="1471" height="355" viewBox="0 0 1471 355" fill="none" xmlns="http://www.w3.org/2000/svg">
<path d="M0.833333 293C0.833333 296.682 3.8181 299.667 7.5 299.667C11.1819 299.667 14.1667 296.682 14.1667 293C14.1667 289.318 11.1819 286.333 7.5 286.333C3.8181 286.333 0.833333 289.318 0.833333 293ZM121.5 17L120.42 16.3702L120.377 16.4439L120.345 16.5228L121.5 17ZM169.5 17L170.707 16.6744L170.677 16.5655L170.629 16.4636L169.5 17ZM256.5 339.5L255.293 339.826L255.329 339.959L255.393 340.081L256.5 339.5ZM302 339.5L300.898 338.909L300.887 338.931L300.876 338.954L302 339.5ZM421 117.5L422.102 118.091L422.152 117.997L422.186 117.895L421 117.5ZM446.5 104L446.378 105.244L446.427 105.249L446.477 105.25L446.5 104ZM582.5 106.5L582.477 107.75L582.489 107.75H582.5V106.5ZM1402.5 106.5V107.75H1402.55L1402.6 107.746L1402.5 106.5ZM1421 125L1422.19 124.631L1422.19 124.607L1422.18 124.584L1421 125ZM1467.5 275.5L1470.71 261.427L1456.91 265.688L1467.5 275.5ZM145.5 2L145.582 0.752686L145.482 0.746099L145.381 0.755631L145.5 2ZM163 7.5L163.821 6.55749L163 7.5ZM427.5 106L428.227 107.017L427.5 106ZM8.65533 293.477L122.655 17.4772L120.345 16.5228L6.34467 292.523L8.65533 293.477ZM168.293 17.3256L255.293 339.826L257.707 339.174L170.707 16.6744L168.293 17.3256ZM255.393 340.081C266.402 361.051 294.207 358.405 303.124 340.046L300.876 338.954C292.793 355.595 267.598 357.949 257.607 338.919L255.393 340.081ZM303.102 340.091L422.102 118.091L419.898 116.909L300.898 338.909L303.102 340.091ZM446.477 105.25L582.477 107.75L582.523 105.25L446.523 102.75L446.477 105.25ZM582.5 107.75H1402.5V105.25H582.5V107.75ZM1419.81 125.369L1462.98 265.12L1465.37 264.382L1422.19 124.631L1419.81 125.369ZM122.58 17.6298C126.01 11.7485 129.243 8.44727 132.796 6.46685C136.37 4.47491 140.4 3.74137 145.619 3.24437L145.381 0.755631C140.1 1.25863 135.63 2.02509 131.579 4.28315C127.507 6.55273 123.99 10.2515 120.42 16.3702L122.58 17.6298ZM145.5 2C145.418 3.24731 145.418 3.2473 145.418 3.24729C145.418 3.2473 145.418 3.24729 145.418 3.24729C145.418 3.2473 145.418 3.24732 145.419 3.24734C145.419 3.2474 145.421 3.24751 145.423 3.24767C145.428 3.24799 145.436 3.24851 145.446 3.24925C145.466 3.25072 145.498 3.25305 145.541 3.25634C145.625 3.26291 145.753 3.27329 145.918 3.28823C146.248 3.31812 146.729 3.36623 147.324 3.43853C148.516 3.5833 150.159 3.8242 151.964 4.20804C155.639 4.98956 159.737 6.31492 162.179 8.44251L163.821 6.55749C160.862 3.97944 156.209 2.5548 152.484 1.76273C150.59 1.35977 148.871 1.10798 147.625 0.956761C147.002 0.881064 146.496 0.830346 146.143 0.798417C145.967 0.782448 145.829 0.771167 145.734 0.763804C145.686 0.760122 145.649 0.757419 145.624 0.755598C145.611 0.754687 145.601 0.753998 145.594 0.753516C145.591 0.753276 145.588 0.753087 145.586 0.752949C145.585 0.75288 145.584 0.752824 145.583 0.75278C145.583 0.752758 145.583 0.752734 145.582 0.752724C145.582 0.752703 145.582 0.752686 145.5 2ZM162.179 8.44251C163.716 9.78187 165.258 12.0118 166.449 13.9995C167.034 14.9769 167.517 15.8655 167.853 16.5094C168.021 16.831 168.152 17.0905 168.24 17.2684C168.284 17.3573 168.317 17.4258 168.34 17.4713C168.351 17.494 168.359 17.511 168.364 17.522C168.367 17.5275 168.369 17.5314 168.37 17.5339C168.37 17.5351 168.371 17.5359 168.371 17.5363C168.371 17.5365 168.371 17.5366 168.371 17.5367C168.371 17.5367 168.371 17.5366 168.371 17.5366C168.371 17.5365 168.371 17.5364 169.5 17C170.629 16.4636 170.629 16.4634 170.629 16.4632C170.629 16.4631 170.629 16.4629 170.629 16.4627C170.628 16.4624 170.628 16.4619 170.628 16.4613C170.627 16.4601 170.627 16.4586 170.626 16.4566C170.624 16.4527 170.621 16.4473 170.618 16.4403C170.611 16.4263 170.601 16.4061 170.589 16.3802C170.564 16.3284 170.527 16.2533 170.48 16.1574C170.384 15.9657 170.246 15.6907 170.069 15.3523C169.716 14.6763 169.209 13.7436 168.593 12.7151C167.381 10.691 165.673 8.17093 163.821 6.55749L162.179 8.44251ZM421 117.5C422.186 117.895 422.186 117.895 422.186 117.895C422.186 117.896 422.186 117.895 422.186 117.895C422.186 117.895 422.186 117.895 422.186 117.895C422.186 117.894 422.187 117.893 422.187 117.891C422.188 117.888 422.19 117.882 422.193 117.874C422.198 117.859 422.206 117.835 422.217 117.804C422.238 117.741 422.271 117.647 422.314 117.526C422.4 117.283 422.528 116.931 422.692 116.499C423.02 115.635 423.494 114.461 424.072 113.213C424.651 111.962 425.327 110.659 426.057 109.531C426.801 108.382 427.542 107.506 428.227 107.017L426.773 104.983C425.708 105.744 424.762 106.93 423.958 108.173C423.142 109.434 422.411 110.851 421.803 112.162C421.194 113.477 420.698 114.708 420.355 115.61C420.183 116.062 420.049 116.432 419.957 116.691C419.912 116.821 419.876 116.922 419.852 116.993C419.84 117.028 419.831 117.055 419.825 117.074C419.821 117.083 419.819 117.09 419.817 117.096C419.816 117.098 419.816 117.1 419.815 117.102C419.815 117.103 419.815 117.103 419.814 117.104C419.814 117.104 419.814 117.104 419.814 117.104C419.814 117.105 419.814 117.105 421 117.5ZM428.227 107.017C429.184 106.334 430.74 105.822 432.691 105.484C434.609 105.152 436.765 105.011 438.808 104.974C440.846 104.938 442.743 105.005 444.132 105.082C444.825 105.121 445.39 105.161 445.78 105.192C445.975 105.208 446.126 105.221 446.228 105.23C446.278 105.235 446.317 105.238 446.342 105.241C446.355 105.242 446.364 105.243 446.37 105.243C446.373 105.244 446.375 105.244 446.376 105.244C446.377 105.244 446.377 105.244 446.378 105.244C446.378 105.244 446.378 105.244 446.378 105.244C446.378 105.244 446.378 105.244 446.5 104C446.622 102.756 446.622 102.756 446.622 102.756C446.622 102.756 446.621 102.756 446.621 102.756C446.621 102.756 446.62 102.756 446.619 102.756C446.616 102.755 446.613 102.755 446.609 102.755C446.602 102.754 446.591 102.753 446.576 102.752C446.547 102.749 446.505 102.745 446.45 102.74C446.341 102.73 446.182 102.717 445.978 102.7C445.571 102.668 444.986 102.626 444.27 102.586C442.84 102.507 440.88 102.436 438.763 102.475C436.652 102.513 434.356 102.659 432.265 103.021C430.207 103.377 428.197 103.966 426.773 104.983L428.227 107.017ZM1402.5 106.5C1402.6 107.746 1402.6 107.746 1402.6 107.746L1402.6 107.746C1402.6 107.746 1402.6 107.746 1402.6 107.746C1402.6 107.746 1402.6 107.746 1402.6 107.746C1402.61 107.745 1402.62 107.745 1402.63 107.744C1402.65 107.743 1402.68 107.74 1402.72 107.737C1402.81 107.732 1402.94 107.724 1403.1 107.716C1403.43 107.7 1403.91 107.683 1404.48 107.68C1405.64 107.672 1407.19 107.718 1408.77 107.927C1410.37 108.137 1411.92 108.504 1413.13 109.098C1414.33 109.691 1415.05 110.43 1415.29 111.329L1417.71 110.671C1417.2 108.82 1415.79 107.621 1414.23 106.855C1412.67 106.089 1410.82 105.675 1409.1 105.448C1407.37 105.22 1405.7 105.172 1404.47 105.18C1403.85 105.184 1403.34 105.202 1402.98 105.219C1402.8 105.228 1402.66 105.236 1402.56 105.243C1402.51 105.246 1402.47 105.249 1402.45 105.251C1402.43 105.252 1402.42 105.252 1402.41 105.253C1402.41 105.253 1402.41 105.253 1402.4 105.254C1402.4 105.254 1402.4 105.254 1402.4 105.254C1402.4 105.254 1402.4 105.254 1402.4 105.254C1402.4 105.254 1402.4 105.254 1402.5 106.5ZM1415.29 111.329C1416.05 114.114 1417.19 117.641 1418.13 120.458C1418.6 121.869 1419.02 123.108 1419.33 123.994C1419.48 124.437 1419.6 124.792 1419.69 125.036C1419.73 125.159 1419.76 125.253 1419.79 125.317C1419.8 125.35 1419.81 125.374 1419.81 125.391C1419.82 125.399 1419.82 125.405 1419.82 125.409C1419.82 125.412 1419.82 125.413 1419.82 125.414C1419.82 125.415 1419.82 125.415 1419.82 125.416C1419.82 125.416 1419.82 125.416 1419.82 125.416C1419.82 125.416 1419.82 125.416 1421 125C1422.18 124.584 1422.18 124.584 1422.18 124.584C1422.18 124.584 1422.18 124.584 1422.18 124.584C1422.18 124.583 1422.18 124.583 1422.18 124.583C1422.18 124.582 1422.18 124.58 1422.18 124.578C1422.18 124.574 1422.17 124.568 1422.17 124.56C1422.16 124.544 1422.16 124.52 1422.15 124.489C1422.12 124.426 1422.09 124.333 1422.05 124.212C1421.96 123.97 1421.84 123.618 1421.69 123.178C1421.39 122.298 1420.97 121.068 1420.5 119.667C1419.56 116.859 1418.45 113.386 1417.71 110.671L1415.29 111.329Z" fill="#5D44C4"/>
</svg>
