<svg width="350" height="200" viewBox="0 0 350 200" fill="none" xmlns="http://www.w3.org/2000/svg">
<rect x="0.5" y="0.5" width="349" height="199" rx="5.5" fill="white"/>
<rect x="0.5" y="0.5" width="349" height="199" rx="5.5" stroke="#DDDDDD"/>
<g clip-path="url(#clip0_621_5259)">
<path d="M114.56 120.679L129.247 78.2478C129.297 78.0988 129.433 78 129.584 78H135.092C135.244 78 135.379 78.0997 135.431 78.2478L150.06 120.679C150.144 120.923 149.97 121.181 149.722 121.181H144.184C144.031 121.181 143.894 121.079 143.844 120.929L140.625 111.217C140.575 111.066 140.439 110.964 140.285 110.964H124.099C123.947 110.964 123.81 111.065 123.759 111.215L120.484 120.93C120.433 121.08 120.297 121.181 120.144 121.181H114.898C114.648 121.181 114.475 120.923 114.56 120.679ZM125.986 105.915H138.343C138.59 105.915 138.764 105.661 138.684 105.418L132.532 86.9244C132.42 86.5884 131.964 86.5884 131.852 86.9235L125.646 105.417C125.564 105.66 125.738 105.915 125.986 105.915Z" fill="#0D232F"/>
<path d="M159.462 78.3748V120.806C159.462 121.013 159.301 121.181 159.102 121.181H154.158C153.959 121.181 153.798 121.013 153.798 120.806V78.3748C153.798 78.1676 153.959 78 154.158 78H159.102C159.301 78 159.462 78.1676 159.462 78.3748Z" fill="#0D232F"/>
<path d="M170.262 78.3748V120.806C170.262 121.013 170.102 121.181 169.903 121.181H164.959C164.76 121.181 164.599 121.013 164.599 120.806V78.3748C164.599 78.1676 164.76 78 164.959 78H169.903C170.101 78 170.262 78.1676 170.262 78.3748Z" fill="#0D232F"/>
<path d="M174.466 105.671C174.466 96.0008 180.304 89.5547 189.062 89.5547C197.761 89.5547 203.542 95.7574 203.542 104.941C203.542 105.613 203.5 106.372 203.451 107.032C203.437 107.227 203.28 107.374 203.092 107.374H180.627C180.42 107.374 180.251 107.56 180.262 107.774C180.593 113.775 184.497 116.861 189.296 116.861C192.664 116.861 195.475 115.349 196.962 112.438C197.024 112.317 197.142 112.239 197.273 112.239H202.384C202.634 112.239 202.815 112.502 202.728 112.746C200.784 118.178 195.806 121.727 189.179 121.727C180.304 121.727 174.466 115.341 174.466 105.671ZM180.711 103.116H197.367C197.578 103.116 197.75 102.921 197.731 102.701C197.236 97.0794 193.622 94.2978 189.062 94.2978C184.619 94.2978 181.01 97.0759 180.348 102.69C180.322 102.913 180.494 103.116 180.711 103.116Z" fill="#0D232F"/>
<path d="M206.898 84.1992V78.3748C206.898 78.1676 207.059 78 207.258 78H213.085C213.284 78 213.445 78.1676 213.445 78.3748V84.1992C213.445 84.4064 213.284 84.574 213.085 84.574H207.258C207.059 84.574 206.898 84.4064 206.898 84.1992ZM207.34 120.806V90.5386C207.34 90.3313 207.501 90.1638 207.7 90.1638H212.643C212.842 90.1638 213.003 90.3313 213.003 90.5386V120.806C213.003 121.013 212.842 121.181 212.643 121.181H207.7C207.501 121.181 207.34 121.012 207.34 120.806Z" fill="#0D232F"/>
<path d="M261.686 121.18H256.684C256.485 121.18 256.324 121.013 256.324 120.805V102.874C256.324 97.2787 253.756 94.9681 249.785 94.9681C245.932 94.9681 242.954 97.6439 242.837 103.543V120.805C242.837 121.013 242.676 121.18 242.477 121.18H237.709C237.51 121.18 237.349 121.013 237.349 120.805V103.239C237.349 97.7047 234.897 94.9681 230.869 94.9681C226.49 94.9681 223.862 97.8873 223.862 102.936V120.805C223.862 121.013 223.702 121.18 223.503 121.18H218.559C218.36 121.18 218.199 121.013 218.199 120.805V90.5381C218.199 90.3308 218.36 90.1632 218.559 90.1632H222.983C223.155 90.1632 223.302 90.2893 223.336 90.4649L223.808 92.9228C223.869 93.2386 224.259 93.3329 224.442 93.0736C226.115 90.7127 228.955 89.5547 232.035 89.5547C236.158 89.5547 239.558 91.2807 241.354 94.7317C241.493 94.9998 241.847 95.0016 241.989 94.7352C243.906 91.1281 247.539 89.5547 251.068 89.5547C257.433 89.5547 262.045 93.9335 262.045 101.779V120.805C262.046 121.013 261.885 121.18 261.686 121.18Z" fill="#0D232F"/>
<path d="M265.753 112.343C265.753 107.165 268.853 103.143 277.042 103.143H285.808C286.007 103.143 286.168 102.975 286.168 102.768V101.559C286.168 96.5627 283.242 94.3693 279.089 94.3693C275.017 94.3693 272.476 96.1923 272.048 99.3426C272.022 99.5278 271.878 99.6698 271.698 99.6698H267.024C266.812 99.6698 266.64 99.4766 266.659 99.2579C267.203 92.9988 271.994 89.5557 278.921 89.5557C286.058 89.5557 291.666 93.4556 291.666 101.62V114.477C291.666 116.304 292.251 116.67 293.713 116.67H294.64C294.839 116.67 295 116.838 295 117.045V120.805C295 121.012 294.839 121.179 294.64 121.179H291.549C289.327 121.179 287.392 120.332 286.783 117.87C286.709 117.573 286.35 117.482 286.167 117.721C284.297 120.152 280.741 121.789 276.4 121.789C269.906 121.788 265.753 118.254 265.753 112.343ZM277.568 117.096C282.189 117.096 286.108 114.477 286.108 108.87V107.722C286.108 107.515 285.947 107.347 285.748 107.347H277.451C272.772 107.347 271.251 109.48 271.251 112.161C271.251 115.573 273.883 117.096 277.568 117.096Z" fill="#0D232F"/>
<path d="M80.8936 78H70.0054L89.3357 121.181H100.224L80.8936 78Z" fill="#FF5532"/>
<path d="M55 78V88.6821H69.0199C69.2663 88.6821 69.4297 88.9484 69.3256 89.1813L55 121.181H65.8881L72.4472 106.528C78.3993 93.2338 69.0826 78 55 78Z" fill="#FF5532"/>
</g>
<defs>
<clipPath id="clip0_621_5259">
<rect width="240" height="43.7894" fill="white" transform="translate(55 78)"/>
</clipPath>
</defs>
</svg>
