<?xml version="1.0" encoding="utf-8"?>
<!-- Generator: Adobe Illustrator 27.0.0, SVG Export Plug-In . SVG Version: 6.00 Build 0)  -->
<svg version="1.1" id="Layer_1" xmlns="http://www.w3.org/2000/svg" xmlns:xlink="http://www.w3.org/1999/xlink" x="0px" y="0px"
	 viewBox="0 0 24 24" style="enable-background:new 0 0 24 24;" xml:space="preserve">
<style type="text/css">
	.st0{fill:#565656;}
</style>
<g>
	<path class="st0" d="M23.1,5.4c-0.3-0.6-0.8-1-1.4-1.3C18.3,2.3,14.5,2,12,2C9.5,2,5.8,2.3,2.3,4.1C1.7,4.4,1.2,4.8,0.9,5.4
		C0.6,6,0.5,6.6,0.6,7.3l0.3,2.5c0,0.3,0.2,0.5,0.4,0.7c0.2,0.2,0.5,0.3,0.8,0.3c0.1,0,0.2,0,0.3,0L5.8,10c0.3-0.1,0.5-0.2,0.7-0.5
		C6.7,9.3,6.7,9,6.7,8.7L6.5,6.9c0-0.1,0-0.3,0.1-0.4C6.7,6.4,6.8,6.3,7,6.2c1.6-0.4,3.3-0.6,5-0.6s3.4,0.2,5,0.6
		c0.1,0,0.3,0.1,0.4,0.2c0.1,0.1,0.1,0.3,0.1,0.4l-0.2,1.8c0,0.3,0,0.6,0.2,0.8c0.2,0.2,0.4,0.4,0.7,0.5l3.4,0.8c0.1,0,0.2,0,0.3,0
		c0.1,0,0.1,0,0.2,0c0.2,0,0.3-0.1,0.5-0.2s0.3-0.2,0.3-0.4c0.1-0.1,0.1-0.3,0.2-0.5l0.3-2.5C23.5,6.6,23.4,6,23.1,5.4z M5.8,9.1
		c0,0.1-0.1,0.1-0.2,0.1L2.2,10l0,0.1L2,10c0,0-0.1,0-0.1-0.1c0,0-0.1-0.1-0.1-0.1c0,0,0-0.1,0-0.1L1.7,9.2l4.1-1l0.1,0.6
		C5.9,8.9,5.9,9,5.8,9.1z M22.2,9.7c0,0,0,0.1,0,0.1c0,0-0.1,0.1-0.1,0.1c0,0-0.1,0-0.1,0.1l-0.1,0.1L21.8,10l-3.4-0.8
		c-0.1,0-0.2-0.1-0.2-0.1c0-0.1-0.1-0.1-0.1-0.2l0.1-0.5l4.1,1L22.2,9.7z M22.4,8.4l-4.1-1l0-0.5c0-0.4-0.1-0.7-0.3-1
		c-0.2-0.3-0.5-0.5-0.9-0.6C15.5,5,13.8,4.8,12,4.8c-1.8,0-3.5,0.2-5.2,0.6C6.5,5.5,6.1,5.7,5.9,6C5.7,6.3,5.6,6.6,5.7,7l0,0.4
		l-4.1,1L1.4,7.2c-0.1-0.5,0-0.9,0.2-1.4c0.2-0.4,0.6-0.8,1-1c3.3-1.7,6.9-2,9.3-2c2.4,0,6,0.3,9.3,2c0.4,0.2,0.8,0.5,1,1
		c0.2,0.4,0.3,0.9,0.2,1.4L22.4,8.4z"/>
	<path class="st0" d="M20.2,13.4c-0.8-0.4-1.6-1-2.1-1.8c-0.5-0.8-0.9-1.6-1-2.6c0-0.3-0.2-0.7-0.5-0.9c-0.2-0.2-0.4-0.3-0.7-0.3
		V7.4c0-0.2-0.1-0.5-0.3-0.6c-0.2-0.2-0.4-0.3-0.6-0.3h-0.6c-0.2,0-0.5,0.1-0.6,0.3c-0.2,0.2-0.3,0.4-0.3,0.6v0.5h-3V7.4
		c0-0.2-0.1-0.5-0.3-0.6S9.8,6.4,9.6,6.4H9c-0.2,0-0.5,0.1-0.6,0.3C8.2,6.9,8.1,7.1,8.1,7.4v0.5C7.8,8,7.6,8.1,7.4,8.2
		C7.2,8.4,7,8.8,7,9.1c-0.1,0.9-0.5,1.8-1,2.6c-0.5,0.8-1.3,1.4-2.1,1.8c-0.4,0.2-0.7,0.5-0.9,0.8c-0.2,0.4-0.3,0.8-0.3,1.2v5.2
		c0,0.3,0.1,0.7,0.4,0.9C3.2,21.9,3.6,22,3.9,22h16.2c0.3,0,0.7-0.1,0.9-0.4c0.2-0.2,0.4-0.6,0.4-0.9l0-5.2c0-0.4-0.1-0.8-0.3-1.2
		C20.9,13.9,20.6,13.6,20.2,13.4z M14.4,7.3C14.4,7.3,14.4,7.3,14.4,7.3l0.7,0v0.5h-0.7L14.4,7.3z M9,7.3l0-0.1L9,7.3l0.7,0.1v0.5
		H8.9L9,7.3z M20.6,20.7c0,0.1,0,0.2-0.1,0.3c-0.1,0.1-0.2,0.1-0.3,0.1H3.9c-0.1,0-0.2,0-0.3-0.1c-0.1-0.1-0.1-0.2-0.1-0.3V19h17.1
		V20.7z M20.6,18.1H3.4l0-2.7c0-0.3,0.1-0.5,0.2-0.7c0.1-0.2,0.3-0.4,0.6-0.5c1-0.5,1.8-1.2,2.4-2c0.6-0.9,1-1.9,1.2-2.9
		c0-0.1,0.1-0.3,0.2-0.4c0.1-0.1,0.2-0.1,0.4-0.1h7.2c0.1,0,0.3,0.1,0.4,0.1c0.1,0.1,0.2,0.2,0.2,0.4c0.2,1.1,0.6,2.1,1.2,2.9
		c0.6,0.9,1.5,1.6,2.4,2c0.2,0.1,0.4,0.3,0.6,0.5c0.1,0.2,0.2,0.5,0.2,0.7V18.1z"/>
	<path class="st0" d="M13.4,10.2C13,10,12.5,9.9,12,9.9c-0.2,0-0.5,0-0.7,0.1c-0.7,0.1-1.4,0.5-1.9,1c-0.5,0.5-0.9,1.2-1,1.9
		c-0.1,0.7-0.1,1.5,0.2,2.1c0.3,0.7,0.8,1.3,1.4,1.7c0.6,0.4,1.3,0.6,2.1,0.6c1,0,1.9-0.4,2.6-1.1s1.1-1.6,1.1-2.6
		c0-0.7-0.2-1.5-0.6-2.1C14.7,11,14.1,10.5,13.4,10.2z M14.4,15.2c-0.3,0.5-0.8,0.8-1.3,1.1c-0.3,0.1-0.7,0.2-1.1,0.2
		c-0.2,0-0.4,0-0.6-0.1c-0.6-0.1-1.1-0.4-1.5-0.8c-0.4-0.4-0.7-0.9-0.8-1.5c-0.1-0.6-0.1-1.1,0.2-1.7c0.2-0.5,0.6-1,1.1-1.3
		c0.5-0.3,1-0.5,1.6-0.5c0.8,0,1.5,0.3,2,0.8c0.5,0.5,0.8,1.3,0.8,2C14.9,14.2,14.7,14.8,14.4,15.2z"/>
	<path class="st0" d="M12,11c-0.1,0-0.2,0-0.3,0.1s-0.1,0.2-0.1,0.3v0.2c0,0.1,0,0.2,0.1,0.3c0.1,0.1,0.2,0.1,0.3,0.1
		c0.1,0,0.2,0,0.3-0.1c0.1-0.1,0.1-0.2,0.1-0.3v-0.2c0-0.1,0-0.2-0.1-0.3C12.2,11.1,12.1,11,12,11z"/>
	<path class="st0" d="M10.2,12.4l0.1,0.1c0.1,0.1,0.2,0.1,0.3,0.1c0.1,0,0.2,0,0.2-0.1c0.1,0,0.1-0.1,0.2-0.2c0-0.1,0-0.2,0-0.2
		S11,12,10.9,11.9l-0.1-0.1c0,0-0.1-0.1-0.1-0.1c-0.1,0-0.1,0-0.2,0c-0.1,0-0.1,0-0.2,0c-0.1,0-0.1,0.1-0.1,0.1c0,0-0.1,0.1-0.1,0.1
		s0,0.1,0,0.2c0,0.1,0,0.1,0,0.2C10.1,12.3,10.1,12.4,10.2,12.4z"/>
	<path class="st0" d="M10.4,13.6c0-0.1,0-0.2-0.1-0.3c-0.1-0.1-0.2-0.1-0.3-0.1H9.8c-0.1,0-0.2,0-0.3,0.1c-0.1,0.1-0.1,0.2-0.1,0.3
		s0,0.2,0.1,0.3c0.1,0.1,0.2,0.1,0.3,0.1H10c0.1,0,0.2,0,0.3-0.1C10.4,13.9,10.4,13.8,10.4,13.6z"/>
	<path class="st0" d="M10.6,14.6c-0.1,0-0.2,0-0.3,0.1l-0.1,0.1c-0.1,0.1-0.1,0.1-0.1,0.2c0,0.1,0,0.2,0,0.2c0,0.1,0.1,0.1,0.2,0.2
		c0.1,0,0.2,0.1,0.2,0.1c0.1,0,0.2,0,0.3-0.1l0.1-0.1C11,15.3,11,15.2,11,15c0-0.1,0-0.2-0.1-0.3C10.8,14.7,10.7,14.6,10.6,14.6z"/>
	<path class="st0" d="M12,15.2c-0.1,0-0.2,0-0.3,0.1c-0.1,0.1-0.1,0.2-0.1,0.3v0.2c0,0.1,0,0.2,0.1,0.3c0.1,0.1,0.2,0.1,0.3,0.1
		c0.1,0,0.2,0,0.3-0.1c0.1-0.1,0.1-0.2,0.1-0.3v-0.2c0-0.1,0-0.2-0.1-0.3C12.2,15.2,12.1,15.2,12,15.2z"/>
	<path class="st0" d="M13.7,14.7c0,0-0.1-0.1-0.1-0.1c-0.1,0-0.1,0-0.2,0s-0.1,0-0.2,0c-0.1,0-0.1,0.1-0.1,0.1c0,0-0.1,0.1-0.1,0.1
		c0,0.1,0,0.1,0,0.2c0,0.1,0,0.1,0,0.2c0,0.1,0.1,0.1,0.1,0.1l0.1,0.1c0.1,0.1,0.2,0.1,0.3,0.1c0.1,0,0.2,0,0.2-0.1
		c0.1,0,0.1-0.1,0.2-0.2c0-0.1,0-0.2,0-0.2c0-0.1-0.1-0.2-0.1-0.2L13.7,14.7z"/>
	<path class="st0" d="M13.7,13.3c-0.1,0.1-0.1,0.2-0.1,0.3s0,0.2,0.1,0.3c0.1,0.1,0.2,0.1,0.3,0.1h0.2c0.1,0,0.2,0,0.3-0.1
		c0.1-0.1,0.1-0.2,0.1-0.3s0-0.2-0.1-0.3c-0.1-0.1-0.2-0.1-0.3-0.1H14C13.9,13.2,13.8,13.3,13.7,13.3z"/>
	<path class="st0" d="M13.2,12.6c0.1,0,0.2,0.1,0.2,0.1c0.1,0,0.2,0,0.3-0.1l0.1-0.1c0,0,0.1-0.1,0.1-0.1c0-0.1,0-0.1,0-0.2
		s0-0.1,0-0.2c0-0.1-0.1-0.1-0.1-0.1c0,0-0.1-0.1-0.1-0.1c-0.1,0-0.1,0-0.2,0s-0.1,0-0.2,0c-0.1,0-0.1,0.1-0.1,0.1l-0.1,0.1
		C13,12,13,12.1,13,12.2s0,0.2,0,0.2C13,12.5,13.1,12.5,13.2,12.6z"/>
</g>
</svg>
