<svg width="80" height="80" viewBox="0 0 80 80" fill="none" xmlns="http://www.w3.org/2000/svg">
<circle cx="40" cy="40" r="40" fill="#EBF4FF"/>
<path d="M22.8535 17.0872V15.7085C22.8535 15.3172 23.1708 15 23.562 15C23.9533 15 24.2705 15.3172 24.2705 15.7085V17.0872C24.2705 17.4785 23.9533 17.7957 23.562 17.7957C23.1708 17.7957 22.8535 17.4785 22.8535 17.0872ZM17.2569 20.3184L16.0629 19.629C15.724 19.4333 15.2907 19.5494 15.095 19.8884C14.8994 20.2272 15.0155 20.6605 15.3544 20.8562L16.5484 21.5455C16.66 21.61 16.7818 21.6406 16.902 21.6406C17.1469 21.6406 17.385 21.5136 17.5162 21.2862C17.7118 20.9474 17.5958 20.5141 17.2569 20.3184ZM27.0525 18.7311C27.1642 18.7955 27.2859 18.8261 27.4062 18.8261C27.651 18.8261 27.8892 18.6991 28.0203 18.4718L28.7097 17.2777C28.9054 16.9389 28.7893 16.5056 28.4504 16.3099C28.1115 16.1143 27.6782 16.2303 27.4826 16.5692L26.7932 17.7633C26.5976 18.1021 26.7137 18.5354 27.0525 18.7311ZM30.222 21.6406C30.3422 21.6406 30.4641 21.61 30.5756 21.5455L31.7696 20.8562C32.1085 20.6605 32.2246 20.2272 32.0289 19.8884C31.8333 19.5496 31.4 19.4333 31.0611 19.629L29.8671 20.3184C29.5282 20.5141 29.4121 20.9474 29.6078 21.2862C29.739 21.5136 29.9771 21.6406 30.222 21.6406ZM19.7178 18.8261C19.8381 18.8261 19.9598 18.7955 20.0715 18.7311C20.4103 18.5354 20.5264 18.1021 20.3308 17.7633L19.6414 16.5692C19.4458 16.2304 19.0126 16.1143 18.6736 16.3099C18.3347 16.5056 18.2186 16.9389 18.4143 17.2777L19.1036 18.4718C19.2348 18.699 19.473 18.8261 19.7178 18.8261ZM60.399 55.4352C60.399 58.1723 58.1723 60.399 55.4352 60.399C52.6982 60.399 50.4715 58.1723 50.4715 55.4352C50.4715 52.6982 52.6982 50.4715 55.4352 50.4715C58.1723 50.4715 60.399 52.6982 60.399 55.4352ZM58.982 55.4352C58.982 53.4796 57.3909 51.8885 55.4352 51.8885C53.4796 51.8885 51.8885 53.4796 51.8885 55.4352C51.8885 57.3909 53.4796 58.982 55.4352 58.982C57.391 58.982 58.982 57.3909 58.982 55.4352ZM65 54.5496V56.3207C65 57.0322 64.4212 57.611 63.7097 57.611C63.1871 57.611 62.7554 57.9001 62.5549 58.3842C62.3544 58.8683 62.4552 59.378 62.8247 59.7476C63.0684 59.9912 63.2025 60.3153 63.2025 60.6599C63.2025 61.0046 63.0683 61.3286 62.8247 61.5723L61.5723 62.8248C61.3286 63.0685 61.0047 63.2027 60.6599 63.2027C60.3152 63.2027 59.9912 63.0685 59.7475 62.8248C59.378 62.4554 58.8683 62.3545 58.3841 62.555C57.9 62.7555 57.6109 63.1871 57.6109 63.7097C57.6109 64.4212 57.0321 65 56.3206 65H54.5495C53.8381 65 53.2592 64.4212 53.2592 63.7097C53.2592 63.1861 52.9703 62.7539 52.4866 62.5535C52.0029 62.353 51.4929 62.4545 51.1227 62.8248C50.8792 63.0684 50.5551 63.2027 50.2103 63.2027C49.8656 63.2027 49.5416 63.0684 49.2979 62.8247L48.0454 61.5723C47.8017 61.3286 47.6676 61.0046 47.6676 60.6599C47.6676 60.3153 47.8018 59.9912 48.0454 59.7476C48.415 59.378 48.5159 58.8683 48.3154 58.3842C48.1149 57.9001 47.6831 57.611 47.1605 57.611C46.4491 57.611 45.8702 57.0322 45.8702 56.3207V55.9114L40.354 59.0963C40.2444 59.1595 40.1221 59.1912 39.9998 59.1912C39.8775 59.1912 39.7552 59.1596 39.6455 59.0963L23.6392 49.855C23.4199 49.7284 23.2849 49.4945 23.2849 49.2414V34.926H22.59C21.8306 34.926 21.2127 34.3082 21.2127 33.5487V33.5464H21.1924C20.4108 33.5464 19.775 32.9104 19.775 32.1288V30.5987C19.775 30.0807 20.0552 29.628 20.4711 29.3808C20.284 27.9562 19.8663 27.3087 19.4607 26.681C19.0204 25.9996 18.5651 25.295 18.5651 23.8978C18.5651 21.1424 20.8068 18.9007 23.5621 18.9007C26.3175 18.9007 28.5592 21.1423 28.5592 23.8978C28.5592 25.295 28.1038 25.9996 27.6636 26.681C27.3816 27.1174 27.0937 27.5633 26.8816 28.2731L39.6458 20.9036C39.865 20.777 40.135 20.777 40.3543 20.9036L56.3608 30.145C56.5801 30.2716 56.7151 30.5055 56.7151 30.7586V45.9327C57.2342 46.0998 57.6111 46.5869 57.6111 47.1608C57.6111 47.6834 57.9001 48.1151 58.3843 48.3157C58.8685 48.5162 59.3781 48.4154 59.7478 48.0457C60.2509 47.5427 61.0694 47.5427 61.5725 48.0457L62.825 49.2983C63.0687 49.542 63.2028 49.866 63.2028 50.2106C63.2028 50.5554 63.0686 50.8793 62.8249 51.123C62.4555 51.4925 62.3546 52.0022 62.5551 52.4863C62.7556 52.9704 63.1873 53.2595 63.7099 53.2595C64.4213 53.2593 65 53.8382 65 54.5496ZM46.4854 43.1387L49.5212 41.386V35.3212L46.4854 37.0738V43.1387ZM27.3492 30.5987V31.8778L40 39.1819L44.3599 36.6647L29.7703 28.2413L27.0923 29.7874C27.2536 30.0176 27.3492 30.297 27.3492 30.5987ZM48.8127 34.0939L34.2231 25.6705L31.1873 27.4232L45.7769 35.8466L48.8127 34.0939ZM35.64 24.8525L50.2296 33.2758L54.5896 30.7586L40 22.3352L35.64 24.8525ZM19.9819 23.8978C19.9819 24.877 20.2479 25.2888 20.6506 25.9119C21.0975 26.6034 21.6418 27.4471 21.8734 29.1813H22.8534V25.105L21.3686 24.2477C21.0298 24.052 20.9137 23.6187 21.1093 23.2799C21.305 22.941 21.7383 22.8249 22.0771 23.0205L23.5619 23.8777L25.0467 23.0205C25.3855 22.8249 25.8188 22.941 26.0145 23.2799C26.2101 23.6187 26.094 24.052 25.7552 24.2477L24.2704 25.1049V29.1812H25.2505C25.4821 27.447 26.0264 26.6034 26.4733 25.9118C26.876 25.2887 27.142 24.8769 27.142 23.8977C27.142 21.9237 25.536 20.3176 23.5619 20.3176C21.588 20.3178 19.9819 21.9238 19.9819 23.8978ZM22.6296 32.8379V33.509H24.4943V32.8379C24.4943 32.4466 24.8115 32.1294 25.2028 32.1294H25.9316L25.9321 30.5987L21.1921 30.5983L21.1918 32.1288L21.9211 32.1294C22.3124 32.1294 22.6296 32.4466 22.6296 32.8379ZM24.7019 48.8323L39.2915 57.2556V40.409L26.837 33.2184C26.5913 33.423 26.2757 33.5464 25.9317 33.5464L25.9114 33.5487C25.9114 34.2512 25.3824 34.8315 24.7019 34.9147V48.8323ZM47.1607 53.2593C47.6833 53.2593 48.115 52.9703 48.3156 52.4861C48.5161 52.0019 48.4152 51.4923 48.0456 51.1227C47.802 50.879 47.6678 50.5551 47.6678 50.2103C47.6678 49.8657 47.802 49.5417 48.0456 49.298L49.2982 48.0454C49.5418 47.8018 49.8658 47.6676 50.2105 47.6676C50.5553 47.6676 50.8793 47.8018 51.1229 48.0454C51.4925 48.415 52.0022 48.5158 52.4863 48.3154C52.9704 48.1149 53.2595 47.6831 53.2595 47.1605C53.2595 46.4491 53.8384 45.8702 54.5498 45.8702H55.2982V31.9857L50.9383 34.5029V41.795C50.9383 42.0482 50.8032 42.2821 50.584 42.4086L46.1313 44.9794C46.0217 45.0426 45.8993 45.0743 45.777 45.0743C45.6548 45.0743 45.5324 45.0427 45.4228 44.9794C45.2035 44.8528 45.0685 44.6189 45.0685 44.3658V37.8918L40.7085 40.409V57.2557L45.9058 54.2551C46.0396 53.6852 46.5508 53.2593 47.1607 53.2593ZM63.583 54.6736C62.5388 54.627 61.6505 54.0056 61.2457 53.0285C60.841 52.0513 61.0297 50.9839 61.7351 50.2126L60.6579 49.1353C59.8864 49.8408 58.8188 50.0294 57.8418 49.6247C56.8647 49.2199 56.2433 48.3318 56.1968 47.2876H54.6735C54.6269 48.3318 54.0056 49.22 53.0284 49.6247C52.0513 50.0296 50.9837 49.8409 50.2123 49.1353L49.1351 50.2126C49.8407 50.984 50.0293 52.0514 49.6245 53.0286C49.2197 54.0059 48.3318 54.627 47.2874 54.6736V56.1969C48.3318 56.2434 49.2199 56.8648 49.6247 57.8419C50.0296 58.8191 49.8408 59.8865 49.1353 60.6579L50.2126 61.7351C50.9847 61.0289 52.0523 60.8398 53.0291 61.2443C54.006 61.649 54.6271 62.5378 54.6737 63.5829H56.197C56.2435 62.5386 56.8649 61.6504 57.842 61.2456C58.8193 60.8409 59.8866 61.0295 60.6581 61.735L61.7353 60.6578C61.0298 59.8864 60.8412 58.819 61.2459 57.8418C61.6507 56.8647 62.5389 56.2433 63.5832 56.1968V54.6736H63.583Z" fill="#182A41"/>
</svg>
